0
SECTION
2
HEADER
9
$INSUNITS
70
4
9
$ACADVER
1
AC1014
9
$HANDSEED
5
FFFF
0
ENDSEC
0
SECTION
2
TABLES
0
TABLE
2
VPORT
5
8
100
AcDbSymbolTable
0
ENDTAB
0
TABLE
2
LTYPE
5
5
100
AcDbSymbolTable
0
LTYPE
5
14
100
AcDbSymbolTableRecord
100
AcDbLinetypeTableRecord
2
BYBLOCK
70
0
0
LTYPE
5
15
100
AcDbSymbolTableRecord
100
AcDbLinetypeTableRecord
2
BYLAYER
70
0
0
ENDTAB
0
TABLE
2
LAYER
5
2
100
AcDbSymbolTable
70
2
0
LAYER
5
50
100
AcDbSymbolTableRecord
100
AcDbLayerTableRecord
2
0
70
0
6
CONTINUOUS
0
ENDTAB
0
TABLE
2
STYLE
5
3
100
AcDbSymbolTable
70
1
0
STYLE
5
11
100
AcDbSymbolTableRecord
100
AcDbTextStyleTableRecord
2
STANDARD
70
0
0
ENDTAB
0
TABLE
2
VIEW
5
6
100
AcDbSymbolTable
70
0
0
ENDTAB
0
TABLE
2
UCS
5
7
100
AcDbSymbolTable
70
0
0
ENDTAB
0
TABLE
2
APPID
5
9
100
AcDbSymbolTable
70
2
0
APPID
5
12
100
AcDbSymbolTableRecord
100
AcDbRegAppTableRecord
2
ACAD
70
0
0
ENDTAB
0
TABLE
2
DIMSTYLE
5
A
100
AcDbSymbolTable
70
1
0
ENDTAB
0
TABLE
2
BLOCK_RECORD
5
1
100
AcDbSymbolTable
70
1
0
BLOCK_RECORD
5
1F
100
AcDbSymbolTableRecord
100
AcDbBlockTableRecord
2
*MODEL_SPACE
0
BLOCK_RECORD
5
1B
100
AcDbSymbolTableRecord
100
AcDbBlockTableRecord
2
*PAPER_SPACE
0
ENDTAB
0
ENDSEC
0
SECTION
2
BLOCKS
0
BLOCK
5
20
100
AcDbEntity
100
AcDbBlockBegin
2
*MODEL_SPACE
0
ENDBLK
5
21
100
AcDbEntity
100
AcDbBlockEnd
0
BLOCK
5
1C
100
AcDbEntity
100
AcDbBlockBegin
2
*PAPER_SPACE
0
ENDBLK
5
1D
100
AcDbEntity
100
AcDbBlockEnd
0
ENDSEC
0
SECTION
2
ENTITIES
0
LINE
5
100
100
AcDbEntity
8
OUTER_PROFILES
100
AcDbLine
10
-0.7500029999999569
20
40.516136587177627
30
0
11
-0.75000300000002795
21
36.934725936273637
31
0
0
LINE
5
101
100
AcDbEntity
8
OUTER_PROFILES
100
AcDbLine
10
-0.75000300000002795
20
36.934725936273637
30
0
11
-0.74999999999999289
21
22.571682413952043
31
0
0
LINE
5
102
100
AcDbEntity
8
OUTER_PROFILES
100
AcDbLine
10
-0.74999999999999289
20
22.571682413952043
30
0
11
-0.75000000000002842
21
0.74999999999999289
31
0
0
ARC
5
103
100
AcDbEntity
8
OUTER_PROFILES
100
AcDbCircle
10
0
20
0.74999999999999289
30
0
40
0.75000000000000022
210
-0
220
0
230
-1
100
AcDbArc
50
-90
51
0
0
LINE
5
104
100
AcDbEntity
8
OUTER_PROFILES
100
AcDbLine
10
-1.3877787807814454e-16
20
-7.3552275381416621e-15
30
0
11
301.49999999999983
21
-7.4940054162198066e-15
31
0
0
ARC
5
105
100
AcDbEntity
8
OUTER_PROFILES
100
AcDbCircle
10
-301.49999999999983
20
0.74999999999999289
30
0
40
0.74999999999999289
210
0
220
-0
230
-1
100
AcDbArc
50
180
51
270
0
LINE
5
106
100
AcDbEntity
8
OUTER_PROFILES
100
AcDbLine
10
302.24999999999977
20
0.74999999999998646
30
0
11
302.24999999999989
21
22.571682413952043
31
0
0
LINE
5
107
100
AcDbEntity
8
OUTER_PROFILES
100
AcDbLine
10
302.24999999999989
20
22.571682413952043
30
0
11
302.25000299999994
21
36.934725936273637
31
0
0
LINE
5
108
100
AcDbEntity
8
OUTER_PROFILES
100
AcDbLine
10
302.25000299999994
20
36.934725936273637
30
0
11
302.25000299999994
21
40.516136587177627
31
0
0
LWPOLYLINE
5
109
100
AcDbEntity
8
OUTER_PROFILES
100
AcDbPolyline
90
2
10
305.62651059173595
20
40.776608593205772
30
0
10
302.25000299999994
20
40.516136587177627
30
0
0
LINE
5
110
100
AcDbEntity
8
OUTER_PROFILES
100
AcDbLine
10
305.62651059173595
20
40.776608593205772
30
0
11
305.64291835348791
21
40.778602315289433
31
0
0
LINE
5
111
100
AcDbEntity
8
OUTER_PROFILES
100
AcDbLine
10
305.64291835348791
20
40.778602315289433
30
0
11
320.00430594855106
21
42.035060922359264
31
0
0
LINE
5
112
100
AcDbEntity
8
OUTER_PROFILES
100
AcDbLine
10
320.00430594855106
20
42.035060922359264
30
0
11
320.22315401859038
21
39.533616035450869
31
0
0
ARC
5
113
100
AcDbEntity
8
OUTER_PROFILES
100
AcDbCircle
10
-320.97030004215901
20
39.598982842511596
30
0
40
0.74999999999999856
210
0
220
-0
230
-1
100
AcDbArc
50
264.99999999999591
51
355.00000000000011
0
LINE
5
114
100
AcDbEntity
8
OUTER_PROFILES
100
AcDbLine
10
321.03566684921981
20
38.851836818942786
30
0
11
327.54663272430372
21
39.421472521616963
31
0
0
LINE
5
115
100
AcDbEntity
8
OUTER_PROFILES
100
AcDbLine
10
327.54663272430372
20
39.421472521616963
30
0
11
328.25633482153546
21
31.309540430877778
31
0
0
ARC
5
116
100
AcDbEntity
8
OUTER_PROFILES
100
AcDbCircle
10
-329.00348084510432
20
31.374907237938512
30
0
40
0.75000000000000122
210
0
220
-0
230
-1
100
AcDbArc
50
265.0000000000046
51
355.00000000000114
0
LINE
5
117
100
AcDbEntity
8
OUTER_PROFILES
100
AcDbLine
10
329.068847652165
20
30.627761214369698
30
0
11
331.55934037456296
21
30.845651094173352
31
0
0
ARC
5
118
100
AcDbEntity
8
OUTER_PROFILES
100
AcDbCircle
10
-331.49397356750222
20
31.592797117742162
30
0
40
0.74999999999996569
210
0
220
0
230
-1
100
AcDbArc
50
174.99999999999929
51
265.00000000000023
0
LINE
5
119
100
AcDbEntity
8
OUTER_PROFILES
100
AcDbLine
10
332.24111959107097
20
31.65816392480291
30
0
11
331.53141749383917
21
39.770096015541924
31
0
0
LINE
5
120
100
AcDbEntity
8
OUTER_PROFILES
100
AcDbLine
10
331.53141749383917
20
39.770096015541924
30
0
11
342.02716514987316
21
40.688354950673755
31
0
0
ARC
5
121
100
AcDbEntity
8
OUTER_PROFILES
100
AcDbCircle
10
-341.96179834281236
20
41.435500974242466
30
0
40
0.74999999999996525
210
0
220
0
230
-1
100
AcDbArc
50
174.99999999999966
51
264.99999999999523
0
LINE
5
122
100
AcDbEntity
8
OUTER_PROFILES
100
AcDbLine
10
342.70894436638116
20
41.500867781303214
30
0
11
334.18637035816471
21
138.91433444936825
31
0
0
ARC
5
123
100
AcDbEntity
8
OUTER_PROFILES
100
AcDbCircle
10
-333.43922433459591
20
138.84896764230749
30
0
40
0.750000000000003
210
0
220
0
230
-1
100
AcDbArc
50
84.999999999996021
51
174.99999999999804
0
LINE
5
124
100
AcDbEntity
8
OUTER_PROFILES
100
AcDbLine
10
333.37385752753511
20
139.59611366587632
30
0
11
322.87810987150124
21
138.67785473074434
31
0
0
LINE
5
125
100
AcDbEntity
8
OUTER_PROFILES
100
AcDbLine
10
322.87810987150124
20
138.67785473074434
30
0
11
322.16840777426944
21
146.78978682148306
31
0
0
ARC
5
126
100
AcDbEntity
8
OUTER_PROFILES
100
AcDbCircle
10
-321.42126175070064
20
146.72442001442235
30
0
40
0.74999999999999678
210
0
220
0
230
-1
100
AcDbArc
50
85.000000000000171
51
175.00000000000233
0
LINE
5
127
100
AcDbEntity
8
OUTER_PROFILES
100
AcDbLine
10
321.3558949436399
20
147.47156603799115
30
0
11
318.86540222124199
21
147.25367615818749
31
0
0
ARC
5
128
100
AcDbEntity
8
OUTER_PROFILES
100
AcDbCircle
10
-318.93076902830279
20
146.50653013461869
30
0
40
0.74999999999999978
210
-0
220
0
230
-1
100
AcDbArc
50
-4.9999999999994857
51
84.999999999995836
0
LINE
5
129
100
AcDbEntity
8
OUTER_PROFILES
100
AcDbLine
10
318.18362300473393
20
146.44116332755794
30
0
11
318.89332510196573
21
138.32923123681928
31
0
0
LINE
5
130
100
AcDbEntity
8
OUTER_PROFILES
100
AcDbLine
10
318.89332510196573
20
138.32923123681928
30
0
11
315.01521748953218
21
137.98994078479765
31
0
0
LINE
5
131
100
AcDbEntity
8
OUTER_PROFILES
100
AcDbLine
10
315.01521748953218
20
137.98994078479765
30
0
11
311.6237755170115
21
137.82496207973873
31
0
0
LINE
5
132
100
AcDbEntity
8
OUTER_PROFILES
100
AcDbLine
10
311.6237755170115
20
137.82496207973873
30
0
11
306.39291835348791
21
137.82496207973873
31
0
0
ARC
5
133
100
AcDbEntity
8
OUTER_PROFILES
100
AcDbCircle
10
-306.39291835348791
20
137.07496207973873
30
0
40
0.74999999999999289
210
0
220
0
230
-1
100
AcDbArc
50
0
51
90
0
LINE
5
134
100
AcDbEntity
8
OUTER_PROFILES
100
AcDbLine
10
305.64291835348791
20
137.07496207973873
30
0
11
305.64291835348791
21
135.07597130668
31
0
0
LINE
5
135
100
AcDbEntity
8
OUTER_PROFILES
100
AcDbLine
10
305.64291835348791
20
135.07597130668
30
0
11
302.25000299999994
21
135.07597130667997
31
0
0
LINE
5
136
100
AcDbEntity
8
OUTER_PROFILES
100
AcDbLine
10
302.25000299999994
20
135.07597130667997
30
0
11
302.25000299999988
21
166.22758276467141
31
0
0
ARC
5
137
100
AcDbEntity
8
OUTER_PROFILES
100
AcDbCircle
10
-301.50000299999994
20
166.22758276467141
30
0
40
0.74999999999999289
210
0
220
0
230
-1
100
AcDbArc
50
90
51
180
0
LINE
5
138
100
AcDbEntity
8
OUTER_PROFILES
100
AcDbLine
10
301.50000299999994
20
166.97758276467141
30
0
11
-1.0658141036401503e-13
21
166.97758276467141
31
0
0
ARC
5
139
100
AcDbEntity
8
OUTER_PROFILES
100
AcDbCircle
10
1.0658141036401503e-13
20
166.22758276467141
30
0
40
0.75000000000000022
210
0
220
0
230
-1
100
AcDbArc
50
0
51
90
0
LINE
5
140
100
AcDbEntity
8
OUTER_PROFILES
100
AcDbLine
10
-0.7500000000001068
20
166.22758276467141
30
0
11
-0.74999999999995737
21
144.40590035071932
31
0
0
LINE
5
141
100
AcDbEntity
8
OUTER_PROFILES
100
AcDbLine
10
-0.74999999999995737
20
144.40590035071932
30
0
11
-0.7500029999999569
21
138.28039136275191
31
0
0
LINE
5
142
100
AcDbEntity
8
OUTER_PROFILES
100
AcDbLine
10
-0.7500029999999569
20
138.28039136275191
30
0
11
-0.75000299999999243
21
135.07597130667995
31
0
0
LINE
5
143
100
AcDbEntity
8
OUTER_PROFILES
100
AcDbLine
10
-0.75000299999999243
20
135.07597130667995
30
0
11
-4.1429183534879854
21
135.07597130668
31
0
0
LINE
5
144
100
AcDbEntity
8
OUTER_PROFILES
100
AcDbLine
10
-4.1429183534879854
20
135.07597130668
30
0
11
-4.120130005794671
21
135.3364433127081
31
0
0
LINE
5
145
100
AcDbEntity
8
OUTER_PROFILES
100
AcDbLine
10
-4.120130005794671
20
135.3364433127081
30
0
11
-3.9467772334695539
21
137.31787456721258
31
0
0
LWPOLYLINE
5
146
100
AcDbEntity
8
OUTER_PROFILES
100
AcDbPolyline
90
2
10
-3.9535446084769532
20
137.50298884503746
30
0
10
-3.9467772334695539
20
137.31787456721258
30
0
0
ARC
5
147
100
AcDbEntity
8
OUTER_PROFILES
100
AcDbCircle
10
4.6939232570383638
20
137.3832413742733
30
0
40
0.74999999999999933
210
0
220
0
230
-1
100
AcDbArc
50
94.999999999998579
51
170.81264683117351
0
LINE
5
148
100
AcDbEntity
8
OUTER_PROFILES
100
AcDbLine
10
-4.628556449977637
20
138.13038739784213
30
0
11
-17.313626778053255
21
139.24018724757772
31
0
0
LINE
5
149
100
AcDbEntity
8
OUTER_PROFILES
100
AcDbLine
10
-17.313626778053255
20
139.24018724757772
30
0
11
-16.603924680821471
21
147.3521193383169
31
0
0
ARC
5
150
100
AcDbEntity
8
OUTER_PROFILES
100
AcDbCircle
10
17.351070704390246
20
147.41748614537764
30
0
40
0.74999999999999956
210
0
220
0
230
-1
100
AcDbArc
50
94.999999999999019
51
185
0
LINE
5
151
100
AcDbEntity
8
OUTER_PROFILES
100
AcDbLine
10
-17.285703897329515
20
148.16463216894644
30
0
11
-19.776196619727209
21
148.38252204875002
31
0
0
ARC
5
152
100
AcDbEntity
8
OUTER_PROFILES
100
AcDbCircle
10
19.841563426787943
20
147.63537602518122
30
0
40
0.74999999999999978
210
0
220
0
230
-1
100
AcDbArc
50
4.9999999999997007
51
94.999999999999318
0
LINE
5
153
100
AcDbEntity
8
OUTER_PROFILES
100
AcDbLine
10
-20.588709450356752
20
147.70074283224196
30
0
11
-21.298411547588536
21
139.58881074150287
31
0
0
LINE
5
154
100
AcDbEntity
8
OUTER_PROFILES
100
AcDbLine
10
-21.298411547588536
20
139.58881074150287
30
0
11
-31.794159203622772
21
140.50706967663479
31
0
0
ARC
5
155
100
AcDbEntity
8
OUTER_PROFILES
100
AcDbCircle
10
31.859526010683474
20
139.75992365306598
30
0
40
0.74999999999999978
210
0
220
0
230
-1
100
AcDbArc
50
4.9999999999976561
51
94.999999999996874
0
LINE
5
156
100
AcDbEntity
8
OUTER_PROFILES
100
AcDbLine
10
-32.606672034252284
20
139.82529046012669
30
0
11
-41.208944366380464
21
41.500867781302816
31
0
0
ARC
5
157
100
AcDbEntity
8
OUTER_PROFILES
100
AcDbCircle
10
40.461798342811655
20
41.43550097424211
30
0
40
0.74999999999999978
210
-0
220
0
230
-1
100
AcDbArc
50
-85.000000000000767
51
4.9999999999969988
0
LINE
5
158
100
AcDbEntity
8
OUTER_PROFILES
100
AcDbLine
10
-40.527165149872388
20
40.6883549506733
30
0
11
-30.031417493838362
21
39.770096015541739
31
0
0
LINE
5
159
100
AcDbEntity
8
OUTER_PROFILES
100
AcDbLine
10
-30.031417493838362
20
39.770096015541739
30
0
11
-30.741119591070177
21
31.658163924803095
31
0
0
ARC
5
160
100
AcDbEntity
8
OUTER_PROFILES
100
AcDbCircle
10
29.993973567501371
20
31.592797117742322
30
0
40
0.75000000000000022
210
-0
220
0
230
-1
100
AcDbArc
50
-85.000000000000512
51
5.0000000000022542
0
LINE
5
161
100
AcDbEntity
8
OUTER_PROFILES
100
AcDbLine
10
-30.059340374562108
20
30.845651094173512
30
0
11
-27.568847652164123
21
30.627761214369862
31
0
0
ARC
5
162
100
AcDbEntity
8
OUTER_PROFILES
100
AcDbCircle
10
27.50348084510339
20
31.374907237938672
30
0
40
0.74999999999999956
210
0
220
-0
230
-1
100
AcDbArc
50
184.99999999999895
51
274.99999999999926
0
LINE
5
163
100
AcDbEntity
8
OUTER_PROFILES
100
AcDbLine
10
-26.75633482153458
20
31.309540430877941
30
0
11
-26.046632724302725
21
39.421472521616678
31
0
0
LINE
5
164
100
AcDbEntity
8
OUTER_PROFILES
100
AcDbLine
10
-26.046632724302725
20
39.421472521616678
30
0
11
-18.788520825650856
21
38.786470011882024
31
0
0
LINE
5
165
100
AcDbEntity
8
OUTER_PROFILES
100
AcDbLine
10
-18.788520825650856
20
38.786470011882024
30
0
11
-18.637194608632797
21
40.516136587177627
31
0
0
LINE
5
166
100
AcDbEntity
8
OUTER_PROFILES
100
AcDbLine
10
-18.637194608632797
20
40.516136587177627
30
0
11
-0.7500029999999569
21
40.516136587177627
31
0
0
LWPOLYLINE
5
167
100
AcDbEntity
8
INTERIOR_PROFILES
100
AcDbPolyline
90
12
70
1
43
0.0
10
37.142496999999963
20
100.30855070748134
10
42.842503000000001
20
100.30855070748134
42
0.41421356237309503
10
43.592503000000001
20
101.05855070748134
10
43.592502999999994
20
116.13892323419492
42
-0.99999999999999989
10
45.092500000000015
20
116.138923234195
10
45.09249999999998
20
97.024460926204128
42
-0.41421356237309853
10
44.34249999999998
20
96.274460926204114
10
35.642499999999984
20
96.2744609262041
42
-0.41421356237309681
10
34.892499999999977
20
97.024460926204114
10
34.892499999999984
20
116.13892323419499
42
-0.99999999999999989
10
36.392497000000006
20
116.13892323419498
10
36.392496999999949
20
101.05855070748136
42
0.41421356237309503
0
LWPOLYLINE
5
168
100
AcDbEntity
8
INTERIOR_PROFILES
100
AcDbPolyline
90
12
70
1
43
0.0
10
163.09562799999998
20
73.422548560548819
10
157.39562199999997
20
73.422548560548805
42
0.41421356237309159
10
156.64562199999997
20
72.672548560548819
10
156.64562199999995
20
52.702701163021423
42
-0.99999999999999989
10
155.14562499999991
20
52.702701163021402
10
155.14562499999994
20
76.554698005365481
42
-0.41421356237309503
10
155.89562499999994
20
77.304698005365481
10
164.59562499999998
20
77.304698005365466
42
-0.41421356237309503
10
165.34562499999996
20
76.554698005365481
10
165.34562499999998
20
52.702701163021416
42
-0.99999999999999989
10
163.84562799999995
20
52.702701163021402
10
163.84562799999998
20
72.672548560548819
42
0.41421356237309503
0
CIRCLE
5
169
100
AcDbEntity
8
INTERIOR_PROFILES
100
AcDbCircle
10
-39.9925
20
103.71425866034052
30
0
40
1.264499999999984
210
0
220
0
230
-1
0
CIRCLE
5
170
100
AcDbEntity
8
INTERIOR_PROFILES
100
AcDbCircle
10
-160.24562499999996
20
70.016840607681644
30
0
40
1.264499999999984
210
0
220
0
230
-1
0
LWPOLYLINE
5
171
100
AcDbEntity
8
INTERIOR_PROFILES
100
AcDbPolyline
90
12
70
1
43
0.0
10
273.32687199999998
20
73.763721554623814
10
273.32687199999998
20
53.897874157096417
42
-0.99999999999999989
10
271.82687499999992
20
53.897874157096439
10
271.82687499999997
20
77.749870999440475
42
-0.41421356237309159
10
272.57687499999997
20
78.499870999440461
10
281.27687499999996
20
78.499870999440446
42
-0.41421356237308116
10
282.0268749999999
20
77.749870999440446
10
282.0268749999999
20
53.897874157096425
42
-0.99999999999999989
10
280.52687799999995
20
53.897874157096425
10
280.52687799999995
20
73.763721554623842
42
0.41421356237310542
10
279.7768779999999
20
74.513721554623828
10
274.07687199999992
20
74.513721554623814
42
0.41421356237309503
0
LWPOLYLINE
5
172
100
AcDbEntity
8
INTERIOR_PROFILES
100
AcDbPolyline
90
12
70
1
43
0.0
10
266.23937799999987
20
106.25524268378136
42
-0.41421356237309503
10
265.48937799999987
20
105.50524268378138
10
259.78937199999996
20
105.50524268378139
42
-0.41421356237309503
10
259.03937199999996
20
106.25524268378138
10
259.0393719999999
20
120.91961521049497
42
0.99999999999999989
10
257.53937499999995
20
120.91961521049492
10
257.53937499999995
20
101.80515290250413
42
0.41421356237308815
10
258.28937499999995
20
101.05515290250415
10
266.98937499999988
20
101.05515290250415
42
0.41421356237310897
10
267.73937499999994
20
101.80515290250413
10
267.73937499999994
20
120.91961521049495
42
0.99999999999999989
10
266.23937799999999
20
120.91961521049498
0
CIRCLE
5
173
100
AcDbEntity
8
INTERIOR_PROFILES
100
AcDbCircle
10
-276.92687499999994
20
71.10801360175661
30
0
40
1.2645000000000195
210
0
220
0
230
-1
0
LWPOLYLINE
5
174
100
AcDbEntity
8
INTERIOR_PROFILES
100
AcDbPolyline
90
12
70
1
43
0.0
10
162.27499999999998
20
126.5773947698485
10
162.27500000000003
20
107.46293246185765
42
-0.41421356237309503
10
161.52500000000003
20
106.71293246185766
10
152.82499999999996
20
106.71293246185766
42
-0.41421356237309503
10
152.07499999999996
20
107.46293246185765
10
152.07499999999999
20
126.5773947698485
42
-0.99999999999999989
10
153.57499699999997
20
126.57739476984855
10
153.57499699999994
20
112.40602224313483
42
0.41421356237309503
10
154.32499699999994
20
111.65602224313483
10
160.02500299999994
20
111.65602224313481
42
0.41421356237309503
10
160.77500299999994
20
112.4060222431348
10
160.77500299999997
20
126.57739476984852
42
-0.99999999999999989
0
CIRCLE
5
175
100
AcDbEntity
8
INTERIOR_PROFILES
100
AcDbCircle
10
-262.63937499999992
20
108.91095063664066
30
0
40
1.2645000000000195
210
0
220
0
230
-1
0
LWPOLYLINE
5
176
100
AcDbEntity
8
INTERIOR_PROFILES
100
AcDbPolyline
90
12
70
1
43
0.0
10
14.961246999999958
20
73.763721554623814
10
14.961246999999922
20
53.897874157096439
42
-0.99999999999999989
10
13.4612499999999
20
53.897874157096417
10
13.461249999999998
20
77.749870999440475
42
-0.4142135623730942
10
14.211249999999998
20
78.499870999440475
10
22.911249999999978
20
78.499870999440489
42
-0.41421356237309681
10
23.661249999999974
20
77.749870999440475
10
23.661249999999896
20
53.897874157096439
42
-0.99999999999999989
10
22.161252999999945
20
53.897874157096453
10
22.161252999999952
20
73.763721554623828
42
0.41421356237309503
10
21.411252999999952
20
74.513721554623828
10
15.71124699999995
20
74.5137215546238
42
0.41421356237309159
0
CIRCLE
5
177
100
AcDbEntity
8
INTERIOR_PROFILES
100
AcDbCircle
10
-157.17499999999995
20
115.06173019599423
30
0
40
1.2645000000000017
210
0
220
0
230
-1
0
CIRCLE
5
178
100
AcDbEntity
8
INTERIOR_PROFILES
100
AcDbCircle
10
-18.561249999999951
20
71.108013601756639
30
0
40
1.264499999999984
210
0
220
0
230
-1
0
LINE
5
179
100
AcDbEntity
8
BEND
100
AcDbLine
10
-2.4464606767439534
20
40.516136587177627
30
1.4794680358614089e-13
11
-2.4464606767439534
21
135.07597130668
31
1.4822435934229728e-13
0
LINE
5
180
100
AcDbEntity
8
BEND
100
AcDbLine
10
273.32687199999998
20
55.500084185132422
30
1.1401046253865931e-13
11
280.52687799999995
21
55.500084185132422
31
1.1345307593308763e-13
0
LINE
5
181
100
AcDbEntity
8
BEND
100
AcDbLine
10
156.64562199999995
20
54.304911191057393
30
1.3235661082295421e-13
11
163.84562799999998
21
54.304911191057393
31
1.3179922421738252e-13
0
LINE
5
182
100
AcDbEntity
8
BEND
100
AcDbLine
10
43.592502999999994
20
114.34821790874295
30
1.2923511435504857e-13
11
36.392497000000006
21
114.34821790874295
31
1.2979250096062026e-13
0
LINE
5
183
100
AcDbEntity
8
BEND
100
AcDbLine
10
-0.75000300000006348
20
136.67818133471599
30
1.3720903715388871e-13
11
302.25000299999988
21
136.67818133471599
31
1.2845825501952731e-13
0
LINE
5
184
100
AcDbEntity
8
BEND
100
AcDbLine
10
36.392497000000006
20
107.50501138422538
30
1.5405249926836475e-13
11
43.592503000000029
21
107.50501138422538
31
1.4344515528622404e-13
0
LINE
5
185
100
AcDbEntity
8
BEND
100
AcDbLine
10
163.84562799999998
20
66.226087883804794
30
1.6334845565446106e-13
11
156.645622
21
66.22608788380478
31
1.6410533624415187e-13
0
LINE
5
186
100
AcDbEntity
8
BEND
100
AcDbLine
10
160.77500299999997
20
124.7866894443965
30
1.3361847840900769e-13
11
153.57499699999997
21
124.7866894443965
31
1.3417586501457938e-13
0
LINE
5
187
100
AcDbEntity
8
BEND
100
AcDbLine
10
266.23937799999987
20
119.12890988504296
30
9.2979957577193507e-14
11
259.03937199999984
21
119.12890988504299
31
1.3017470399539535e-13
0
LINE
5
188
100
AcDbEntity
8
BEND
100
AcDbLine
10
280.52687799999995
20
67.317260877879818
30
5.8633480499269149e-14
11
273.32687199999998
21
67.317260877879818
31
5.8283590273995982e-14
0
LINE
5
189
100
AcDbEntity
8
BEND
100
AcDbLine
10
303.94646067674392
20
135.07597130668
30
1.1429702895745753e-13
11
303.94646067674392
21
40.685806759996694
31
1.1386016251784716e-13
0
LINE
5
190
100
AcDbEntity
8
BEND
100
AcDbLine
10
302.25000299999994
20
38.725431261725589
30
1.4003121003599534e-13
11
-0.75000299999999243
21
38.725431261725589
31
1.6348787727106954e-13
0
LINE
5
191
100
AcDbEntity
8
BEND
100
AcDbLine
10
-31.721419636948021
20
39.917952044398355
30
5.1270227663697622e-13
11
-22.988413690698195
21
139.73666677035976
31
1.6816461696789602e-12
0
LINE
5
192
100
AcDbEntity
8
BEND
100
AcDbLine
10
-21.150555518731942
20
141.27881288461225
30
1.2014736634012038e-12
11
-17.16577074919666
21
140.93018939068716
31
5.4946426686210667e-13
0
LINE
5
193
100
AcDbEntity
8
BEND
100
AcDbLine
10
14.961246999999922
20
55.50008418513243
30
1.3428932644860814e-13
11
22.161252999999945
21
55.50008418513243
31
1.3373193984303643e-13
0
LINE
5
194
100
AcDbEntity
8
BEND
100
AcDbLine
10
-0.75000000000002842
20
20.875224737207994
30
1.1892284910774562e-13
11
302.24999999999989
21
20.875224737207994
31
1.0112383658692519e-13
0
LINE
5
195
100
AcDbEntity
8
BEND
100
AcDbLine
10
259.03937199999996
20
112.70170336052543
30
1.7713654312889027e-13
11
266.23937799999993
21
112.70170336052543
31
1.5128750138871523e-13
0
LINE
5
196
100
AcDbEntity
8
BEND
100
AcDbLine
10
302.24999999999977
20
16.982303383719994
30
9.6540597932573387e-14
11
-0.75000000000002842
21
16.982303383719994
31
1.0695721019356293e-13
0
LINE
5
197
100
AcDbEntity
8
BEND
100
AcDbLine
10
317.20332295885652
20
138.18137520796265
30
-1.7365897346242321e-13
11
325.85663058119445
21
39.273616492760382
31
4.6621695414405397e-13
0
LINE
5
198
100
AcDbEntity
8
BEND
100
AcDbLine
10
-0.75000000000002842
20
149.99527938095139
30
4.9253013445873578e-13
11
302.25000299999988
21
149.99527938095139
31
4.6907346745590584e-13
0
LINE
5
199
100
AcDbEntity
8
BEND
100
AcDbLine
10
-24.356630581193883
20
39.273616492760119
30
-8.9131578339300189e-13
11
-15.623624634944413
21
139.0923312187212
31
2.6257351130947891e-13
0
LINE
5
200
100
AcDbEntity
8
BEND
100
AcDbLine
10
-26.19448875315932
20
37.731470378507268
30
-7.2440249867843998e-13
11
-30.179273522694956
21
38.080093872432386
31
3.446586398082951e-14
0
LINE
5
201
100
AcDbEntity
8
BEND
100
AcDbLine
10
321.9785229687605
20
38.934326040738455
30
6.0276432905436067e-13
11
313.31949650327186
21
137.90745143226815
31
-1.7407073959374858e-14
0
LINE
5
202
100
AcDbEntity
8
BEND
100
AcDbLine
10
22.161252999999945
20
67.317260877879818
30
1.1557572481252717e-13
11
14.961246999999922
21
67.317260877879818
31
1.1683912794283358e-13
0
LINE
5
203
100
AcDbEntity
8
BEND
100
AcDbLine
10
-0.75000000000006395
20
157.38820073443941
30
8.0138874620178935e-13
11
302.25000299999988
21
157.38820073443944
31
7.7793207919895951e-13
0
LINE
5
204
100
AcDbEntity
8
BEND
100
AcDbLine
10
324.56811201461079
20
138.82571075960101
30
2.780064520347381e-13
11
333.22141963694878
21
39.917952044398461
31
9.1849035518031921e-13
0
LINE
5
205
100
AcDbEntity
8
BEND
100
AcDbLine
10
318.74546907310912
20
140.01923337992869
30
-8.9648611273531819e-14
11
322.73025384264463
21
140.36785687385381
31
1.1521617541686624e-13
0
LINE
5
206
100
AcDbEntity
8
BEND
100
AcDbLine
10
302.25000299999988
20
146.10235802746334
30
3.5066925408968756e-13
11
-0.74999999999999289
21
146.10235802746334
31
3.8311655704491736e-13
0
LINE
5
207
100
AcDbEntity
8
BEND
100
AcDbLine
10
331.67927352269578
20
38.080093872432386
30
4.4542726233204784e-13
11
327.69448875316027
21
37.731470378507233
31
1.9871112043708079e-13
0
LINE
5
208
100
AcDbEntity
8
BEND
100
AcDbLine
10
302.24999999999977
20
9.5893820302319099
30
1.0069115273243219e-13
11
-0.74999999999999289
21
9.5893820302319099
31
9.8803432745124115e-14
0
LINE
5
209
100
AcDbEntity
8
BEND
100
AcDbLine
10
-35.59952724938114
20
40.257242496419607
30
7.7297088874819292e-13
11
-26.866521303131172
21
140.07595722238102
31
2.0534775307161202e-12
0
LINE
5
210
100
AcDbEntity
8
BEND
100
AcDbLine
10
-0.75000000000006395
20
161.28112208792749
30
9.6876039069949081e-13
11
302.25000299999988
21
161.28112208792754
31
9.4530372369666098e-13
0
LINE
5
211
100
AcDbEntity
8
BEND
100
AcDbLine
10
153.57499699999997
20
118.8524829198789
30
1.3101225538020417e-13
11
160.77500299999997
21
118.8524829198789
31
1.2370234209139302e-13
0
LINE
5
212
100
AcDbEntity
8
BEND
100
AcDbLine
10
328.44621962704366
20
139.16500121162258
30
5.5805854885728767e-13
11
337.09952724938159
21
40.25724249642002
31
1.2009538620140898e-12
0
LINE
5
213
100
AcDbEntity
8
BEND
100
AcDbLine
10
-11.745517022510406
20
138.75304076669974
30
2.7326301384371498e-13
11
-20.478522968760196
21
38.934326040738597
31
-9.9939778438559885e-13
0
LINE
5
214
100
AcDbEntity
8
BEND
100
AcDbLine
10
302.24999999999977
20
5.6964606767439463
30
8.3663113880664784e-14
11
-0.74999999999999289
21
5.6964606767439463
31
8.4382391589326221e-14
0
LINE
5
215
100
AcDbEntity
8
BEND_EXTENT
100
AcDbLine
10
-0.75000299999999243
20
135.07597130667995
30
1.627057343961925e-13
11
-0.7500029999999569
21
40.516136587177627
31
1.5521172897997269e-13
0
LINE
5
216
100
AcDbEntity
8
BEND_EXTENT
100
AcDbLine
10
-0.7500029999999569
20
40.516136587177627
30
1.5521172897997269e-13
11
302.25000299999994
21
40.516136587177627
31
1.2037527574249064e-13
0
LINE
5
217
100
AcDbEntity
8
BEND_EXTENT
100
AcDbLine
10
302.25000299999994
20
135.07597130667997
30
1.0455459764158216e-13
11
-0.75000299999999243
21
135.07597130667995
31
1.627057343961925e-13
0
LINE
5
218
100
AcDbEntity
8
BEND_EXTENT
100
AcDbLine
10
302.25000299999994
20
40.647369582466517
30
1.2037527574249064e-13
11
302.25000299999994
21
135.07597130667997
31
1.0455459764158216e-13
0
LINE
5
219
100
AcDbEntity
8
BEND_EXTENT
100
AcDbLine
10
-4.1429183534879499
20
40.516136587177613
30
1.7962174143166744e-13
11
-4.1429183534879854
21
135.07597130668
31
1.7962174143166744e-13
0
LINE
5
220
100
AcDbEntity
8
BEND_EXTENT
100
AcDbLine
10
320.00430594855106
20
42.035060922359264
30
2.3418646976844575e-13
11
311.6237755170115
21
137.82496207973873
31
1.1937205180707752e-13
0
LINE
5
221
100
AcDbEntity
8
BEND_EXTENT
100
AcDbLine
10
305.64291835348791
20
135.07597130668
30
1.0734504929320373e-13
11
305.64291835348791
21
40.778602315289433
31
1.414844073004273e-13
0
LINE
5
222
100
AcDbEntity
8
BEND_EXTENT
100
AcDbLine
10
-26.34234478201595
20
36.041468235397858
30
-6.8158054159278306e-13
11
-30.327129551551586
21
36.390091729322975
31
-1.375046695277716e-14
0
LINE
5
223
100
AcDbEntity
8
BEND_EXTENT
100
AcDbLine
10
302.24999999999977
20
4.0000030000000031
30
6.5696792011945914e-14
11
-0.75000000000002842
21
4.0000029999999853
31
6.6116331021559642e-14
0
LINE
5
224
100
AcDbEntity
8
BEND_EXTENT
100
AcDbLine
10
-37.289529392490479
20
40.405098525276216
30
7.8614910316344928e-13
11
-28.55652344624044
21
140.22381325123757
31
2.0289228273430083e-12
0
LINE
5
225
100
AcDbEntity
8
BEND_EXTENT
100
AcDbLine
10
-21.002699489875383
20
142.96881502772169
30
1.1046324935235641e-12
11
-17.017914720340066
21
142.6201915337966
31
4.8259911864934607e-13
0
LINE
5
226
100
AcDbEntity
8
BEND_EXTENT
100
AcDbLine
10
-0.75000000000006395
20
162.97757976467148
30
9.7871965726343832e-13
11
302.25000299999988
21
162.97757976467148
31
9.5526299026060828e-13
0
LINE
5
227
100
AcDbEntity
8
BEND_EXTENT
100
AcDbLine
10
318.59761304425257
20
141.70923552303807
30
-7.6289522602439625e-14
11
322.58239781378802
21
142.05785901696319
31
1.3656481704146009e-13
0
LINE
5
228
100
AcDbEntity
8
BEND_EXTENT
100
AcDbLine
10
330.13622177015293
20
139.31285724047913
30
6.7682171790754898e-13
11
338.78952939249086
21
40.405098525276614
31
1.317393454503675e-12
0
LINE
5
229
100
AcDbEntity
8
BEND_EXTENT
100
AcDbLine
10
331.82712955155239
20
36.390091729322776
30
2.7629235113589485e-13
11
327.84234478201688
21
36.041468235397645
31
3.0408876509396769e-14
0
LWPOLYLINE
5
230
100
AcDbEntity
8
BEND_EXTENT
100
AcDbPolyline
90
4
70
1
43
0.0
10
322.87810987150124
20
138.67785473074434
10
318.89332510196573
20
138.32923123681928
10
327.54663272430372
20
39.421472521616963
10
331.53141749383917
20
39.770096015541924
0
LINE
5
231
100
AcDbEntity
8
BEND_EXTENT
100
AcDbLine
10
335.4095251062721
20
40.109386467563368
30
1.0681591489789886e-12
11
326.75621748393411
21
139.01714518276589
31
4.248996882718452e-13
0
LINE
5
232
100
AcDbEntity
8
BEND_EXTENT
100
AcDbLine
10
326.25811415772006
20
138.97356678845759
30
3.8497021992573672e-13
11
334.91142178005805
21
40.065808073255091
31
1.02822968063288e-12
0
LINE
5
233
100
AcDbEntity
8
BEND_EXTENT
100
AcDbLine
10
324.1666284380853
20
39.125760463903667
30
3.5848677916173264e-13
11
315.51332081574736
21
138.03351917910607
31
-2.581273289544071e-13
0
LINE
5
234
100
AcDbEntity
8
BEND_EXTENT
100
AcDbLine
10
315.01521748953218
20
137.98994078479765
30
-2.0561722082771939e-13
11
323.66852511186977
21
39.082182069595092
31
4.1625693698263794e-13
0
LWPOLYLINE
5
235
100
AcDbEntity
8
BEND_EXTENT
100
AcDbPolyline
90
4
70
1
43
0.0
10
-21.298411547588536
20
139.58881074150287
10
-17.313626778053255
20
139.24018724757772
10
-26.046632724302725
20
39.421472521616678
10
-30.031417493838362
20
39.770096015541739
0
LINE
5
236
100
AcDbEntity
8
BEND_EXTENT
100
AcDbLine
10
302.25000299999988
20
159.58466441118344
30
8.7532693248759711e-13
11
-0.75000000000002842
21
159.58466441118341
31
8.9878359949042705e-13
0
LINE
5
237
100
AcDbEntity
8
BEND_EXTENT
100
AcDbLine
10
-0.75000000000006395
20
159.0846584111834
30
8.7657913899792392e-13
11
302.25000299999988
21
159.08465841118343
31
8.5312247199509398e-13
0
LINE
5
238
100
AcDbEntity
8
BEND_EXTENT
100
AcDbLine
10
302.25000299999994
20
155.69174305769533
30
7.2433660113857582e-13
11
-0.74999999999999289
21
155.69174305769533
31
7.4779326814140576e-13
0
LINE
5
239
100
AcDbEntity
8
BEND_EXTENT
100
AcDbLine
10
-0.74999999999999289
20
151.69173705769532
30
5.5239401580737821e-13
11
302.25000299999988
21
151.69173705769535
31
5.2893734880454827e-13
0
LINE
5
240
100
AcDbEntity
8
BEND_EXTENT
100
AcDbLine
10
302.25000299999994
20
148.29882170420734
30
4.2679683053903387e-13
11
-0.74999999999999289
21
148.29882170420734
31
4.5025349754186381e-13
0
LINE
5
241
100
AcDbEntity
8
BEND_EXTENT
100
AcDbLine
10
-0.74999999999999289
20
147.79881570420736
30
4.3693082124636193e-13
11
302.25000299999988
21
147.79881570420739
31
4.1347415424353199e-13
0
LINE
5
242
100
AcDbEntity
8
BEND_EXTENT
100
AcDbLine
10
302.25000299999994
20
144.40590035071935
30
2.8024739128851321e-13
11
-0.74999999999995737
21
144.40590035071932
31
3.0370405829134314e-13
0
LINE
5
243
100
AcDbEntity
8
BEND_EXTENT
100
AcDbLine
10
-0.7500029999999569
20
138.28039136275191
30
1.7935907976556984e-13
11
302.25000299999988
21
138.28039136275197
31
1.5590241253049565e-13
0
LINE
5
244
100
AcDbEntity
8
BEND_EXTENT
100
AcDbLine
10
273.32687199999998
20
69.013718554623821
30
5.1560078885388193e-14
11
280.52687799999995
21
69.013718554623836
31
5.1002692279816528e-14
0
LINE
5
245
100
AcDbEntity
8
BEND_EXTENT
100
AcDbLine
10
280.52687799999995
20
65.620803201135814
30
7.0986706723069346e-14
11
273.32687199999998
21
65.620803201135828
31
7.1544093328641011e-14
0
LINE
5
246
100
AcDbEntity
8
BEND_EXTENT
100
AcDbLine
10
273.32687199999998
20
57.10229421316842
30
1.0707123011664602e-13
11
280.52687799999995
21
57.102294213168427
31
1.0651384351107436e-13
0
LINE
5
247
100
AcDbEntity
8
BEND_EXTENT
100
AcDbLine
10
280.52687799999995
20
53.897874157096425
30
1.2205696585582653e-13
11
273.32687199999998
21
53.897874157096417
31
1.2233679670524191e-13
0
LINE
5
248
100
AcDbEntity
8
BEND_EXTENT
100
AcDbLine
10
259.03937199999996
20
120.91961521049497
30
1.2372041558511023e-13
11
266.23937799999999
21
120.91961521049498
31
1.2316302897953857e-13
0
LINE
5
249
100
AcDbEntity
8
BEND_EXTENT
100
AcDbLine
10
153.57499699999997
20
126.57739476984855
30
1.318849129466386e-13
11
160.77500299999997
21
126.57739476984852
31
1.3132752634106694e-13
0
LINE
5
250
100
AcDbEntity
8
BEND_EXTENT
100
AcDbLine
10
22.161252999999945
20
53.897874157096446
30
1.4178071825346271e-13
11
14.961246999999922
21
53.897874157096439
31
1.423381048590344e-13
0
LINE
5
251
100
AcDbEntity
8
BEND_EXTENT
100
AcDbLine
10
36.392497000000006
20
116.13892323419495
30
1.4040145441731006e-13
11
43.592502999999994
21
116.13892323419493
31
1.4039917932405097e-13
0
LINE
5
252
100
AcDbEntity
8
BEND_EXTENT
100
AcDbLine
10
163.84562799999998
20
52.702701163021423
30
1.3081225894331847e-13
11
156.64562199999995
21
52.702701163021423
31
1.3164720130504645e-13
0
LINE
5
253
100
AcDbEntity
8
BEND_EXTENT
100
AcDbLine
10
266.23937799999993
20
111.0052456837814
30
1.6313105786604421e-13
11
259.03937199999996
21
111.0052456837814
31
1.636884444716159e-13
0
LINE
5
254
100
AcDbEntity
8
BEND_EXTENT
100
AcDbLine
10
259.03937199999996
20
114.39816103726942
30
1.0595684719110773e-13
11
266.23937799999999
21
114.3981610372694
31
6.9872323797531056e-14
0
LINE
5
255
100
AcDbEntity
8
BEND_EXTENT
100
AcDbLine
10
266.23937799999987
20
117.33820455959102
30
8.763589219153356e-14
11
259.03937199999984
21
117.33820455959103
31
1.2372041558511026e-13
0
LINE
5
256
100
AcDbEntity
8
BEND_EXTENT
100
AcDbLine
10
156.64562199999997
20
67.922545560548812
30
1.6495389204380112e-13
11
163.84562799999998
21
67.922545560548812
31
1.6661695148747977e-13
0
LINE
5
257
100
AcDbEntity
8
BEND_EXTENT
100
AcDbLine
10
163.84562799999998
20
64.529630207060819
30
1.555147212412282e-13
11
156.64562199999995
21
64.529630207060819
31
1.5607210784679986e-13
0
LINE
5
258
100
AcDbEntity
8
BEND_EXTENT
100
AcDbLine
10
156.64562199999995
20
55.907121219093419
30
1.3830853945279739e-13
11
163.84562799999998
21
55.90712121909344
31
1.377511528472257e-13
0
LINE
5
259
100
AcDbEntity
8
BEND_EXTENT
100
AcDbLine
10
160.77500299999997
20
117.15602524313485
30
1.6019332498132098e-13
11
153.57499699999997
21
117.15602524313488
31
1.607507115868927e-13
0
LINE
5
260
100
AcDbEntity
8
BEND_EXTENT
100
AcDbLine
10
153.57499699999997
20
120.54894059662291
30
1.4964848134064111e-13
11
160.77500299999997
21
120.54894059662291
31
1.4909109473506944e-13
0
LINE
5
261
100
AcDbEntity
8
BEND_EXTENT
100
AcDbLine
10
160.77500299999997
20
122.99598411894452
30
1.3132752634106694e-13
11
153.57499699999997
21
122.99598411894452
31
1.318849129466386e-13
0
LINE
5
262
100
AcDbEntity
8
BEND_EXTENT
100
AcDbLine
10
43.592503000000029
20
105.80855370748138
30
1.5150140957030254e-13
11
36.392497000000006
21
105.80855370748139
31
1.5205879617587423e-13
0
LINE
5
263
100
AcDbEntity
8
BEND_EXTENT
100
AcDbLine
10
36.392497000000006
20
109.2014690609694
30
1.5872013432362517e-13
11
43.592502999999994
21
109.20146906096939
31
1.5816274771805348e-13
0
LINE
5
264
100
AcDbEntity
8
BEND_EXTENT
100
AcDbLine
10
43.592502999999994
20
112.55751258329099
30
1.1375382673304722e-13
11
36.392497000000006
21
112.55751258329099
31
1.1431121333861888e-13
0
LINE
5
265
100
AcDbEntity
8
BEND_EXTENT
100
AcDbLine
10
14.961246999999922
20
69.013718554623821
30
1.1597030802418693e-13
11
22.161252999999945
21
69.013718554623807
31
1.1319247536936494e-13
0
LINE
5
266
100
AcDbEntity
8
BEND_EXTENT
100
AcDbLine
10
22.161252999999945
20
65.620803201135828
30
1.1319247536936494e-13
11
14.961246999999922
21
65.620803201135828
31
1.1374986197493662e-13
0
LINE
5
267
100
AcDbEntity
8
BEND_EXTENT
100
AcDbLine
10
14.961246999999922
20
57.102294213168435
30
1.2485209222118819e-13
11
22.161252999999945
21
57.102294213168449
31
1.242947056156165e-13
0
LINE
5
268
100
AcDbEntity
8
BEND_EXTENT
100
AcDbLine
10
-25.176519160021265
20
139.92810119352436
30
2.0419838414793518e-12
11
-33.909525106271232
21
40.109386467563191
31
7.6368298051178769e-13
0
LINE
5
269
100
AcDbEntity
8
BEND_EXTENT
100
AcDbLine
10
-33.411421780057218
20
40.065808073254949
30
7.9028977256239439e-13
11
-24.678415833807392
21
139.88452279921628
31
1.979772791559946e-12
0
LINE
5
270
100
AcDbEntity
8
BEND_EXTENT
100
AcDbLine
10
-13.933622491835145
20
138.9444751898647
30
7.3798275900730318e-14
11
-22.666628438084686
21
39.125760463903561
31
-1.2267070455593371e-12
0
LINE
5
271
100
AcDbEntity
8
BEND_EXTENT
100
AcDbLine
10
-22.168525111869499
20
39.082182069595177
30
-1.204541145607231e-12
11
-13.435519165619674
21
138.90089679555626
31
1.2260952844384011e-13
0
LINE
5
272
100
AcDbEntity
8
BEND_EXTENT
100
AcDbLine
10
-10.055514879401066
20
138.60518473784316
30
-3.3083357162840282e-14
11
-18.637194608632797
21
40.516136587177627
31
-8.8507029155436493e-13
0
LINE
5
273
100
AcDbEntity
8
BEND_EXTENT
100
AcDbLine
10
-0.74999999999999289
20
7.3929183534879783
30
9.0541237563313099e-14
11
302.24999999999989
21
7.3929183534879961
31
9.8170815482231717e-14
0
LINE
5
274
100
AcDbEntity
8
BEND_EXTENT
100
AcDbLine
10
302.24999999999977
20
7.8929243534879845
30
9.3729923383731116e-14
11
-0.74999999999999289
21
7.8929243534879845
31
9.0541237563313099e-14
0
LINE
5
275
100
AcDbEntity
8
BEND_EXTENT
100
AcDbLine
10
-0.74999999999999289
20
11.285839706976013
30
1.2218259376513005e-13
11
302.24999999999989
21
11.285839706976013
31
1.0483215362998266e-13
0
LINE
5
276
100
AcDbEntity
8
BEND_EXTENT
100
AcDbLine
10
302.24999999999977
20
15.285845706976016
30
9.9281038506856899e-14
11
-0.74999999999999289
21
15.285845706976016
31
1.0719458293269045e-13
0
LINE
5
277
100
AcDbEntity
8
BEND_EXTENT
100
AcDbLine
10
-0.74999999999999289
20
18.678761060464009
30
1.3050926644981872e-13
11
302.24999999999989
21
18.678761060464009
31
1.0261170758073234e-13
0
LINE
5
278
100
AcDbEntity
8
BEND_EXTENT
100
AcDbLine
10
302.24999999999989
20
19.178767060464015
30
1.0261170758073234e-13
11
-0.75000000000002842
21
19.178767060464033
31
1.2162748225281747e-13
0
LINE
5
279
100
AcDbEntity
8
BEND_EXTENT
100
AcDbLine
10
-0.74999999999999289
20
22.571682413952043
30
1.2384792830206778e-13
11
302.24999999999989
21
22.571682413952043
31
9.9281038506856874e-14
0
LINE
5
280
100
AcDbEntity
8
BEND_EXTENT
100
AcDbLine
10
302.25000299999994
20
36.934725936273637
30
1.3591839808724283e-13
11
-0.75000300000002795
21
36.934725936273637
31
1.5965262107847332e-13
0
ENDSEC
0
SECTION
2
OBJECTS
0
DICTIONARY
5
C
100
AcDbDictionary
3
ACAD_GROUP
350
D
3
ACAD_MLINESTYLE
350
17
0
DICTIONARY
5
D
100
AcDbDictionary
0
DICTIONARY
5
1A
330
C
100
AcDbDictionary
0
DICTIONARY
5
17
100
AcDbDictionary
0
ENDSEC
0
EOF
