%TF.GenerationSoftware,KiCad,Pcbnew,7.0.6*%
%TF.CreationDate,2024-03-18T14:57:41-04:00*%
%TF.ProjectId,Loadstar_70,4c6f6164-7374-4617-925f-37302e6b6963,rev?*%
%TF.SameCoordinates,Original*%
%TF.FileFunction,Soldermask,Top*%
%TF.FilePolarity,Negative*%
%FSLAX46Y46*%
G04 Gerber Fmt 4.6, Leading zero omitted, Abs format (unit mm)*
G04 Created by KiCad (PCBNEW 7.0.6) date 2024-03-18 14:57:41*
%MOMM*%
%LPD*%
G01*
G04 APERTURE LIST*
G04 Aperture macros list*
%AMRoundRect*
0 Rectangle with rounded corners*
0 $1 Rounding radius*
0 $2 $3 $4 $5 $6 $7 $8 $9 X,Y pos of 4 corners*
0 Add a 4 corners polygon primitive as box body*
4,1,4,$2,$3,$4,$5,$6,$7,$8,$9,$2,$3,0*
0 Add four circle primitives for the rounded corners*
1,1,$1+$1,$2,$3*
1,1,$1+$1,$4,$5*
1,1,$1+$1,$6,$7*
1,1,$1+$1,$8,$9*
0 Add four rect primitives between the rounded corners*
20,1,$1+$1,$2,$3,$4,$5,0*
20,1,$1+$1,$4,$5,$6,$7,0*
20,1,$1+$1,$6,$7,$8,$9,0*
20,1,$1+$1,$8,$9,$2,$3,0*%
%AMRotRect*
0 Rectangle, with rotation*
0 The origin of the aperture is its center*
0 $1 length*
0 $2 width*
0 $3 Rotation angle, in degrees counterclockwise*
0 Add horizontal line*
21,1,$1,$2,0,0,$3*%
G04 Aperture macros list end*
%ADD10C,3.200000*%
%ADD11RoundRect,0.225000X0.250000X-0.225000X0.250000X0.225000X-0.250000X0.225000X-0.250000X-0.225000X0*%
%ADD12RoundRect,0.225000X-0.375000X0.225000X-0.375000X-0.225000X0.375000X-0.225000X0.375000X0.225000X0*%
%ADD13R,1.803400X0.812800*%
%ADD14RoundRect,0.225000X0.225000X0.250000X-0.225000X0.250000X-0.225000X-0.250000X0.225000X-0.250000X0*%
%ADD15RoundRect,0.225000X-0.225000X-0.250000X0.225000X-0.250000X0.225000X0.250000X-0.225000X0.250000X0*%
%ADD16RoundRect,0.225000X-0.250000X0.225000X-0.250000X-0.225000X0.250000X-0.225000X0.250000X0.225000X0*%
%ADD17RoundRect,0.200000X-0.200000X-0.275000X0.200000X-0.275000X0.200000X0.275000X-0.200000X0.275000X0*%
%ADD18RoundRect,0.102000X-0.500000X-0.350000X0.500000X-0.350000X0.500000X0.350000X-0.500000X0.350000X0*%
%ADD19RotRect,0.249200X0.893200X315.000000*%
%ADD20RotRect,0.249200X0.893200X225.000000*%
%ADD21RotRect,5.400000X5.400000X225.000000*%
%ADD22C,0.804000*%
%ADD23O,1.104000X2.104000*%
%ADD24R,1.700000X1.700000*%
%ADD25O,1.700000X1.700000*%
%ADD26RoundRect,0.102000X0.350000X0.375000X-0.350000X0.375000X-0.350000X-0.375000X0.350000X-0.375000X0*%
%ADD27R,1.450000X0.900001*%
%ADD28R,1.450000X3.149999*%
%ADD29RoundRect,0.218750X0.256250X-0.218750X0.256250X0.218750X-0.256250X0.218750X-0.256250X-0.218750X0*%
%ADD30RoundRect,0.200000X-0.275000X0.200000X-0.275000X-0.200000X0.275000X-0.200000X0.275000X0.200000X0*%
%ADD31RoundRect,0.250000X-1.025000X-1.000000X1.025000X-1.000000X1.025000X1.000000X-1.025000X1.000000X0*%
%ADD32C,1.750000*%
%ADD33C,4.000000*%
%ADD34C,3.600000*%
%ADD35C,3.987800*%
%ADD36C,3.048000*%
%ADD37R,2.000000X2.000000*%
%ADD38C,2.000000*%
%ADD39R,2.000000X3.200000*%
G04 APERTURE END LIST*
D10*
%TO.C,REF\u002A\u002A*%
X63103125Y-126206250D03*
%TD*%
%TO.C,REF\u002A\u002A*%
X183356250Y-76200000D03*
%TD*%
%TO.C,REF\u002A\u002A*%
X41671875Y-77390625D03*
%TD*%
%TO.C,REF\u002A\u002A*%
X180285625Y-136605000D03*
%TD*%
%TO.C,REF\u002A\u002A*%
X300037500Y-77390625D03*
%TD*%
%TO.C,REF\u002A\u002A*%
X285750000Y-130968750D03*
%TD*%
D11*
%TO.C,C63*%
X308451250Y-139443125D03*
X308451250Y-137893125D03*
%TD*%
D12*
%TO.C,D54*%
X129857500Y-121540000D03*
X129857500Y-124840000D03*
%TD*%
%TO.C,D46*%
X282257500Y-121540000D03*
X282257500Y-124840000D03*
%TD*%
D11*
%TO.C,C27*%
X167957500Y-82293125D03*
X167957500Y-80743125D03*
%TD*%
D12*
%TO.C,D61*%
X275113750Y-140590000D03*
X275113750Y-143890000D03*
%TD*%
%TO.C,D23*%
X182245000Y-83440000D03*
X182245000Y-86740000D03*
%TD*%
%TO.C,D45*%
X313213750Y-121540000D03*
X313213750Y-124840000D03*
%TD*%
D11*
%TO.C,C34*%
X25082500Y-82293125D03*
X25082500Y-80743125D03*
%TD*%
D13*
%TO.C,LED25*%
X133391275Y-80648175D03*
X133391275Y-79149575D03*
X138395075Y-79149575D03*
X138395075Y-80648175D03*
%TD*%
D12*
%TO.C,D57*%
X58420000Y-121540000D03*
X58420000Y-124840000D03*
%TD*%
D13*
%TO.C,LED54*%
X118983125Y-118748175D03*
X118983125Y-117249575D03*
X123986925Y-117249575D03*
X123986925Y-118748175D03*
%TD*%
D11*
%TO.C,C48*%
X25082500Y-101343125D03*
X25082500Y-99793125D03*
%TD*%
%TO.C,C47*%
X56038750Y-101343125D03*
X56038750Y-99793125D03*
%TD*%
D14*
%TO.C,C73*%
X217942148Y-139422250D03*
X216392148Y-139422250D03*
%TD*%
D13*
%TO.C,LED40*%
X128508125Y-99698175D03*
X128508125Y-98199575D03*
X133511925Y-98199575D03*
X133511925Y-99698175D03*
%TD*%
%TO.C,LED18*%
X266741275Y-80648175D03*
X266741275Y-79149575D03*
X271745075Y-79149575D03*
X271745075Y-80648175D03*
%TD*%
D11*
%TO.C,C4*%
X63148125Y-139833750D03*
X63148125Y-138283750D03*
%TD*%
D12*
%TO.C,D59*%
X322738750Y-140590000D03*
X322738750Y-143890000D03*
%TD*%
D11*
%TO.C,C36*%
X277495000Y-101343125D03*
X277495000Y-99793125D03*
%TD*%
D13*
%TO.C,LED8*%
X180895625Y-61598175D03*
X180895625Y-60099575D03*
X185899425Y-60099575D03*
X185899425Y-61598175D03*
%TD*%
D11*
%TO.C,C26*%
X187007500Y-82293125D03*
X187007500Y-80743125D03*
%TD*%
D12*
%TO.C,D11*%
X153670000Y-64390000D03*
X153670000Y-67690000D03*
%TD*%
%TO.C,D60*%
X298926250Y-140590000D03*
X298926250Y-143890000D03*
%TD*%
%TO.C,D26*%
X125095000Y-83440000D03*
X125095000Y-86740000D03*
%TD*%
D13*
%TO.C,LED11*%
X123999625Y-61598175D03*
X123999625Y-60099575D03*
X129003425Y-60099575D03*
X129003425Y-61598175D03*
%TD*%
D11*
%TO.C,C28*%
X148907500Y-82293125D03*
X148907500Y-80743125D03*
%TD*%
%TO.C,C23*%
X244157500Y-82293125D03*
X244157500Y-80743125D03*
%TD*%
D15*
%TO.C,C1*%
X217510625Y-144505000D03*
X219060625Y-144505000D03*
%TD*%
D12*
%TO.C,D19*%
X258445000Y-83440000D03*
X258445000Y-86740000D03*
%TD*%
%TO.C,D7*%
X229870000Y-64390000D03*
X229870000Y-67690000D03*
%TD*%
D13*
%TO.C,LED30*%
X28495625Y-80648175D03*
X28495625Y-79149575D03*
X33499425Y-79149575D03*
X33499425Y-80648175D03*
%TD*%
D16*
%TO.C,C15*%
X41135625Y-71530000D03*
X41135625Y-73080000D03*
%TD*%
D17*
%TO.C,R3*%
X46460625Y-67240000D03*
X48110625Y-67240000D03*
%TD*%
D13*
%TO.C,LED42*%
X90408125Y-99698175D03*
X90408125Y-98199575D03*
X95411925Y-98199575D03*
X95411925Y-99698175D03*
%TD*%
D12*
%TO.C,D17*%
X296545000Y-83440000D03*
X296545000Y-86740000D03*
%TD*%
%TO.C,D14*%
X96370000Y-64390000D03*
X96370000Y-67690000D03*
%TD*%
D13*
%TO.C,LED17*%
X285791275Y-80648175D03*
X285791275Y-79149575D03*
X290795075Y-79149575D03*
X290795075Y-80648175D03*
%TD*%
D12*
%TO.C,D25*%
X144145000Y-83440000D03*
X144145000Y-86740000D03*
%TD*%
D11*
%TO.C,C52*%
X229870000Y-120393125D03*
X229870000Y-118843125D03*
%TD*%
D13*
%TO.C,LED65*%
X85645625Y-137798175D03*
X85645625Y-136299575D03*
X90649425Y-136299575D03*
X90649425Y-137798175D03*
%TD*%
%TO.C,LED56*%
X73739375Y-118748175D03*
X73739375Y-117249575D03*
X78743175Y-117249575D03*
X78743175Y-118748175D03*
%TD*%
%TO.C,LED23*%
X171491275Y-80648175D03*
X171491275Y-79149575D03*
X176495075Y-79149575D03*
X176495075Y-80648175D03*
%TD*%
D11*
%TO.C,C33*%
X48895000Y-82293125D03*
X48895000Y-80743125D03*
%TD*%
D13*
%TO.C,LED28*%
X76120625Y-80648175D03*
X76120625Y-79149575D03*
X81124425Y-79149575D03*
X81124425Y-80648175D03*
%TD*%
D11*
%TO.C,C50*%
X267970000Y-120393125D03*
X267970000Y-118843125D03*
%TD*%
%TO.C,C30*%
X110807500Y-82293125D03*
X110807500Y-80743125D03*
%TD*%
D13*
%TO.C,LED60*%
X288051875Y-137798175D03*
X288051875Y-136299575D03*
X293055675Y-136299575D03*
X293055675Y-137798175D03*
%TD*%
D11*
%TO.C,C13*%
X158432500Y-63243125D03*
X158432500Y-61693125D03*
%TD*%
%TO.C,C39*%
X220345000Y-101343125D03*
X220345000Y-99793125D03*
%TD*%
D12*
%TO.C,D48*%
X244157500Y-121540000D03*
X244157500Y-124840000D03*
%TD*%
D13*
%TO.C,LED2*%
X295195625Y-61598175D03*
X295195625Y-60099575D03*
X300199425Y-60099575D03*
X300199425Y-61598175D03*
%TD*%
D11*
%TO.C,C42*%
X163195000Y-101343125D03*
X163195000Y-99793125D03*
%TD*%
D13*
%TO.C,LED37*%
X185658125Y-99698175D03*
X185658125Y-98199575D03*
X190661925Y-98199575D03*
X190661925Y-99698175D03*
%TD*%
D18*
%TO.C,Boot1*%
X207385625Y-142255000D03*
X213385625Y-142255000D03*
X207385625Y-145955000D03*
X213385625Y-145955000D03*
%TD*%
D11*
%TO.C,C60*%
X70326250Y-120393125D03*
X70326250Y-118843125D03*
%TD*%
D12*
%TO.C,D15*%
X67795000Y-64340000D03*
X67795000Y-67640000D03*
%TD*%
D11*
%TO.C,C14*%
X139382500Y-63243125D03*
X139382500Y-61693125D03*
%TD*%
%TO.C,C53*%
X210820000Y-120393125D03*
X210820000Y-118843125D03*
%TD*%
D18*
%TO.C,Reset1*%
X207385625Y-136055000D03*
X213385625Y-136055000D03*
X207385625Y-139755000D03*
X213385625Y-139755000D03*
%TD*%
D13*
%TO.C,LED38*%
X166608125Y-99698175D03*
X166608125Y-98199575D03*
X171611925Y-98199575D03*
X171611925Y-99698175D03*
%TD*%
%TO.C,LED27*%
X95170625Y-80648175D03*
X95170625Y-79149575D03*
X100174425Y-79149575D03*
X100174425Y-80648175D03*
%TD*%
D12*
%TO.C,D36*%
X215582500Y-102490000D03*
X215582500Y-105790000D03*
%TD*%
%TO.C,D31*%
X317976250Y-102490000D03*
X317976250Y-105790000D03*
%TD*%
D11*
%TO.C,C43*%
X144145000Y-101343125D03*
X144145000Y-99793125D03*
%TD*%
D12*
%TO.C,D63*%
X134620000Y-140590000D03*
X134620000Y-143890000D03*
%TD*%
D13*
%TO.C,LED57*%
X47545625Y-118748175D03*
X47545625Y-117249575D03*
X52549425Y-117249575D03*
X52549425Y-118748175D03*
%TD*%
%TO.C,LED59*%
X311985025Y-137798175D03*
X311985025Y-136299575D03*
X316988825Y-136299575D03*
X316988825Y-137798175D03*
%TD*%
%TO.C,LED16*%
X309603775Y-80648175D03*
X309603775Y-79149575D03*
X314607575Y-79149575D03*
X314607575Y-80648175D03*
%TD*%
D12*
%TO.C,D58*%
X39370000Y-121540000D03*
X39370000Y-124840000D03*
%TD*%
%TO.C,D34*%
X253682500Y-102490000D03*
X253682500Y-105790000D03*
%TD*%
D11*
%TO.C,C58*%
X115570000Y-120393125D03*
X115570000Y-118843125D03*
%TD*%
%TO.C,C5*%
X310832500Y-63243125D03*
X310832500Y-61693125D03*
%TD*%
D12*
%TO.C,D6*%
X248920000Y-64390000D03*
X248920000Y-67690000D03*
%TD*%
%TO.C,D41*%
X120332500Y-102490000D03*
X120332500Y-105790000D03*
%TD*%
D11*
%TO.C,C55*%
X172720000Y-120393125D03*
X172720000Y-118843125D03*
%TD*%
D12*
%TO.C,D49*%
X225107500Y-121540000D03*
X225107500Y-124840000D03*
%TD*%
D19*
%TO.C,U1*%
X230391511Y-143669648D03*
X230037959Y-143316095D03*
X229684404Y-142962541D03*
X229330852Y-142608988D03*
X228977297Y-142255433D03*
X228623744Y-141901881D03*
X228270192Y-141548328D03*
X227916637Y-141194773D03*
X227563084Y-140841221D03*
X227209530Y-140487666D03*
X226855977Y-140134114D03*
D20*
X225715273Y-140134114D03*
X225361720Y-140487666D03*
X225008166Y-140841221D03*
X224654613Y-141194773D03*
X224301058Y-141548328D03*
X223947506Y-141901881D03*
X223593953Y-142255433D03*
X223240398Y-142608988D03*
X222886846Y-142962541D03*
X222533291Y-143316095D03*
X222179739Y-143669648D03*
D19*
X222179739Y-144810352D03*
X222533291Y-145163905D03*
X222886846Y-145517459D03*
X223240398Y-145871012D03*
X223593953Y-146224567D03*
X223947506Y-146578119D03*
X224301058Y-146931672D03*
X224654613Y-147285227D03*
X225008166Y-147638779D03*
X225361720Y-147992334D03*
X225715273Y-148345886D03*
D20*
X226855977Y-148345886D03*
X227209530Y-147992334D03*
X227563084Y-147638779D03*
X227916637Y-147285227D03*
X228270192Y-146931672D03*
X228623744Y-146578119D03*
X228977297Y-146224567D03*
X229330852Y-145871012D03*
X229684404Y-145517459D03*
X230037959Y-145163905D03*
X230391511Y-144810352D03*
D21*
X226285625Y-144240000D03*
%TD*%
D13*
%TO.C,LED46*%
X271383125Y-118748175D03*
X271383125Y-117249575D03*
X276386925Y-117249575D03*
X276386925Y-118748175D03*
%TD*%
%TO.C,LED64*%
X104695625Y-137798175D03*
X104695625Y-136299575D03*
X109699425Y-136299575D03*
X109699425Y-137798175D03*
%TD*%
%TO.C,LED52*%
X157083125Y-118748175D03*
X157083125Y-117249575D03*
X162086925Y-117249575D03*
X162086925Y-118748175D03*
%TD*%
D11*
%TO.C,C7*%
X272732500Y-63243125D03*
X272732500Y-61693125D03*
%TD*%
D13*
%TO.C,LED31*%
X307101875Y-99698175D03*
X307101875Y-98199575D03*
X312105675Y-98199575D03*
X312105675Y-99698175D03*
%TD*%
D11*
%TO.C,C3*%
X25082500Y-139833750D03*
X25082500Y-138283750D03*
%TD*%
%TO.C,C6*%
X291782500Y-63243125D03*
X291782500Y-61693125D03*
%TD*%
%TO.C,C44*%
X125095000Y-101343125D03*
X125095000Y-99793125D03*
%TD*%
D13*
%TO.C,LED21*%
X209591275Y-80648175D03*
X209591275Y-79149575D03*
X214595075Y-79149575D03*
X214595075Y-80648175D03*
%TD*%
%TO.C,LED5*%
X238045625Y-61598175D03*
X238045625Y-60099575D03*
X243049425Y-60099575D03*
X243049425Y-61598175D03*
%TD*%
D11*
%TO.C,C31*%
X91757500Y-82293125D03*
X91757500Y-80743125D03*
%TD*%
%TO.C,C20*%
X306070000Y-82293125D03*
X306070000Y-80743125D03*
%TD*%
D13*
%TO.C,LED24*%
X152441275Y-80648175D03*
X152441275Y-79149575D03*
X157445075Y-79149575D03*
X157445075Y-80648175D03*
%TD*%
D12*
%TO.C,D13*%
X115420000Y-64340000D03*
X115420000Y-67640000D03*
%TD*%
%TO.C,D33*%
X272732500Y-102490000D03*
X272732500Y-105790000D03*
%TD*%
D13*
%TO.C,LED35*%
X223758125Y-99698175D03*
X223758125Y-98199575D03*
X228761925Y-98199575D03*
X228761925Y-99698175D03*
%TD*%
D11*
%TO.C,C64*%
X284638750Y-139443125D03*
X284638750Y-137893125D03*
%TD*%
%TO.C,C11*%
X196532500Y-63243125D03*
X196532500Y-61693125D03*
%TD*%
%TO.C,C35*%
X303688750Y-101343125D03*
X303688750Y-99793125D03*
%TD*%
D13*
%TO.C,LED44*%
X28495625Y-99698175D03*
X28495625Y-98199575D03*
X33499425Y-98199575D03*
X33499425Y-99698175D03*
%TD*%
%TO.C,LED68*%
X28495625Y-137798175D03*
X28495625Y-136299575D03*
X33499425Y-136299575D03*
X33499425Y-137798175D03*
%TD*%
D11*
%TO.C,C19*%
X82232500Y-139418125D03*
X82232500Y-137868125D03*
%TD*%
%TO.C,C57*%
X134620000Y-120393125D03*
X134620000Y-118843125D03*
%TD*%
D12*
%TO.C,D39*%
X158432500Y-102490000D03*
X158432500Y-105790000D03*
%TD*%
%TO.C,D21*%
X220345000Y-83440000D03*
X220345000Y-86740000D03*
%TD*%
D13*
%TO.C,LED43*%
X59451875Y-99698175D03*
X59451875Y-98199575D03*
X64455675Y-98199575D03*
X64455675Y-99698175D03*
%TD*%
D12*
%TO.C,D2*%
X325120000Y-64390000D03*
X325120000Y-67690000D03*
%TD*%
D11*
%TO.C,C38*%
X239395000Y-101343125D03*
X239395000Y-99793125D03*
%TD*%
D12*
%TO.C,D4*%
X287020000Y-64390000D03*
X287020000Y-67690000D03*
%TD*%
%TO.C,D67*%
X58420000Y-140590000D03*
X58420000Y-143890000D03*
%TD*%
D22*
%TO.C,J1*%
X41815625Y-61540000D03*
X41815625Y-62440000D03*
X41815625Y-63340000D03*
X41815625Y-64240000D03*
X41815625Y-65140000D03*
X41815625Y-66040000D03*
X41815625Y-66940000D03*
X41035625Y-66490000D03*
X41035625Y-65590000D03*
X41035625Y-64690000D03*
X41035625Y-63790000D03*
X41035625Y-62890000D03*
X41035625Y-61990000D03*
X41035625Y-61090000D03*
D23*
X42855625Y-61590000D03*
X39995625Y-61590000D03*
X42855625Y-66390000D03*
X39995625Y-66390000D03*
%TD*%
D13*
%TO.C,LED7*%
X199945625Y-61598175D03*
X199945625Y-60099575D03*
X204949425Y-60099575D03*
X204949425Y-61598175D03*
%TD*%
%TO.C,LED41*%
X109458125Y-99698175D03*
X109458125Y-98199575D03*
X114461925Y-98199575D03*
X114461925Y-99698175D03*
%TD*%
%TO.C,LED48*%
X233283125Y-118748175D03*
X233283125Y-117249575D03*
X238286925Y-117249575D03*
X238286925Y-118748175D03*
%TD*%
D12*
%TO.C,D40*%
X139382500Y-102490000D03*
X139382500Y-105790000D03*
%TD*%
D13*
%TO.C,LED66*%
X66595625Y-137798175D03*
X66595625Y-136299575D03*
X71599425Y-136299575D03*
X71599425Y-137798175D03*
%TD*%
D12*
%TO.C,D38*%
X177482500Y-102490000D03*
X177482500Y-105790000D03*
%TD*%
D17*
%TO.C,R4*%
X46460625Y-68740000D03*
X48110625Y-68740000D03*
%TD*%
D13*
%TO.C,LED14*%
X57159525Y-61598175D03*
X57159525Y-60099575D03*
X62163325Y-60099575D03*
X62163325Y-61598175D03*
%TD*%
D16*
%TO.C,C71*%
X44132500Y-138025000D03*
X44132500Y-139575000D03*
%TD*%
D13*
%TO.C,LED3*%
X276145625Y-61598175D03*
X276145625Y-60099575D03*
X281149425Y-60099575D03*
X281149425Y-61598175D03*
%TD*%
%TO.C,LED67*%
X47545625Y-137798175D03*
X47545625Y-136299575D03*
X52549425Y-136299575D03*
X52549425Y-137798175D03*
%TD*%
%TO.C,LED39*%
X147558125Y-99698175D03*
X147558125Y-98199575D03*
X152561925Y-98199575D03*
X152561925Y-99698175D03*
%TD*%
%TO.C,LED1*%
X314245625Y-61598175D03*
X314245625Y-60099575D03*
X319249425Y-60099575D03*
X319249425Y-61598175D03*
%TD*%
D12*
%TO.C,D28*%
X86995000Y-83440000D03*
X86995000Y-86740000D03*
%TD*%
D24*
%TO.C,ICSP1*%
X160285625Y-151205000D03*
D25*
X162825625Y-151205000D03*
X165365625Y-151205000D03*
X167905625Y-151205000D03*
X170445625Y-151205000D03*
X172985625Y-151205000D03*
%TD*%
D12*
%TO.C,D30*%
X39370000Y-83440000D03*
X39370000Y-86740000D03*
%TD*%
D13*
%TO.C,LED47*%
X252333125Y-118748175D03*
X252333125Y-117249575D03*
X257336925Y-117249575D03*
X257336925Y-118748175D03*
%TD*%
D11*
%TO.C,C61*%
X44132500Y-120393125D03*
X44132500Y-118843125D03*
%TD*%
D14*
%TO.C,C72*%
X217942148Y-137898250D03*
X216392148Y-137898250D03*
%TD*%
D12*
%TO.C,D27*%
X106045000Y-83440000D03*
X106045000Y-86740000D03*
%TD*%
D13*
%TO.C,LED50*%
X195303775Y-118748175D03*
X195303775Y-117249575D03*
X200307575Y-117249575D03*
X200307575Y-118748175D03*
%TD*%
D12*
%TO.C,D42*%
X101282500Y-102490000D03*
X101282500Y-105790000D03*
%TD*%
%TO.C,D50*%
X206057500Y-121540000D03*
X206057500Y-124840000D03*
%TD*%
D13*
%TO.C,LED45*%
X302339375Y-118748175D03*
X302339375Y-117249575D03*
X307343175Y-117249575D03*
X307343175Y-118748175D03*
%TD*%
D11*
%TO.C,C59*%
X96520000Y-120393125D03*
X96520000Y-118843125D03*
%TD*%
D17*
%TO.C,R1*%
X46460625Y-63990000D03*
X48110625Y-63990000D03*
%TD*%
D11*
%TO.C,C9*%
X234632500Y-63243125D03*
X234632500Y-61693125D03*
%TD*%
D13*
%TO.C,LED20*%
X228641275Y-80648175D03*
X228641275Y-79149575D03*
X233645075Y-79149575D03*
X233645075Y-80648175D03*
%TD*%
D12*
%TO.C,D37*%
X196532500Y-102490000D03*
X196532500Y-105790000D03*
%TD*%
D13*
%TO.C,LED63*%
X123745625Y-137798175D03*
X123745625Y-136299575D03*
X128749425Y-136299575D03*
X128749425Y-137798175D03*
%TD*%
D11*
%TO.C,C49*%
X298926250Y-120393125D03*
X298926250Y-118843125D03*
%TD*%
D13*
%TO.C,LED4*%
X257095625Y-61598175D03*
X257095625Y-60099575D03*
X262099425Y-60099575D03*
X262099425Y-61598175D03*
%TD*%
D12*
%TO.C,D29*%
X63182500Y-83440000D03*
X63182500Y-86740000D03*
%TD*%
D16*
%TO.C,C70*%
X229885625Y-136080000D03*
X229885625Y-137630000D03*
%TD*%
D26*
%TO.C,Y1*%
X220915273Y-139335250D03*
X220915273Y-137985250D03*
X219915273Y-137985250D03*
X219915273Y-139335250D03*
%TD*%
D13*
%TO.C,LED49*%
X214233125Y-118748175D03*
X214233125Y-117249575D03*
X219236925Y-117249575D03*
X219236925Y-118748175D03*
%TD*%
D12*
%TO.C,D55*%
X110807500Y-121540000D03*
X110807500Y-124840000D03*
%TD*%
D11*
%TO.C,C41*%
X182245000Y-101343125D03*
X182245000Y-99793125D03*
%TD*%
D12*
%TO.C,D64*%
X115570000Y-140590000D03*
X115570000Y-143890000D03*
%TD*%
D11*
%TO.C,C22*%
X263207500Y-82293125D03*
X263207500Y-80743125D03*
%TD*%
D12*
%TO.C,D62*%
X203676250Y-140590000D03*
X203676250Y-143890000D03*
%TD*%
D13*
%TO.C,LED26*%
X114220625Y-80648175D03*
X114220625Y-79149575D03*
X119224425Y-79149575D03*
X119224425Y-80648175D03*
%TD*%
D11*
%TO.C,C16*%
X101282500Y-63243125D03*
X101282500Y-61693125D03*
%TD*%
D12*
%TO.C,D3*%
X306070000Y-64390000D03*
X306070000Y-67690000D03*
%TD*%
D13*
%TO.C,LED55*%
X99933125Y-118748175D03*
X99933125Y-117249575D03*
X104936925Y-117249575D03*
X104936925Y-118748175D03*
%TD*%
D11*
%TO.C,C32*%
X72707500Y-82293125D03*
X72707500Y-80743125D03*
%TD*%
D12*
%TO.C,D20*%
X239395000Y-83440000D03*
X239395000Y-86740000D03*
%TD*%
D11*
%TO.C,C65*%
X260826250Y-139443125D03*
X260826250Y-137893125D03*
%TD*%
D12*
%TO.C,D43*%
X70326250Y-102490000D03*
X70326250Y-105790000D03*
%TD*%
D11*
%TO.C,C24*%
X225107500Y-82293125D03*
X225107500Y-80743125D03*
%TD*%
D13*
%TO.C,LED10*%
X142795625Y-61598175D03*
X142795625Y-60099575D03*
X147799425Y-60099575D03*
X147799425Y-61598175D03*
%TD*%
D11*
%TO.C,C29*%
X129857500Y-82293125D03*
X129857500Y-80743125D03*
%TD*%
D13*
%TO.C,LED62*%
X192801875Y-137798175D03*
X192801875Y-136299575D03*
X197805675Y-136299575D03*
X197805675Y-137798175D03*
%TD*%
D12*
%TO.C,D1*%
X37035625Y-69440000D03*
X37035625Y-72740000D03*
%TD*%
D11*
%TO.C,C12*%
X177482500Y-63243125D03*
X177482500Y-61693125D03*
%TD*%
D12*
%TO.C,D53*%
X148907500Y-121080625D03*
X148907500Y-124380625D03*
%TD*%
D13*
%TO.C,LED6*%
X218995625Y-61598175D03*
X218995625Y-60099575D03*
X223999425Y-60099575D03*
X223999425Y-61598175D03*
%TD*%
%TO.C,LED13*%
X85740875Y-61598175D03*
X85740875Y-60099575D03*
X90744675Y-60099575D03*
X90744675Y-61598175D03*
%TD*%
%TO.C,LED29*%
X52308125Y-80648175D03*
X52308125Y-79149575D03*
X57311925Y-79149575D03*
X57311925Y-80648175D03*
%TD*%
D12*
%TO.C,D47*%
X263207500Y-121540000D03*
X263207500Y-124840000D03*
%TD*%
D11*
%TO.C,C56*%
X153670000Y-120393125D03*
X153670000Y-118843125D03*
%TD*%
D13*
%TO.C,LED12*%
X104695625Y-61598175D03*
X104695625Y-60099575D03*
X109699425Y-60099575D03*
X109699425Y-61598175D03*
%TD*%
%TO.C,LED9*%
X161845625Y-61598175D03*
X161845625Y-60099575D03*
X166849425Y-60099575D03*
X166849425Y-61598175D03*
%TD*%
D12*
%TO.C,D18*%
X277495000Y-83440000D03*
X277495000Y-86740000D03*
%TD*%
%TO.C,D8*%
X210820000Y-64390000D03*
X210820000Y-67690000D03*
%TD*%
%TO.C,D65*%
X96520000Y-140590000D03*
X96520000Y-143890000D03*
%TD*%
D17*
%TO.C,R2*%
X46460625Y-65548125D03*
X48110625Y-65548125D03*
%TD*%
D12*
%TO.C,D52*%
X167957500Y-121540000D03*
X167957500Y-124840000D03*
%TD*%
%TO.C,D66*%
X77470000Y-140590000D03*
X77470000Y-143890000D03*
%TD*%
D27*
%TO.C,U2*%
X176985625Y-141805000D03*
X176985625Y-144105000D03*
X176985625Y-146405000D03*
D28*
X183135625Y-144105000D03*
%TD*%
D13*
%TO.C,LED61*%
X264239375Y-137798175D03*
X264239375Y-136299575D03*
X269243175Y-136299575D03*
X269243175Y-137798175D03*
%TD*%
%TO.C,LED51*%
X176133125Y-118748175D03*
X176133125Y-117249575D03*
X181136925Y-117249575D03*
X181136925Y-118748175D03*
%TD*%
%TO.C,LED58*%
X28495625Y-118748175D03*
X28495625Y-117249575D03*
X33499425Y-117249575D03*
X33499425Y-118748175D03*
%TD*%
D11*
%TO.C,C68*%
X101282500Y-139443125D03*
X101282500Y-137893125D03*
%TD*%
D13*
%TO.C,LED53*%
X138033125Y-118748175D03*
X138033125Y-117249575D03*
X143036925Y-117249575D03*
X143036925Y-118748175D03*
%TD*%
%TO.C,LED36*%
X204708125Y-99698175D03*
X204708125Y-98199575D03*
X209711925Y-98199575D03*
X209711925Y-99698175D03*
%TD*%
D11*
%TO.C,C21*%
X282257500Y-82293125D03*
X282257500Y-80743125D03*
%TD*%
D12*
%TO.C,D5*%
X267970000Y-64390000D03*
X267970000Y-67690000D03*
%TD*%
%TO.C,D22*%
X201295000Y-83440000D03*
X201295000Y-86740000D03*
%TD*%
%TO.C,D44*%
X39370000Y-102490000D03*
X39370000Y-105790000D03*
%TD*%
D13*
%TO.C,LED32*%
X280908125Y-99698175D03*
X280908125Y-98199575D03*
X285911925Y-98199575D03*
X285911925Y-99698175D03*
%TD*%
D11*
%TO.C,C40*%
X201295000Y-101343125D03*
X201295000Y-99793125D03*
%TD*%
%TO.C,C67*%
X120332500Y-139443125D03*
X120332500Y-137893125D03*
%TD*%
%TO.C,C10*%
X215582500Y-63243125D03*
X215582500Y-61693125D03*
%TD*%
D13*
%TO.C,LED19*%
X247691275Y-80648175D03*
X247691275Y-79149575D03*
X252695075Y-79149575D03*
X252695075Y-80648175D03*
%TD*%
%TO.C,LED34*%
X242808125Y-99698175D03*
X242808125Y-98199575D03*
X247811925Y-98199575D03*
X247811925Y-99698175D03*
%TD*%
D12*
%TO.C,D56*%
X84613750Y-121540000D03*
X84613750Y-124840000D03*
%TD*%
%TO.C,D10*%
X172720000Y-64390000D03*
X172720000Y-67690000D03*
%TD*%
D11*
%TO.C,C66*%
X189388750Y-139443125D03*
X189388750Y-137893125D03*
%TD*%
D29*
%TO.C,F1*%
X42860625Y-73058750D03*
X42860625Y-71483750D03*
%TD*%
D13*
%TO.C,LED33*%
X261858125Y-99698175D03*
X261858125Y-98199575D03*
X266861925Y-98199575D03*
X266861925Y-99698175D03*
%TD*%
D11*
%TO.C,C18*%
X53657500Y-63243125D03*
X53657500Y-61693125D03*
%TD*%
%TO.C,C46*%
X86995000Y-101343125D03*
X86995000Y-99793125D03*
%TD*%
%TO.C,C51*%
X248920000Y-120393125D03*
X248920000Y-118843125D03*
%TD*%
D12*
%TO.C,D12*%
X134620000Y-64390000D03*
X134620000Y-67690000D03*
%TD*%
D11*
%TO.C,C45*%
X106045000Y-101343125D03*
X106045000Y-99793125D03*
%TD*%
D12*
%TO.C,D9*%
X191770000Y-64390000D03*
X191770000Y-67690000D03*
%TD*%
D11*
%TO.C,C8*%
X253682500Y-63243125D03*
X253682500Y-61693125D03*
%TD*%
D12*
%TO.C,D16*%
X320357500Y-83440000D03*
X320357500Y-86740000D03*
%TD*%
%TO.C,D32*%
X291782500Y-102490000D03*
X291782500Y-105790000D03*
%TD*%
D13*
%TO.C,LED22*%
X190541275Y-80648175D03*
X190541275Y-79149575D03*
X195545075Y-79149575D03*
X195545075Y-80648175D03*
%TD*%
D11*
%TO.C,C25*%
X206057500Y-82293125D03*
X206057500Y-80743125D03*
%TD*%
D12*
%TO.C,D35*%
X234632500Y-102490000D03*
X234632500Y-105790000D03*
%TD*%
%TO.C,D68*%
X39370000Y-140590000D03*
X39370000Y-143890000D03*
%TD*%
D11*
%TO.C,C62*%
X25082500Y-120393125D03*
X25082500Y-118843125D03*
%TD*%
D12*
%TO.C,D51*%
X187007500Y-121540000D03*
X187007500Y-124840000D03*
%TD*%
D11*
%TO.C,C54*%
X191770000Y-120393125D03*
X191770000Y-118843125D03*
%TD*%
D12*
%TO.C,D24*%
X163195000Y-83440000D03*
X163195000Y-86740000D03*
%TD*%
D30*
%TO.C,R5*%
X225165273Y-135796250D03*
X225165273Y-137446250D03*
%TD*%
D11*
%TO.C,C17*%
X82232500Y-63243125D03*
X82232500Y-61693125D03*
%TD*%
%TO.C,C37*%
X258445000Y-101343125D03*
X258445000Y-99793125D03*
%TD*%
D16*
%TO.C,C2*%
X223665273Y-135846250D03*
X223665273Y-137396250D03*
%TD*%
D31*
%TO.C,SW45*%
X297794375Y-125730000D03*
D32*
X299799375Y-123190000D03*
D33*
X304879375Y-123190000D03*
D32*
X309959375Y-123190000D03*
D31*
X310721375Y-128270000D03*
D34*
X301069375Y-125730000D03*
X307419375Y-128270000D03*
%TD*%
D31*
%TO.C,SW43*%
X54906875Y-106680000D03*
D32*
X56911875Y-104140000D03*
D33*
X61991875Y-104140000D03*
D32*
X67071875Y-104140000D03*
D31*
X67833875Y-109220000D03*
D34*
X58181875Y-106680000D03*
X64531875Y-109220000D03*
%TD*%
D31*
%TO.C,SW34*%
X238263125Y-106680000D03*
D32*
X240268125Y-104140000D03*
D33*
X245348125Y-104140000D03*
D32*
X250428125Y-104140000D03*
D31*
X251190125Y-109220000D03*
D34*
X241538125Y-106680000D03*
X247888125Y-109220000D03*
%TD*%
D31*
%TO.C,SW32*%
X276363125Y-106680000D03*
D32*
X278368125Y-104140000D03*
D33*
X283448125Y-104140000D03*
D32*
X288528125Y-104140000D03*
D31*
X289290125Y-109220000D03*
D34*
X279638125Y-106680000D03*
X285988125Y-109220000D03*
%TD*%
D31*
%TO.C,SW62*%
X188256875Y-144780000D03*
D32*
X190261875Y-142240000D03*
D33*
X195341875Y-142240000D03*
D32*
X200421875Y-142240000D03*
D31*
X201183875Y-147320000D03*
D34*
X191531875Y-144780000D03*
X197881875Y-147320000D03*
%TD*%
D31*
%TO.C,SW16*%
X304938125Y-87630000D03*
D32*
X306943125Y-85090000D03*
D33*
X312023125Y-85090000D03*
D32*
X317103125Y-85090000D03*
D31*
X317865125Y-90170000D03*
D34*
X308213125Y-87630000D03*
X314563125Y-90170000D03*
%TD*%
D31*
%TO.C,SW10*%
X157300625Y-68580000D03*
D32*
X159305625Y-66040000D03*
D33*
X164385625Y-66040000D03*
D32*
X169465625Y-66040000D03*
D31*
X170227625Y-71120000D03*
D34*
X160575625Y-68580000D03*
X166925625Y-71120000D03*
%TD*%
D31*
%TO.C,SW49*%
X209688125Y-125730000D03*
D32*
X211693125Y-123190000D03*
D33*
X216773125Y-123190000D03*
D32*
X221853125Y-123190000D03*
D31*
X222615125Y-128270000D03*
D34*
X212963125Y-125730000D03*
X219313125Y-128270000D03*
%TD*%
D31*
%TO.C,SW41*%
X104913125Y-106680000D03*
D32*
X106918125Y-104140000D03*
D33*
X111998125Y-104140000D03*
D32*
X117078125Y-104140000D03*
D31*
X117840125Y-109220000D03*
D34*
X108188125Y-106680000D03*
X114538125Y-109220000D03*
%TD*%
D31*
%TO.C,SW65*%
X81100625Y-144780000D03*
D32*
X83105625Y-142240000D03*
D33*
X88185625Y-142240000D03*
D32*
X93265625Y-142240000D03*
D31*
X94027625Y-147320000D03*
D34*
X84375625Y-144780000D03*
X90725625Y-147320000D03*
%TD*%
D31*
%TO.C,SW60*%
X283506875Y-144780000D03*
D32*
X285511875Y-142240000D03*
D33*
X290591875Y-142240000D03*
D32*
X295671875Y-142240000D03*
D31*
X296433875Y-147320000D03*
D34*
X286781875Y-144780000D03*
X293131875Y-147320000D03*
%TD*%
D35*
%TO.C,STB1*%
X145341875Y-134015000D03*
D36*
X145341875Y-149225000D03*
D35*
X245341875Y-134015000D03*
D36*
X245341875Y-149225000D03*
%TD*%
D31*
%TO.C,SW11*%
X138250625Y-68580000D03*
D32*
X140255625Y-66040000D03*
D33*
X145335625Y-66040000D03*
D32*
X150415625Y-66040000D03*
D31*
X151177625Y-71120000D03*
D34*
X141525625Y-68580000D03*
X147875625Y-71120000D03*
%TD*%
D31*
%TO.C,SW47*%
X247788125Y-125730000D03*
D32*
X249793125Y-123190000D03*
D33*
X254873125Y-123190000D03*
D32*
X259953125Y-123190000D03*
D31*
X260715125Y-128270000D03*
D34*
X251063125Y-125730000D03*
X257413125Y-128270000D03*
%TD*%
D31*
%TO.C,SW35*%
X219213125Y-106680000D03*
D32*
X221218125Y-104140000D03*
D33*
X226298125Y-104140000D03*
D32*
X231378125Y-104140000D03*
D31*
X232140125Y-109220000D03*
D34*
X222488125Y-106680000D03*
X228838125Y-109220000D03*
%TD*%
D31*
%TO.C,SW13*%
X100150625Y-68580000D03*
D32*
X102155625Y-66040000D03*
D33*
X107235625Y-66040000D03*
D32*
X112315625Y-66040000D03*
D31*
X113077625Y-71120000D03*
D34*
X103425625Y-68580000D03*
X109775625Y-71120000D03*
%TD*%
D31*
%TO.C,SW36*%
X200163125Y-106680000D03*
D32*
X202168125Y-104140000D03*
D33*
X207248125Y-104140000D03*
D32*
X212328125Y-104140000D03*
D31*
X213090125Y-109220000D03*
D34*
X203438125Y-106680000D03*
X209788125Y-109220000D03*
%TD*%
D35*
%TO.C,STB3*%
X73929875Y-112365000D03*
D36*
X73929875Y-97155000D03*
D35*
X50053875Y-112365000D03*
D36*
X50053875Y-97155000D03*
%TD*%
D31*
%TO.C,SW63*%
X119200625Y-144780000D03*
D32*
X121205625Y-142240000D03*
D33*
X126285625Y-142240000D03*
D32*
X131365625Y-142240000D03*
D31*
X132127625Y-147320000D03*
D34*
X122475625Y-144780000D03*
X128825625Y-147320000D03*
%TD*%
D31*
%TO.C,SW26*%
X109675625Y-87630000D03*
D32*
X111680625Y-85090000D03*
D33*
X116760625Y-85090000D03*
D32*
X121840625Y-85090000D03*
D31*
X122602625Y-90170000D03*
D34*
X112950625Y-87630000D03*
X119300625Y-90170000D03*
%TD*%
D31*
%TO.C,SW24*%
X147775625Y-87630000D03*
D32*
X149780625Y-85090000D03*
D33*
X154860625Y-85090000D03*
D32*
X159940625Y-85090000D03*
D31*
X160702625Y-90170000D03*
D34*
X151050625Y-87630000D03*
X157400625Y-90170000D03*
%TD*%
D31*
%TO.C,SW23*%
X166825625Y-87630000D03*
D32*
X168830625Y-85090000D03*
D33*
X173910625Y-85090000D03*
D32*
X178990625Y-85090000D03*
D31*
X179752625Y-90170000D03*
D34*
X170100625Y-87630000D03*
X176450625Y-90170000D03*
%TD*%
D31*
%TO.C,SW28*%
X71575625Y-87630000D03*
D32*
X73580625Y-85090000D03*
D33*
X78660625Y-85090000D03*
D32*
X83740625Y-85090000D03*
D31*
X84502625Y-90170000D03*
D34*
X74850625Y-87630000D03*
X81200625Y-90170000D03*
%TD*%
D31*
%TO.C,SW51*%
X171588125Y-125730000D03*
D32*
X173593125Y-123190000D03*
D33*
X178673125Y-123190000D03*
D32*
X183753125Y-123190000D03*
D31*
X184515125Y-128270000D03*
D34*
X174863125Y-125730000D03*
X181213125Y-128270000D03*
%TD*%
D31*
%TO.C,SW15*%
X52551025Y-68580000D03*
D32*
X54556025Y-66040000D03*
D33*
X59636025Y-66040000D03*
D32*
X64716025Y-66040000D03*
D31*
X65478025Y-71120000D03*
D34*
X55826025Y-68580000D03*
X62176025Y-71120000D03*
%TD*%
D31*
%TO.C,SW39*%
X143013125Y-106680000D03*
D32*
X145018125Y-104140000D03*
D33*
X150098125Y-104140000D03*
D32*
X155178125Y-104140000D03*
D31*
X155940125Y-109220000D03*
D34*
X146288125Y-106680000D03*
X152638125Y-109220000D03*
%TD*%
D31*
%TO.C,SW54*%
X114438125Y-125730000D03*
D32*
X116443125Y-123190000D03*
D33*
X121523125Y-123190000D03*
D32*
X126603125Y-123190000D03*
D31*
X127365125Y-128270000D03*
D34*
X117713125Y-125730000D03*
X124063125Y-128270000D03*
%TD*%
D31*
%TO.C,SW31*%
X302556875Y-106680000D03*
D32*
X304561875Y-104140000D03*
D33*
X309641875Y-104140000D03*
D32*
X314721875Y-104140000D03*
D31*
X315483875Y-109220000D03*
D34*
X305831875Y-106680000D03*
X312181875Y-109220000D03*
%TD*%
D31*
%TO.C,SW20*%
X223975625Y-87630000D03*
D32*
X225980625Y-85090000D03*
D33*
X231060625Y-85090000D03*
D32*
X236140625Y-85090000D03*
D31*
X236902625Y-90170000D03*
D34*
X227250625Y-87630000D03*
X233600625Y-90170000D03*
%TD*%
D31*
%TO.C,SW14*%
X81100625Y-68580000D03*
D32*
X83105625Y-66040000D03*
D33*
X88185625Y-66040000D03*
D32*
X93265625Y-66040000D03*
D31*
X94027625Y-71120000D03*
D34*
X84375625Y-68580000D03*
X90725625Y-71120000D03*
%TD*%
D31*
%TO.C,SW22*%
X185875625Y-87630000D03*
D32*
X187880625Y-85090000D03*
D33*
X192960625Y-85090000D03*
D32*
X198040625Y-85090000D03*
D31*
X198802625Y-90170000D03*
D34*
X189150625Y-87630000D03*
X195500625Y-90170000D03*
%TD*%
D31*
%TO.C,SW53*%
X133488125Y-125730000D03*
D32*
X135493125Y-123190000D03*
D33*
X140573125Y-123190000D03*
D32*
X145653125Y-123190000D03*
D31*
X146415125Y-128270000D03*
D34*
X136763125Y-125730000D03*
X143113125Y-128270000D03*
%TD*%
D31*
%TO.C,SW3*%
X290650625Y-68580000D03*
D32*
X292655625Y-66040000D03*
D33*
X297735625Y-66040000D03*
D32*
X302815625Y-66040000D03*
D31*
X303577625Y-71120000D03*
D34*
X293925625Y-68580000D03*
X300275625Y-71120000D03*
%TD*%
D31*
%TO.C,SW56*%
X69194375Y-125730000D03*
D32*
X71199375Y-123190000D03*
D33*
X76279375Y-123190000D03*
D32*
X81359375Y-123190000D03*
D31*
X82121375Y-128270000D03*
D34*
X72469375Y-125730000D03*
X78819375Y-128270000D03*
%TD*%
D35*
%TO.C,STB2*%
X316817375Y-131415000D03*
D36*
X316817375Y-116205000D03*
D35*
X292941375Y-131415000D03*
D36*
X292941375Y-116205000D03*
%TD*%
D31*
%TO.C,SW38*%
X162063125Y-106680000D03*
D32*
X164068125Y-104140000D03*
D33*
X169148125Y-104140000D03*
D32*
X174228125Y-104140000D03*
D31*
X174990125Y-109220000D03*
D34*
X165338125Y-106680000D03*
X171688125Y-109220000D03*
%TD*%
D31*
%TO.C,SW58*%
X23950625Y-125730000D03*
D32*
X25955625Y-123190000D03*
D33*
X31035625Y-123190000D03*
D32*
X36115625Y-123190000D03*
D31*
X36877625Y-128270000D03*
D34*
X27225625Y-125730000D03*
X33575625Y-128270000D03*
%TD*%
D31*
%TO.C,SW55*%
X95388125Y-125730000D03*
D32*
X97393125Y-123190000D03*
D33*
X102473125Y-123190000D03*
D32*
X107553125Y-123190000D03*
D31*
X108315125Y-128270000D03*
D34*
X98663125Y-125730000D03*
X105013125Y-128270000D03*
%TD*%
D31*
%TO.C,SW12*%
X119200625Y-68580000D03*
D32*
X121205625Y-66040000D03*
D33*
X126285625Y-66040000D03*
D32*
X131365625Y-66040000D03*
D31*
X132127625Y-71120000D03*
D34*
X122475625Y-68580000D03*
X128825625Y-71120000D03*
%TD*%
D31*
%TO.C,SW17*%
X281125625Y-87630000D03*
D32*
X283130625Y-85090000D03*
D33*
X288210625Y-85090000D03*
D32*
X293290625Y-85090000D03*
D31*
X294052625Y-90170000D03*
D34*
X284400625Y-87630000D03*
X290750625Y-90170000D03*
%TD*%
D37*
%TO.C,SW1*%
X28385625Y-58105000D03*
D38*
X33385625Y-58105000D03*
X30885625Y-58105000D03*
D39*
X36485625Y-65605000D03*
X25285625Y-65605000D03*
D38*
X33385625Y-72605000D03*
X28385625Y-72605000D03*
%TD*%
D31*
%TO.C,SW68*%
X23950625Y-144780000D03*
D32*
X25955625Y-142240000D03*
D33*
X31035625Y-142240000D03*
D32*
X36115625Y-142240000D03*
D31*
X36877625Y-147320000D03*
D34*
X27225625Y-144780000D03*
X33575625Y-147320000D03*
%TD*%
D31*
%TO.C,SW37*%
X181113125Y-106680000D03*
D32*
X183118125Y-104140000D03*
D33*
X188198125Y-104140000D03*
D32*
X193278125Y-104140000D03*
D31*
X194040125Y-109220000D03*
D34*
X184388125Y-106680000D03*
X190738125Y-109220000D03*
%TD*%
D31*
%TO.C,SW7*%
X214450625Y-68580000D03*
D32*
X216455625Y-66040000D03*
D33*
X221535625Y-66040000D03*
D32*
X226615625Y-66040000D03*
D31*
X227377625Y-71120000D03*
D34*
X217725625Y-68580000D03*
X224075625Y-71120000D03*
%TD*%
D35*
%TO.C,STB4*%
X71548625Y-74265000D03*
D36*
X71548625Y-59055000D03*
D35*
X47672625Y-74265000D03*
D36*
X47672625Y-59055000D03*
%TD*%
D31*
%TO.C,SW2*%
X309700625Y-68580000D03*
D32*
X311705625Y-66040000D03*
D33*
X316785625Y-66040000D03*
D32*
X321865625Y-66040000D03*
D31*
X322627625Y-71120000D03*
D34*
X312975625Y-68580000D03*
X319325625Y-71120000D03*
%TD*%
D31*
%TO.C,SW64*%
X100150625Y-144780000D03*
D32*
X102155625Y-142240000D03*
D33*
X107235625Y-142240000D03*
D32*
X112315625Y-142240000D03*
D31*
X113077625Y-147320000D03*
D34*
X103425625Y-144780000D03*
X109775625Y-147320000D03*
%TD*%
D31*
%TO.C,SW48*%
X228738125Y-125730000D03*
D32*
X230743125Y-123190000D03*
D33*
X235823125Y-123190000D03*
D32*
X240903125Y-123190000D03*
D31*
X241665125Y-128270000D03*
D34*
X232013125Y-125730000D03*
X238363125Y-128270000D03*
%TD*%
D31*
%TO.C,SW42*%
X85863125Y-106680000D03*
D32*
X87868125Y-104140000D03*
D33*
X92948125Y-104140000D03*
D32*
X98028125Y-104140000D03*
D31*
X98790125Y-109220000D03*
D34*
X89138125Y-106680000D03*
X95488125Y-109220000D03*
%TD*%
D31*
%TO.C,SW67*%
X43000625Y-144780000D03*
D32*
X45005625Y-142240000D03*
D33*
X50085625Y-142240000D03*
D32*
X55165625Y-142240000D03*
D31*
X55927625Y-147320000D03*
D34*
X46275625Y-144780000D03*
X52625625Y-147320000D03*
%TD*%
D31*
%TO.C,SW57*%
X43000625Y-125730000D03*
D32*
X45005625Y-123190000D03*
D33*
X50085625Y-123190000D03*
D32*
X55165625Y-123190000D03*
D31*
X55927625Y-128270000D03*
D34*
X46275625Y-125730000D03*
X52625625Y-128270000D03*
%TD*%
D31*
%TO.C,SW19*%
X243025625Y-87630000D03*
D32*
X245030625Y-85090000D03*
D33*
X250110625Y-85090000D03*
D32*
X255190625Y-85090000D03*
D31*
X255952625Y-90170000D03*
D34*
X246300625Y-87630000D03*
X252650625Y-90170000D03*
%TD*%
D31*
%TO.C,SW25*%
X128725625Y-87630000D03*
D32*
X130730625Y-85090000D03*
D33*
X135810625Y-85090000D03*
D32*
X140890625Y-85090000D03*
D31*
X141652625Y-90170000D03*
D34*
X132000625Y-87630000D03*
X138350625Y-90170000D03*
%TD*%
D31*
%TO.C,SW61*%
X259694375Y-144780000D03*
D32*
X261699375Y-142240000D03*
D33*
X266779375Y-142240000D03*
D32*
X271859375Y-142240000D03*
D31*
X272621375Y-147320000D03*
D34*
X262969375Y-144780000D03*
X269319375Y-147320000D03*
%TD*%
D31*
%TO.C,SW27*%
X90625625Y-87630000D03*
D32*
X92630625Y-85090000D03*
D33*
X97710625Y-85090000D03*
D32*
X102790625Y-85090000D03*
D31*
X103552625Y-90170000D03*
D34*
X93900625Y-87630000D03*
X100250625Y-90170000D03*
%TD*%
D31*
%TO.C,SW66*%
X62050625Y-144780000D03*
D32*
X64055625Y-142240000D03*
D33*
X69135625Y-142240000D03*
D32*
X74215625Y-142240000D03*
D31*
X74977625Y-147320000D03*
D34*
X65325625Y-144780000D03*
X71675625Y-147320000D03*
%TD*%
D31*
%TO.C,SW9*%
X176350625Y-68580000D03*
D32*
X178355625Y-66040000D03*
D33*
X183435625Y-66040000D03*
D32*
X188515625Y-66040000D03*
D31*
X189277625Y-71120000D03*
D34*
X179625625Y-68580000D03*
X185975625Y-71120000D03*
%TD*%
D31*
%TO.C,SW44*%
X23950625Y-106680000D03*
D32*
X25955625Y-104140000D03*
D33*
X31035625Y-104140000D03*
D32*
X36115625Y-104140000D03*
D31*
X36877625Y-109220000D03*
D34*
X27225625Y-106680000D03*
X33575625Y-109220000D03*
%TD*%
D31*
%TO.C,SW40*%
X123963125Y-106680000D03*
D32*
X125968125Y-104140000D03*
D33*
X131048125Y-104140000D03*
D32*
X136128125Y-104140000D03*
D31*
X136890125Y-109220000D03*
D34*
X127238125Y-106680000D03*
X133588125Y-109220000D03*
%TD*%
D31*
%TO.C,SW50*%
X190638125Y-125730000D03*
D32*
X192643125Y-123190000D03*
D33*
X197723125Y-123190000D03*
D32*
X202803125Y-123190000D03*
D31*
X203565125Y-128270000D03*
D34*
X193913125Y-125730000D03*
X200263125Y-128270000D03*
%TD*%
D31*
%TO.C,SW4*%
X271600625Y-68580000D03*
D32*
X273605625Y-66040000D03*
D33*
X278685625Y-66040000D03*
D32*
X283765625Y-66040000D03*
D31*
X284527625Y-71120000D03*
D34*
X274875625Y-68580000D03*
X281225625Y-71120000D03*
%TD*%
D31*
%TO.C,SW18*%
X262075625Y-87630000D03*
D32*
X264080625Y-85090000D03*
D33*
X269160625Y-85090000D03*
D32*
X274240625Y-85090000D03*
D31*
X275002625Y-90170000D03*
D34*
X265350625Y-87630000D03*
X271700625Y-90170000D03*
%TD*%
D31*
%TO.C,SW5*%
X252550625Y-68580000D03*
D32*
X254555625Y-66040000D03*
D33*
X259635625Y-66040000D03*
D32*
X264715625Y-66040000D03*
D31*
X265477625Y-71120000D03*
D34*
X255825625Y-68580000D03*
X262175625Y-71120000D03*
%TD*%
D31*
%TO.C,SW29*%
X47763125Y-87630000D03*
D32*
X49768125Y-85090000D03*
D33*
X54848125Y-85090000D03*
D32*
X59928125Y-85090000D03*
D31*
X60690125Y-90170000D03*
D34*
X51038125Y-87630000D03*
X57388125Y-90170000D03*
%TD*%
D31*
%TO.C,SW52*%
X152538125Y-125730000D03*
D32*
X154543125Y-123190000D03*
D33*
X159623125Y-123190000D03*
D32*
X164703125Y-123190000D03*
D31*
X165465125Y-128270000D03*
D34*
X155813125Y-125730000D03*
X162163125Y-128270000D03*
%TD*%
D31*
%TO.C,SW30*%
X23950625Y-87630000D03*
D32*
X25955625Y-85090000D03*
D33*
X31035625Y-85090000D03*
D32*
X36115625Y-85090000D03*
D31*
X36877625Y-90170000D03*
D34*
X27225625Y-87630000D03*
X33575625Y-90170000D03*
%TD*%
D31*
%TO.C,SW46*%
X266838125Y-125730000D03*
D32*
X268843125Y-123190000D03*
D33*
X273923125Y-123190000D03*
D32*
X279003125Y-123190000D03*
D31*
X279765125Y-128270000D03*
D34*
X270113125Y-125730000D03*
X276463125Y-128270000D03*
%TD*%
D31*
%TO.C,SW8*%
X195400625Y-68580000D03*
D32*
X197405625Y-66040000D03*
D33*
X202485625Y-66040000D03*
D32*
X207565625Y-66040000D03*
D31*
X208327625Y-71120000D03*
D34*
X198675625Y-68580000D03*
X205025625Y-71120000D03*
%TD*%
D31*
%TO.C,SW6*%
X233500625Y-68580000D03*
D32*
X235505625Y-66040000D03*
D33*
X240585625Y-66040000D03*
D32*
X245665625Y-66040000D03*
D31*
X246427625Y-71120000D03*
D34*
X236775625Y-68580000D03*
X243125625Y-71120000D03*
%TD*%
D31*
%TO.C,SW59*%
X307319375Y-144780000D03*
D32*
X309324375Y-142240000D03*
D33*
X314404375Y-142240000D03*
D32*
X319484375Y-142240000D03*
D31*
X320246375Y-147320000D03*
D34*
X310594375Y-144780000D03*
X316944375Y-147320000D03*
%TD*%
D31*
%TO.C,SW33*%
X257313125Y-106680000D03*
D32*
X259318125Y-104140000D03*
D33*
X264398125Y-104140000D03*
D32*
X269478125Y-104140000D03*
D31*
X270240125Y-109220000D03*
D34*
X260588125Y-106680000D03*
X266938125Y-109220000D03*
%TD*%
D31*
%TO.C,SW21*%
X204925625Y-87630000D03*
D32*
X206930625Y-85090000D03*
D33*
X212010625Y-85090000D03*
D32*
X217090625Y-85090000D03*
D31*
X217852625Y-90170000D03*
D34*
X208200625Y-87630000D03*
X214550625Y-90170000D03*
%TD*%
M02*
