M48
; DRILL file {KiCad 7.0.6} date Mon Mar 18 14:57:46 2024
; FORMAT={-:-/ absolute / inch / decimal}
; #@! TF.CreationDate,2024-03-18T14:57:46-04:00
; #@! TF.GenerationSoftware,Kicad,Pcbnew,7.0.6
; #@! TF.FileFunction,Plated,1,2,PTH
FMAT,2
INCH
; #@! TA.AperFunction,Plated,PTH,ViaDrill
T1C0.0157
; #@! TA.AperFunction,Plated,PTH,ComponentDrill
T2C0.0157
; #@! TA.AperFunction,Plated,PTH,ComponentDrill
T3C0.0236
; #@! TA.AperFunction,Plated,PTH,ComponentDrill
T4C0.0394
; #@! TA.AperFunction,Plated,PTH,ComponentDrill
T5C0.0591
; #@! TA.AperFunction,Plated,PTH,ComponentDrill
T6C0.1201
%
G90
G05
T1
X0.9291Y-3.1811
X0.9291Y-3.9252
X0.9291Y-4.6811
X0.9921Y-5.3819
X1.3661Y-3.2559
X1.4016Y-4.5748
X1.4062Y-3.0276
X1.4213Y-3.122
X1.4531Y-2.4375
X1.4916Y-2.3663
X1.5506Y-2.4844
X1.5984Y-5.2244
X1.6142Y-3.3228
X1.6142Y-3.8307
X1.6294Y-2.3663
X1.6299Y-4.7559
X1.6339Y-4.0636
X1.6786Y-2.7207
X1.7337Y-2.4602
X1.7337Y-2.8146
X1.777Y-2.4057
X1.777Y-2.7108
X1.7874Y-3.3386
X1.7913Y-5.4921
X1.879Y-4.7489
X1.8843Y-2.76
X1.9236Y-2.76
X1.965Y-2.76
X2.0059Y-2.5866
X2.0354Y-2.4331
X2.0427Y-2.9766
X2.0551Y-3.2362
X2.0787Y-2.7953
X2.1235Y-2.8959
X2.189Y-4.6299
X2.3346Y-4.0
X2.3504Y-5.0591
X2.3661Y-3.1299
X2.4134Y-5.5073
X2.5546Y-2.3663
X2.6496Y-3.8858
X2.838Y-5.1842
X2.9134Y-4.748
X2.9921Y-3.2441
X3.0172Y-3.6784
X3.0172Y-3.7689
X3.1457Y-5.5039
X3.2126Y-4.6378
X3.2913Y-3.1339
X3.3504Y-2.4921
X3.4331Y-4.9134
X3.4544Y-5.8849
X3.4843Y-5.9134
X3.5394Y-4.0039
X3.6811Y-2.378
X3.7047Y-4.752
X3.7402Y-3.248
X3.8661Y-3.8858
X3.903Y-5.2138
X3.903Y-5.3043
X4.0512Y-3.1339
X4.0906Y-2.5
X4.0906Y-5.4961
X4.2638Y-4.6142
X4.2992Y-4.0
X4.4331Y-2.3819
X4.4724Y-4.7529
X4.4882Y-3.248
X4.5984Y-5.7795
X4.6063Y-5.3386
X4.6102Y-3.8701
X4.6496Y-5.5039
X4.6609Y-5.2138
X4.6609Y-5.3043
X4.8031Y-3.1339
X4.9921Y-4.6181
X5.0433Y-3.9961
X5.2244Y-4.752
X5.2441Y-3.2362
X5.3543Y-3.878
X5.4252Y-4.7441
X5.563Y-3.1339
X5.5827Y-2.4921
X5.748Y-4.6299
X5.7992Y-4.0
X5.8223Y-5.2019
X5.9213Y-2.3858
X5.9724Y-4.7402
X5.9882Y-3.2441
X6.0276Y-5.8425
X6.1142Y-3.8898
X6.1569Y-5.2019
X6.1686Y-4.7284
X6.2953Y-3.1299
X6.3346Y-2.4961
X6.437Y-5.599
X6.4567Y-5.4711
X6.4724Y-4.6378
X6.5236Y-5.7717
X6.5472Y-4.0
X6.6142Y-5.4711
X6.6142Y-5.599
X6.6693Y-2.3858
X6.7126Y-5.6299
X6.7205Y-5.4409
X6.7244Y-4.752
X6.7402Y-3.248
X6.7559Y-5.7717
X6.8504Y-5.4528
X6.8557Y-5.7325
X6.8701Y-3.878
X6.8754Y-5.5947
X6.9094Y-5.8047
X6.9252Y-4.748
X6.9936Y-5.8332
X7.0248Y-5.8644
X7.0512Y-3.126
X7.0526Y-5.8923
X7.0945Y-2.4921
X7.1462Y-5.8578
X7.15Y-5.8186
X7.1901Y-5.8851
X7.2165Y-4.6063
X7.2717Y-5.6024
X7.2992Y-4.0
X7.3701Y-5.5039
X7.374Y-5.3465
X7.374Y-5.5472
X7.4213Y-2.3819
X7.4961Y-3.248
X7.5121Y-5.4672
X7.5121Y-5.5065
X7.5691Y-5.4672
X7.5691Y-5.5065
X7.6233Y-5.2197
X7.6344Y-5.08
X7.6406Y-5.8125
X7.6457Y-3.8898
X7.6627Y-5.2019
X7.6969Y-4.7451
X7.7012Y-5.1872
X7.8031Y-3.1339
X7.8269Y-5.2322
X7.8281Y-5.6719
X7.8425Y-2.4961
X7.8745Y-5.2374
X8.0039Y-4.6339
X8.0156Y-5.7656
X8.0551Y-4.0039
X8.0703Y-5.5474
X8.1648Y-5.5022
X8.1772Y-5.8445
X8.189Y-2.3819
X8.1897Y-5.7072
X8.2205Y-4.7451
X8.2402Y-3.248
X8.2835Y-5.4213
X8.3425Y-3.8858
X8.3459Y-5.8959
X8.3602Y-5.7795
X8.401Y-5.8585
X8.4252Y-4.7323
X8.4443Y-5.7957
X8.4626Y-5.5335
X8.4797Y-5.9028
X8.4823Y-5.7028
X8.5556Y-5.7957
X8.5591Y-3.1339
X8.5945Y-2.4921
X8.6052Y-5.7748
X8.6817Y-5.5448
X8.6835Y-5.8673
X8.6884Y-5.704
X8.7043Y-5.8321
X8.7187Y-5.5289
X8.7323Y-4.6299
X8.7511Y-5.8673
X8.7762Y-5.4674
X8.8031Y-4.0
X8.8279Y-5.1682
X8.8441Y-5.8674
X8.852Y-5.4673
X8.8632Y-5.1967
X8.8931Y-5.8851
X8.9079Y-5.478
X8.9089Y-5.6787
X8.9128Y-5.3486
X8.9213Y-2.3701
X8.9485Y-5.4129
X8.9544Y-5.8759
X8.9646Y-4.749
X8.9872Y-5.393
X8.9927Y-5.8851
X8.9961Y-3.248
X9.0073Y-5.3286
X9.0233Y-5.4606
X9.1104Y-5.8844
X9.122Y-3.8898
X9.1358Y-5.4764
X9.1426Y-5.7387
X9.1811Y-4.748
X9.1903Y-5.8851
X9.2081Y-5.6183
X9.276Y-5.5553
X9.294Y-5.8851
X9.3031Y-3.1378
X9.3173Y-5.5553
X9.3307Y-2.4921
X9.3744Y-5.8093
X9.3813Y-5.5632
X9.4392Y-5.7195
X9.4961Y-4.6378
X9.5423Y-5.6414
X9.5433Y-3.9961
X9.568Y-5.6117
X9.6046Y-5.6597
X9.6063Y-4.6063
X9.6648Y-5.4963
X9.6654Y-2.378
X9.6727Y-5.6459
X9.7283Y-4.7529
X9.748Y-3.252
X9.7868Y-5.5199
X9.811Y-5.3661
X9.8301Y-5.8023
X9.8341Y-5.9096
X9.8504Y-3.8819
X9.9055Y-5.3661
X9.9488Y-4.7529
X10.0512Y-3.1339
X10.0748Y-5.5827
X10.0945Y-2.4961
X10.1457Y-5.3189
X10.1496Y-5.4803
X10.2323Y-4.6339
X10.2537Y-5.7994
X10.3031Y-3.9961
X10.3504Y-4.6024
X10.437Y-2.378
X10.4764Y-4.7529
X10.4843Y-3.2441
X10.6102Y-3.8898
X10.6928Y-4.7487
X10.8189Y-3.1339
X10.8465Y-2.4921
X10.9961Y-4.6457
X11.0512Y-4.0039
X11.1693Y-2.3858
X11.2402Y-3.248
X11.3307Y-5.5
X11.3622Y-3.8858
X11.5315Y-4.937
X11.563Y-3.126
X11.5866Y-2.4961
X11.6457Y-5.374
X11.689Y-5.2362
X11.8661Y-3.5315
X11.9089Y-5.8112
X11.9345Y-2.3663
X12.0906Y-3.9882
X12.1018Y-2.3073
X12.1018Y-2.9569
X12.124Y-4.4872
X12.185Y-3.2362
X12.1969Y-4.6063
X12.2992Y-4.5157
X12.3504Y-2.4921
X12.3937Y-3.8583
X12.437Y-3.0472
X12.4606Y-4.7244
X12.5551Y-5.4724
X12.5787Y-5.3622
X12.6772Y-5.2283
X12.689Y-4.4764
X12.6969Y-2.3701
X12.7165Y-3.7244
X12.7238Y-2.9766
X12.7357Y-2.453
X12.7829Y-2.7325
T2
X1.6156Y-2.4051
X1.6156Y-2.4406
X1.6156Y-2.476
X1.6156Y-2.5114
X1.6156Y-2.5469
X1.6156Y-2.5823
X1.6156Y-2.6177
X1.6463Y-2.4228
X1.6463Y-2.4583
X1.6463Y-2.4937
X1.6463Y-2.5291
X1.6463Y-2.5646
X1.6463Y-2.6
X1.6463Y-2.6354
T4
X1.1175Y-2.2876
X1.1175Y-2.8585
X1.216Y-2.2876
X1.3144Y-2.2876
X1.3144Y-2.8585
X6.3105Y-5.953
X6.4105Y-5.953
X6.5105Y-5.953
X6.6105Y-5.953
X6.7105Y-5.953
X6.8105Y-5.953
T6
X1.0719Y-3.45
X1.0719Y-4.2
X1.0719Y-4.95
X1.0719Y-5.7
X1.3219Y-3.55
X1.3219Y-4.3
X1.3219Y-5.05
X1.3219Y-5.8
X1.8219Y-4.95
X1.8219Y-5.7
X2.0094Y-3.45
X2.0719Y-5.05
X2.0719Y-5.8
X2.1979Y-2.7
X2.2594Y-3.55
X2.2906Y-4.2
X2.4479Y-2.8
X2.5406Y-4.3
X2.5719Y-5.7
X2.8219Y-5.8
X2.8531Y-4.95
X2.9469Y-3.45
X3.1031Y-5.05
X3.1969Y-3.55
X3.3219Y-2.7
X3.3219Y-5.7
X3.5094Y-4.2
X3.5719Y-2.8
X3.5719Y-5.8
X3.6969Y-3.45
X3.7594Y-4.3
X3.8844Y-4.95
X3.9469Y-3.55
X4.0719Y-2.7
X4.0719Y-5.7
X4.1344Y-5.05
X4.2594Y-4.2
X4.3219Y-2.8
X4.3219Y-5.8
X4.4469Y-3.45
X4.5094Y-4.3
X4.6344Y-4.95
X4.6969Y-3.55
X4.8219Y-2.7
X4.8219Y-5.7
X4.8844Y-5.05
X5.0094Y-4.2
X5.0719Y-2.8
X5.0719Y-5.8
X5.1969Y-3.45
X5.2594Y-4.3
X5.3844Y-4.95
X5.4469Y-3.55
X5.5719Y-2.7
X5.6344Y-5.05
X5.7594Y-4.2
X5.8219Y-2.8
X5.9469Y-3.45
X6.0094Y-4.3
X6.1344Y-4.95
X6.1969Y-3.55
X6.3219Y-2.7
X6.3844Y-5.05
X6.5094Y-4.2
X6.5719Y-2.8
X6.6969Y-3.45
X6.7594Y-4.3
X6.8844Y-4.95
X6.9469Y-3.55
X7.0719Y-2.7
X7.1344Y-5.05
X7.2594Y-4.2
X7.3219Y-2.8
X7.4469Y-3.45
X7.5094Y-4.3
X7.5406Y-5.7
X7.6344Y-4.95
X7.6969Y-3.55
X7.7906Y-5.8
X7.8219Y-2.7
X7.8844Y-5.05
X8.0094Y-4.2
X8.0719Y-2.8
X8.1969Y-3.45
X8.2594Y-4.3
X8.3844Y-4.95
X8.4469Y-3.55
X8.5719Y-2.7
X8.6344Y-5.05
X8.7594Y-4.2
X8.8219Y-2.8
X8.9469Y-3.45
X9.0094Y-4.3
X9.1344Y-4.95
X9.1969Y-3.55
X9.3219Y-2.7
X9.3844Y-5.05
X9.5094Y-4.2
X9.5719Y-2.8
X9.6969Y-3.45
X9.7594Y-4.3
X9.8844Y-4.95
X9.9469Y-3.55
X10.0719Y-2.7
X10.1344Y-5.05
X10.2594Y-4.2
X10.3219Y-2.8
X10.3531Y-5.7
X10.4469Y-3.45
X10.5094Y-4.3
X10.6031Y-5.8
X10.6344Y-4.95
X10.6969Y-3.55
X10.8219Y-2.7
X10.8844Y-5.05
X11.0094Y-4.2
X11.0719Y-2.8
X11.1969Y-3.45
X11.2594Y-4.3
X11.2906Y-5.7
X11.4469Y-3.55
X11.5406Y-5.8
X11.5719Y-2.7
X11.8219Y-2.8
X11.8531Y-4.95
X12.0406Y-4.2
X12.1031Y-5.05
X12.1344Y-3.45
X12.2281Y-5.7
X12.2906Y-4.3
X12.3219Y-2.7
X12.3844Y-3.55
X12.4781Y-5.8
X12.5719Y-2.8
T3
G00X1.5746Y-2.4445
M15
G01X1.5746Y-2.4051
M16
G05
G00X1.5746Y-2.6335
M15
G01X1.5746Y-2.5941
M16
G05
G00X1.6872Y-2.4445
M15
G01X1.6872Y-2.4051
M16
G05
G00X1.6872Y-2.6335
M15
G01X1.6872Y-2.5941
M16
G05
T5
G00X0.9955Y-2.5573
M15
G01X0.9955Y-2.6085
M16
G05
G00X1.4364Y-2.5573
M15
G01X1.4364Y-2.6085
M16
G05
T0
M30
