%TF.GenerationSoftware,KiCad,Pcbnew,7.0.6*%
%TF.CreationDate,2024-03-18T14:57:41-04:00*%
%TF.ProjectId,Loadstar_70,4c6f6164-7374-4617-925f-37302e6b6963,rev?*%
%TF.SameCoordinates,Original*%
%TF.FileFunction,Profile,NP*%
%FSLAX46Y46*%
G04 Gerber Fmt 4.6, Leading zero omitted, Abs format (unit mm)*
G04 Created by KiCad (PCBNEW 7.0.6) date 2024-03-18 14:57:41*
%MOMM*%
%LPD*%
G01*
G04 APERTURE LIST*
%TA.AperFunction,Profile*%
%ADD10C,0.100000*%
%TD*%
%TA.AperFunction,Profile*%
%ADD11C,0.025400*%
%TD*%
G04 APERTURE END LIST*
D10*
X326360625Y-56965000D02*
X326360625Y-152165000D01*
X325860625Y-152665000D02*
X21860625Y-152665000D01*
X21860625Y-56465000D02*
X325860625Y-56465000D01*
X21360625Y-152165000D02*
X21360625Y-56965000D01*
X21860625Y-56465025D02*
G75*
G03*
X21360625Y-56965000I-25J-499975D01*
G01*
X325860625Y-152665025D02*
G75*
G03*
X326360625Y-152165000I-25J500025D01*
G01*
X326360600Y-56965000D02*
G75*
G03*
X325860625Y-56465000I-500000J0D01*
G01*
X21360600Y-152165000D02*
G75*
G03*
X21860625Y-152665000I500000J0D01*
G01*
D11*
%TO.C,LED25*%
X134292975Y-78501875D02*
X134292975Y-81295875D01*
X134292975Y-78501875D02*
X137493375Y-78501875D01*
X134292975Y-81295875D02*
X137493375Y-81295875D01*
X137493375Y-81295875D02*
X137493375Y-78501875D01*
%TO.C,LED54*%
X119884825Y-116601875D02*
X119884825Y-119395875D01*
X119884825Y-116601875D02*
X123085225Y-116601875D01*
X119884825Y-119395875D02*
X123085225Y-119395875D01*
X123085225Y-119395875D02*
X123085225Y-116601875D01*
%TO.C,LED40*%
X129409825Y-97551875D02*
X129409825Y-100345875D01*
X129409825Y-97551875D02*
X132610225Y-97551875D01*
X129409825Y-100345875D02*
X132610225Y-100345875D01*
X132610225Y-100345875D02*
X132610225Y-97551875D01*
%TO.C,LED18*%
X267642975Y-78501875D02*
X267642975Y-81295875D01*
X267642975Y-78501875D02*
X270843375Y-78501875D01*
X267642975Y-81295875D02*
X270843375Y-81295875D01*
X270843375Y-81295875D02*
X270843375Y-78501875D01*
%TO.C,LED8*%
X181797325Y-59451875D02*
X181797325Y-62245875D01*
X181797325Y-59451875D02*
X184997725Y-59451875D01*
X181797325Y-62245875D02*
X184997725Y-62245875D01*
X184997725Y-62245875D02*
X184997725Y-59451875D01*
%TO.C,LED11*%
X124901325Y-59451875D02*
X124901325Y-62245875D01*
X124901325Y-59451875D02*
X128101725Y-59451875D01*
X124901325Y-62245875D02*
X128101725Y-62245875D01*
X128101725Y-62245875D02*
X128101725Y-59451875D01*
%TO.C,LED30*%
X29397325Y-78501875D02*
X29397325Y-81295875D01*
X29397325Y-78501875D02*
X32597725Y-78501875D01*
X29397325Y-81295875D02*
X32597725Y-81295875D01*
X32597725Y-81295875D02*
X32597725Y-78501875D01*
%TO.C,LED42*%
X91309825Y-97551875D02*
X91309825Y-100345875D01*
X91309825Y-97551875D02*
X94510225Y-97551875D01*
X91309825Y-100345875D02*
X94510225Y-100345875D01*
X94510225Y-100345875D02*
X94510225Y-97551875D01*
%TO.C,LED17*%
X286692975Y-78501875D02*
X286692975Y-81295875D01*
X286692975Y-78501875D02*
X289893375Y-78501875D01*
X286692975Y-81295875D02*
X289893375Y-81295875D01*
X289893375Y-81295875D02*
X289893375Y-78501875D01*
%TO.C,LED65*%
X86547325Y-135651875D02*
X86547325Y-138445875D01*
X86547325Y-135651875D02*
X89747725Y-135651875D01*
X86547325Y-138445875D02*
X89747725Y-138445875D01*
X89747725Y-138445875D02*
X89747725Y-135651875D01*
%TO.C,LED56*%
X74641075Y-116601875D02*
X74641075Y-119395875D01*
X74641075Y-116601875D02*
X77841475Y-116601875D01*
X74641075Y-119395875D02*
X77841475Y-119395875D01*
X77841475Y-119395875D02*
X77841475Y-116601875D01*
%TO.C,LED23*%
X172392975Y-78501875D02*
X172392975Y-81295875D01*
X172392975Y-78501875D02*
X175593375Y-78501875D01*
X172392975Y-81295875D02*
X175593375Y-81295875D01*
X175593375Y-81295875D02*
X175593375Y-78501875D01*
%TO.C,LED28*%
X77022325Y-78501875D02*
X77022325Y-81295875D01*
X77022325Y-78501875D02*
X80222725Y-78501875D01*
X77022325Y-81295875D02*
X80222725Y-81295875D01*
X80222725Y-81295875D02*
X80222725Y-78501875D01*
%TO.C,LED60*%
X288953575Y-135651875D02*
X288953575Y-138445875D01*
X288953575Y-135651875D02*
X292153975Y-135651875D01*
X288953575Y-138445875D02*
X292153975Y-138445875D01*
X292153975Y-138445875D02*
X292153975Y-135651875D01*
%TO.C,LED2*%
X296097325Y-59451875D02*
X296097325Y-62245875D01*
X296097325Y-59451875D02*
X299297725Y-59451875D01*
X296097325Y-62245875D02*
X299297725Y-62245875D01*
X299297725Y-62245875D02*
X299297725Y-59451875D01*
%TO.C,LED37*%
X186559825Y-97551875D02*
X186559825Y-100345875D01*
X186559825Y-97551875D02*
X189760225Y-97551875D01*
X186559825Y-100345875D02*
X189760225Y-100345875D01*
X189760225Y-100345875D02*
X189760225Y-97551875D01*
%TO.C,LED38*%
X167509825Y-97551875D02*
X167509825Y-100345875D01*
X167509825Y-97551875D02*
X170710225Y-97551875D01*
X167509825Y-100345875D02*
X170710225Y-100345875D01*
X170710225Y-100345875D02*
X170710225Y-97551875D01*
%TO.C,LED27*%
X96072325Y-78501875D02*
X96072325Y-81295875D01*
X96072325Y-78501875D02*
X99272725Y-78501875D01*
X96072325Y-81295875D02*
X99272725Y-81295875D01*
X99272725Y-81295875D02*
X99272725Y-78501875D01*
%TO.C,LED57*%
X48447325Y-116601875D02*
X48447325Y-119395875D01*
X48447325Y-116601875D02*
X51647725Y-116601875D01*
X48447325Y-119395875D02*
X51647725Y-119395875D01*
X51647725Y-119395875D02*
X51647725Y-116601875D01*
%TO.C,LED59*%
X312886725Y-135651875D02*
X312886725Y-138445875D01*
X312886725Y-135651875D02*
X316087125Y-135651875D01*
X312886725Y-138445875D02*
X316087125Y-138445875D01*
X316087125Y-138445875D02*
X316087125Y-135651875D01*
%TO.C,LED16*%
X310505475Y-78501875D02*
X310505475Y-81295875D01*
X310505475Y-78501875D02*
X313705875Y-78501875D01*
X310505475Y-81295875D02*
X313705875Y-81295875D01*
X313705875Y-81295875D02*
X313705875Y-78501875D01*
%TO.C,LED46*%
X272284825Y-116601875D02*
X272284825Y-119395875D01*
X272284825Y-116601875D02*
X275485225Y-116601875D01*
X272284825Y-119395875D02*
X275485225Y-119395875D01*
X275485225Y-119395875D02*
X275485225Y-116601875D01*
%TO.C,LED64*%
X105597325Y-135651875D02*
X105597325Y-138445875D01*
X105597325Y-135651875D02*
X108797725Y-135651875D01*
X105597325Y-138445875D02*
X108797725Y-138445875D01*
X108797725Y-138445875D02*
X108797725Y-135651875D01*
%TO.C,LED52*%
X157984825Y-116601875D02*
X157984825Y-119395875D01*
X157984825Y-116601875D02*
X161185225Y-116601875D01*
X157984825Y-119395875D02*
X161185225Y-119395875D01*
X161185225Y-119395875D02*
X161185225Y-116601875D01*
%TO.C,LED31*%
X308003575Y-97551875D02*
X308003575Y-100345875D01*
X308003575Y-97551875D02*
X311203975Y-97551875D01*
X308003575Y-100345875D02*
X311203975Y-100345875D01*
X311203975Y-100345875D02*
X311203975Y-97551875D01*
%TO.C,LED21*%
X210492975Y-78501875D02*
X210492975Y-81295875D01*
X210492975Y-78501875D02*
X213693375Y-78501875D01*
X210492975Y-81295875D02*
X213693375Y-81295875D01*
X213693375Y-81295875D02*
X213693375Y-78501875D01*
%TO.C,LED5*%
X238947325Y-59451875D02*
X238947325Y-62245875D01*
X238947325Y-59451875D02*
X242147725Y-59451875D01*
X238947325Y-62245875D02*
X242147725Y-62245875D01*
X242147725Y-62245875D02*
X242147725Y-59451875D01*
%TO.C,LED24*%
X153342975Y-78501875D02*
X153342975Y-81295875D01*
X153342975Y-78501875D02*
X156543375Y-78501875D01*
X153342975Y-81295875D02*
X156543375Y-81295875D01*
X156543375Y-81295875D02*
X156543375Y-78501875D01*
%TO.C,LED35*%
X224659825Y-97551875D02*
X224659825Y-100345875D01*
X224659825Y-97551875D02*
X227860225Y-97551875D01*
X224659825Y-100345875D02*
X227860225Y-100345875D01*
X227860225Y-100345875D02*
X227860225Y-97551875D01*
%TO.C,LED44*%
X29397325Y-97551875D02*
X29397325Y-100345875D01*
X29397325Y-97551875D02*
X32597725Y-97551875D01*
X29397325Y-100345875D02*
X32597725Y-100345875D01*
X32597725Y-100345875D02*
X32597725Y-97551875D01*
%TO.C,LED68*%
X29397325Y-135651875D02*
X29397325Y-138445875D01*
X29397325Y-135651875D02*
X32597725Y-135651875D01*
X29397325Y-138445875D02*
X32597725Y-138445875D01*
X32597725Y-138445875D02*
X32597725Y-135651875D01*
%TO.C,LED43*%
X60353575Y-97551875D02*
X60353575Y-100345875D01*
X60353575Y-97551875D02*
X63553975Y-97551875D01*
X60353575Y-100345875D02*
X63553975Y-100345875D01*
X63553975Y-100345875D02*
X63553975Y-97551875D01*
%TO.C,LED7*%
X200847325Y-59451875D02*
X200847325Y-62245875D01*
X200847325Y-59451875D02*
X204047725Y-59451875D01*
X200847325Y-62245875D02*
X204047725Y-62245875D01*
X204047725Y-62245875D02*
X204047725Y-59451875D01*
%TO.C,LED41*%
X110359825Y-97551875D02*
X110359825Y-100345875D01*
X110359825Y-97551875D02*
X113560225Y-97551875D01*
X110359825Y-100345875D02*
X113560225Y-100345875D01*
X113560225Y-100345875D02*
X113560225Y-97551875D01*
%TO.C,LED48*%
X234184825Y-116601875D02*
X234184825Y-119395875D01*
X234184825Y-116601875D02*
X237385225Y-116601875D01*
X234184825Y-119395875D02*
X237385225Y-119395875D01*
X237385225Y-119395875D02*
X237385225Y-116601875D01*
%TO.C,LED66*%
X67497325Y-135651875D02*
X67497325Y-138445875D01*
X67497325Y-135651875D02*
X70697725Y-135651875D01*
X67497325Y-138445875D02*
X70697725Y-138445875D01*
X70697725Y-138445875D02*
X70697725Y-135651875D01*
%TO.C,LED14*%
X58061225Y-59451875D02*
X58061225Y-62245875D01*
X58061225Y-59451875D02*
X61261625Y-59451875D01*
X58061225Y-62245875D02*
X61261625Y-62245875D01*
X61261625Y-62245875D02*
X61261625Y-59451875D01*
%TO.C,LED3*%
X277047325Y-59451875D02*
X277047325Y-62245875D01*
X277047325Y-59451875D02*
X280247725Y-59451875D01*
X277047325Y-62245875D02*
X280247725Y-62245875D01*
X280247725Y-62245875D02*
X280247725Y-59451875D01*
%TO.C,LED67*%
X48447325Y-135651875D02*
X48447325Y-138445875D01*
X48447325Y-135651875D02*
X51647725Y-135651875D01*
X48447325Y-138445875D02*
X51647725Y-138445875D01*
X51647725Y-138445875D02*
X51647725Y-135651875D01*
%TO.C,LED39*%
X148459825Y-97551875D02*
X148459825Y-100345875D01*
X148459825Y-97551875D02*
X151660225Y-97551875D01*
X148459825Y-100345875D02*
X151660225Y-100345875D01*
X151660225Y-100345875D02*
X151660225Y-97551875D01*
%TO.C,LED1*%
X315147325Y-59451875D02*
X315147325Y-62245875D01*
X315147325Y-59451875D02*
X318347725Y-59451875D01*
X315147325Y-62245875D02*
X318347725Y-62245875D01*
X318347725Y-62245875D02*
X318347725Y-59451875D01*
%TO.C,LED47*%
X253234825Y-116601875D02*
X253234825Y-119395875D01*
X253234825Y-116601875D02*
X256435225Y-116601875D01*
X253234825Y-119395875D02*
X256435225Y-119395875D01*
X256435225Y-119395875D02*
X256435225Y-116601875D01*
%TO.C,LED50*%
X196205475Y-116601875D02*
X196205475Y-119395875D01*
X196205475Y-116601875D02*
X199405875Y-116601875D01*
X196205475Y-119395875D02*
X199405875Y-119395875D01*
X199405875Y-119395875D02*
X199405875Y-116601875D01*
%TO.C,LED45*%
X303241075Y-116601875D02*
X303241075Y-119395875D01*
X303241075Y-116601875D02*
X306441475Y-116601875D01*
X303241075Y-119395875D02*
X306441475Y-119395875D01*
X306441475Y-119395875D02*
X306441475Y-116601875D01*
%TO.C,LED20*%
X229542975Y-78501875D02*
X229542975Y-81295875D01*
X229542975Y-78501875D02*
X232743375Y-78501875D01*
X229542975Y-81295875D02*
X232743375Y-81295875D01*
X232743375Y-81295875D02*
X232743375Y-78501875D01*
%TO.C,LED63*%
X124647325Y-135651875D02*
X124647325Y-138445875D01*
X124647325Y-135651875D02*
X127847725Y-135651875D01*
X124647325Y-138445875D02*
X127847725Y-138445875D01*
X127847725Y-138445875D02*
X127847725Y-135651875D01*
%TO.C,LED4*%
X257997325Y-59451875D02*
X257997325Y-62245875D01*
X257997325Y-59451875D02*
X261197725Y-59451875D01*
X257997325Y-62245875D02*
X261197725Y-62245875D01*
X261197725Y-62245875D02*
X261197725Y-59451875D01*
%TO.C,LED49*%
X215134825Y-116601875D02*
X215134825Y-119395875D01*
X215134825Y-116601875D02*
X218335225Y-116601875D01*
X215134825Y-119395875D02*
X218335225Y-119395875D01*
X218335225Y-119395875D02*
X218335225Y-116601875D01*
%TO.C,LED26*%
X115122325Y-78501875D02*
X115122325Y-81295875D01*
X115122325Y-78501875D02*
X118322725Y-78501875D01*
X115122325Y-81295875D02*
X118322725Y-81295875D01*
X118322725Y-81295875D02*
X118322725Y-78501875D01*
%TO.C,LED55*%
X100834825Y-116601875D02*
X100834825Y-119395875D01*
X100834825Y-116601875D02*
X104035225Y-116601875D01*
X100834825Y-119395875D02*
X104035225Y-119395875D01*
X104035225Y-119395875D02*
X104035225Y-116601875D01*
%TO.C,LED10*%
X143697325Y-59451875D02*
X143697325Y-62245875D01*
X143697325Y-59451875D02*
X146897725Y-59451875D01*
X143697325Y-62245875D02*
X146897725Y-62245875D01*
X146897725Y-62245875D02*
X146897725Y-59451875D01*
%TO.C,LED62*%
X193703575Y-135651875D02*
X193703575Y-138445875D01*
X193703575Y-135651875D02*
X196903975Y-135651875D01*
X193703575Y-138445875D02*
X196903975Y-138445875D01*
X196903975Y-138445875D02*
X196903975Y-135651875D01*
%TO.C,LED6*%
X219897325Y-59451875D02*
X219897325Y-62245875D01*
X219897325Y-59451875D02*
X223097725Y-59451875D01*
X219897325Y-62245875D02*
X223097725Y-62245875D01*
X223097725Y-62245875D02*
X223097725Y-59451875D01*
%TO.C,LED13*%
X86642575Y-59451875D02*
X86642575Y-62245875D01*
X86642575Y-59451875D02*
X89842975Y-59451875D01*
X86642575Y-62245875D02*
X89842975Y-62245875D01*
X89842975Y-62245875D02*
X89842975Y-59451875D01*
%TO.C,LED29*%
X53209825Y-78501875D02*
X53209825Y-81295875D01*
X53209825Y-78501875D02*
X56410225Y-78501875D01*
X53209825Y-81295875D02*
X56410225Y-81295875D01*
X56410225Y-81295875D02*
X56410225Y-78501875D01*
%TO.C,LED12*%
X105597325Y-59451875D02*
X105597325Y-62245875D01*
X105597325Y-59451875D02*
X108797725Y-59451875D01*
X105597325Y-62245875D02*
X108797725Y-62245875D01*
X108797725Y-62245875D02*
X108797725Y-59451875D01*
%TO.C,LED9*%
X162747325Y-59451875D02*
X162747325Y-62245875D01*
X162747325Y-59451875D02*
X165947725Y-59451875D01*
X162747325Y-62245875D02*
X165947725Y-62245875D01*
X165947725Y-62245875D02*
X165947725Y-59451875D01*
%TO.C,LED61*%
X265141075Y-135651875D02*
X265141075Y-138445875D01*
X265141075Y-135651875D02*
X268341475Y-135651875D01*
X265141075Y-138445875D02*
X268341475Y-138445875D01*
X268341475Y-138445875D02*
X268341475Y-135651875D01*
%TO.C,LED51*%
X177034825Y-116601875D02*
X177034825Y-119395875D01*
X177034825Y-116601875D02*
X180235225Y-116601875D01*
X177034825Y-119395875D02*
X180235225Y-119395875D01*
X180235225Y-119395875D02*
X180235225Y-116601875D01*
%TO.C,LED58*%
X29397325Y-116601875D02*
X29397325Y-119395875D01*
X29397325Y-116601875D02*
X32597725Y-116601875D01*
X29397325Y-119395875D02*
X32597725Y-119395875D01*
X32597725Y-119395875D02*
X32597725Y-116601875D01*
%TO.C,LED53*%
X138934825Y-116601875D02*
X138934825Y-119395875D01*
X138934825Y-116601875D02*
X142135225Y-116601875D01*
X138934825Y-119395875D02*
X142135225Y-119395875D01*
X142135225Y-119395875D02*
X142135225Y-116601875D01*
%TO.C,LED36*%
X205609825Y-97551875D02*
X205609825Y-100345875D01*
X205609825Y-97551875D02*
X208810225Y-97551875D01*
X205609825Y-100345875D02*
X208810225Y-100345875D01*
X208810225Y-100345875D02*
X208810225Y-97551875D01*
%TO.C,LED32*%
X281809825Y-97551875D02*
X281809825Y-100345875D01*
X281809825Y-97551875D02*
X285010225Y-97551875D01*
X281809825Y-100345875D02*
X285010225Y-100345875D01*
X285010225Y-100345875D02*
X285010225Y-97551875D01*
%TO.C,LED19*%
X248592975Y-78501875D02*
X248592975Y-81295875D01*
X248592975Y-78501875D02*
X251793375Y-78501875D01*
X248592975Y-81295875D02*
X251793375Y-81295875D01*
X251793375Y-81295875D02*
X251793375Y-78501875D01*
%TO.C,LED34*%
X243709825Y-97551875D02*
X243709825Y-100345875D01*
X243709825Y-97551875D02*
X246910225Y-97551875D01*
X243709825Y-100345875D02*
X246910225Y-100345875D01*
X246910225Y-100345875D02*
X246910225Y-97551875D01*
%TO.C,LED33*%
X262759825Y-97551875D02*
X262759825Y-100345875D01*
X262759825Y-97551875D02*
X265960225Y-97551875D01*
X262759825Y-100345875D02*
X265960225Y-100345875D01*
X265960225Y-100345875D02*
X265960225Y-97551875D01*
%TO.C,LED22*%
X191442975Y-78501875D02*
X191442975Y-81295875D01*
X191442975Y-78501875D02*
X194643375Y-78501875D01*
X191442975Y-81295875D02*
X194643375Y-81295875D01*
X194643375Y-81295875D02*
X194643375Y-78501875D01*
%TD*%
M02*
