%TF.GenerationSoftware,KiCad,Pcbnew,7.0.6*%
%TF.CreationDate,2024-03-18T14:57:49-04:00*%
%TF.ProjectId,Loadstar_70,4c6f6164-7374-4617-925f-37302e6b6963,rev?*%
%TF.SameCoordinates,Original*%
%TF.FileFunction,Drillmap*%
%TF.FilePolarity,Positive*%
%FSLAX45Y45*%
G04 Gerber Fmt 4.5, Leading zero omitted, Abs format (unit mm)*
G04 Created by KiCad (PCBNEW 7.0.6) date 2024-03-18 14:57:49*
%MOMM*%
%LPD*%
G01*
G04 APERTURE LIST*
%ADD10C,0.100000*%
%ADD11C,0.200000*%
%ADD12C,0.175000*%
%ADD13C,0.304800*%
%ADD14C,0.320000*%
%ADD15C,0.398780*%
%ADD16C,0.400000*%
G04 APERTURE END LIST*
D10*
X32636062Y-5696500D02*
X32636062Y-15216500D01*
X32586062Y-15266500D02*
X2186063Y-15266500D01*
X2186063Y-5646500D02*
X32586062Y-5646500D01*
X2136063Y-15216500D02*
X2136063Y-5696500D01*
X2186063Y-5646502D02*
G75*
G03*
X2136063Y-5696500I-3J-49998D01*
G01*
X32586062Y-15266502D02*
G75*
G03*
X32636062Y-15216500I-3J50003D01*
G01*
X32636060Y-5696500D02*
G75*
G03*
X32586062Y-5646500I-50000J0D01*
G01*
X2136060Y-15216500D02*
G75*
G03*
X2186063Y-15266500I50000J0D01*
G01*
D11*
D12*
X2508063Y-8421500D02*
X2683063Y-8596500D01*
X2683063Y-8421500D02*
X2508063Y-8596500D01*
X2508063Y-10326500D02*
X2683063Y-10501500D01*
X2683063Y-10326500D02*
X2508063Y-10501500D01*
X2508063Y-12231500D02*
X2683063Y-12406500D01*
X2683063Y-12231500D02*
X2508063Y-12406500D01*
X2508063Y-14136500D02*
X2683063Y-14311500D01*
X2683063Y-14136500D02*
X2508063Y-14311500D01*
X3524062Y-8421500D02*
X3699062Y-8596500D01*
X3699062Y-8421500D02*
X3524062Y-8596500D01*
X3524062Y-10326500D02*
X3699062Y-10501500D01*
X3699062Y-10326500D02*
X3524062Y-10501500D01*
X3524062Y-12231500D02*
X3699062Y-12406500D01*
X3699062Y-12231500D02*
X3524062Y-12406500D01*
X3524062Y-14136500D02*
X3699062Y-14311500D01*
X3699062Y-14136500D02*
X3524062Y-14311500D01*
X4413063Y-12231500D02*
X4588063Y-12406500D01*
X4588063Y-12231500D02*
X4413063Y-12406500D01*
X4413063Y-14136500D02*
X4588063Y-14311500D01*
X4588063Y-14136500D02*
X4413063Y-14311500D01*
X4889313Y-8421500D02*
X5064313Y-8596500D01*
X5064313Y-8421500D02*
X4889313Y-8596500D01*
X5368103Y-6516500D02*
X5543103Y-6691500D01*
X5543103Y-6516500D02*
X5368103Y-6691500D01*
X5429063Y-12231500D02*
X5604062Y-12406500D01*
X5604062Y-12231500D02*
X5429063Y-12406500D01*
X5429063Y-14136500D02*
X5604062Y-14311500D01*
X5604062Y-14136500D02*
X5429063Y-14311500D01*
X5603687Y-10326500D02*
X5778687Y-10501500D01*
X5778687Y-10326500D02*
X5603687Y-10501500D01*
X5905312Y-8421500D02*
X6080312Y-8596500D01*
X6080312Y-8421500D02*
X5905312Y-8596500D01*
X6318062Y-14136500D02*
X6493062Y-14311500D01*
X6493062Y-14136500D02*
X6318062Y-14311500D01*
X6384102Y-6516500D02*
X6559102Y-6691500D01*
X6559102Y-6516500D02*
X6384102Y-6691500D01*
X6619687Y-10326500D02*
X6794687Y-10501500D01*
X6794687Y-10326500D02*
X6619687Y-10501500D01*
X7032437Y-12231500D02*
X7207437Y-12406500D01*
X7207437Y-12231500D02*
X7032437Y-12406500D01*
X7270562Y-8421500D02*
X7445562Y-8596500D01*
X7445562Y-8421500D02*
X7270562Y-8596500D01*
X7334062Y-14136500D02*
X7509062Y-14311500D01*
X7509062Y-14136500D02*
X7334062Y-14311500D01*
X8048437Y-12231500D02*
X8223437Y-12406500D01*
X8223437Y-12231500D02*
X8048437Y-12406500D01*
X8223062Y-6516500D02*
X8398063Y-6691500D01*
X8398063Y-6516500D02*
X8223062Y-6691500D01*
X8223062Y-14136500D02*
X8398063Y-14311500D01*
X8398063Y-14136500D02*
X8223062Y-14311500D01*
X8286562Y-8421500D02*
X8461563Y-8596500D01*
X8461563Y-8421500D02*
X8286562Y-8596500D01*
X8699313Y-10326500D02*
X8874313Y-10501500D01*
X8874313Y-10326500D02*
X8699313Y-10501500D01*
X9175563Y-8421500D02*
X9350563Y-8596500D01*
X9350563Y-8421500D02*
X9175563Y-8596500D01*
X9239063Y-6516500D02*
X9414063Y-6691500D01*
X9414063Y-6516500D02*
X9239063Y-6691500D01*
X9239063Y-14136500D02*
X9414063Y-14311500D01*
X9414063Y-14136500D02*
X9239063Y-14311500D01*
X9651813Y-12231500D02*
X9826813Y-12406500D01*
X9826813Y-12231500D02*
X9651813Y-12406500D01*
X9715313Y-10326500D02*
X9890313Y-10501500D01*
X9890313Y-10326500D02*
X9715313Y-10501500D01*
X10128063Y-6516500D02*
X10303063Y-6691500D01*
X10303063Y-6516500D02*
X10128063Y-6691500D01*
X10128063Y-14136500D02*
X10303063Y-14311500D01*
X10303063Y-14136500D02*
X10128063Y-14311500D01*
X10191563Y-8421500D02*
X10366563Y-8596500D01*
X10366563Y-8421500D02*
X10191563Y-8596500D01*
X10604313Y-10326500D02*
X10779313Y-10501500D01*
X10779313Y-10326500D02*
X10604313Y-10501500D01*
X10667813Y-12231500D02*
X10842813Y-12406500D01*
X10842813Y-12231500D02*
X10667813Y-12406500D01*
X11080563Y-8421500D02*
X11255562Y-8596500D01*
X11255562Y-8421500D02*
X11080563Y-8596500D01*
X11144063Y-6516500D02*
X11319062Y-6691500D01*
X11319062Y-6516500D02*
X11144063Y-6691500D01*
X11144063Y-14136500D02*
X11319062Y-14311500D01*
X11319062Y-14136500D02*
X11144063Y-14311500D01*
X11556812Y-12231500D02*
X11731812Y-12406500D01*
X11731812Y-12231500D02*
X11556812Y-12406500D01*
X11620312Y-10326500D02*
X11795312Y-10501500D01*
X11795312Y-10326500D02*
X11620312Y-10501500D01*
X12033062Y-6516500D02*
X12208062Y-6691500D01*
X12208062Y-6516500D02*
X12033062Y-6691500D01*
X12033062Y-14136500D02*
X12208062Y-14311500D01*
X12208062Y-14136500D02*
X12033062Y-14311500D01*
X12096562Y-8421500D02*
X12271562Y-8596500D01*
X12271562Y-8421500D02*
X12096562Y-8596500D01*
X12509312Y-10326500D02*
X12684312Y-10501500D01*
X12684312Y-10326500D02*
X12509312Y-10501500D01*
X12572812Y-12231500D02*
X12747812Y-12406500D01*
X12747812Y-12231500D02*
X12572812Y-12406500D01*
X12985562Y-8421500D02*
X13160562Y-8596500D01*
X13160562Y-8421500D02*
X12985562Y-8596500D01*
X13049062Y-6516500D02*
X13224062Y-6691500D01*
X13224062Y-6516500D02*
X13049062Y-6691500D01*
X13049062Y-14136500D02*
X13224062Y-14311500D01*
X13224062Y-14136500D02*
X13049062Y-14311500D01*
X13461812Y-12231500D02*
X13636812Y-12406500D01*
X13636812Y-12231500D02*
X13461812Y-12406500D01*
X13525312Y-10326500D02*
X13700312Y-10501500D01*
X13700312Y-10326500D02*
X13525312Y-10501500D01*
X13938062Y-6516500D02*
X14113062Y-6691500D01*
X14113062Y-6516500D02*
X13938062Y-6691500D01*
X14001562Y-8421500D02*
X14176562Y-8596500D01*
X14176562Y-8421500D02*
X14001562Y-8596500D01*
X14414312Y-10326500D02*
X14589312Y-10501500D01*
X14589312Y-10326500D02*
X14414312Y-10501500D01*
X14477812Y-12231500D02*
X14652812Y-12406500D01*
X14652812Y-12231500D02*
X14477812Y-12406500D01*
X14890562Y-8421500D02*
X15065562Y-8596500D01*
X15065562Y-8421500D02*
X14890562Y-8596500D01*
X14954062Y-6516500D02*
X15129062Y-6691500D01*
X15129062Y-6516500D02*
X14954062Y-6691500D01*
X15366812Y-12231500D02*
X15541812Y-12406500D01*
X15541812Y-12231500D02*
X15366812Y-12406500D01*
X15430312Y-10326500D02*
X15605312Y-10501500D01*
X15605312Y-10326500D02*
X15430312Y-10501500D01*
X15843062Y-6516500D02*
X16018062Y-6691500D01*
X16018062Y-6516500D02*
X15843062Y-6691500D01*
X15906562Y-8421500D02*
X16081562Y-8596500D01*
X16081562Y-8421500D02*
X15906562Y-8596500D01*
X16319312Y-10326500D02*
X16494312Y-10501500D01*
X16494312Y-10326500D02*
X16319312Y-10501500D01*
X16382812Y-12231500D02*
X16557812Y-12406500D01*
X16557812Y-12231500D02*
X16382812Y-12406500D01*
X16795563Y-8421500D02*
X16970563Y-8596500D01*
X16970563Y-8421500D02*
X16795563Y-8596500D01*
X16859063Y-6516500D02*
X17034063Y-6691500D01*
X17034063Y-6516500D02*
X16859063Y-6691500D01*
X17271813Y-12231500D02*
X17446813Y-12406500D01*
X17446813Y-12231500D02*
X17271813Y-12406500D01*
X17335313Y-10326500D02*
X17510313Y-10501500D01*
X17510313Y-10326500D02*
X17335313Y-10501500D01*
X17748063Y-6516500D02*
X17923063Y-6691500D01*
X17923063Y-6516500D02*
X17748063Y-6691500D01*
X17811563Y-8421500D02*
X17986563Y-8596500D01*
X17986563Y-8421500D02*
X17811563Y-8596500D01*
X18224313Y-10326500D02*
X18399313Y-10501500D01*
X18399313Y-10326500D02*
X18224313Y-10501500D01*
X18287813Y-12231500D02*
X18462813Y-12406500D01*
X18462813Y-12231500D02*
X18287813Y-12406500D01*
X18700563Y-8421500D02*
X18875563Y-8596500D01*
X18875563Y-8421500D02*
X18700563Y-8596500D01*
X18764063Y-6516500D02*
X18939063Y-6691500D01*
X18939063Y-6516500D02*
X18764063Y-6691500D01*
X18938688Y-14136500D02*
X19113688Y-14311500D01*
X19113688Y-14136500D02*
X18938688Y-14311500D01*
X19176813Y-12231500D02*
X19351813Y-12406500D01*
X19351813Y-12231500D02*
X19176813Y-12406500D01*
X19240313Y-10326500D02*
X19415313Y-10501500D01*
X19415313Y-10326500D02*
X19240313Y-10501500D01*
X19653063Y-6516500D02*
X19828063Y-6691500D01*
X19828063Y-6516500D02*
X19653063Y-6691500D01*
X19716563Y-8421500D02*
X19891563Y-8596500D01*
X19891563Y-8421500D02*
X19716563Y-8596500D01*
X19954688Y-14136500D02*
X20129688Y-14311500D01*
X20129688Y-14136500D02*
X19954688Y-14311500D01*
X20129313Y-10326500D02*
X20304313Y-10501500D01*
X20304313Y-10326500D02*
X20129313Y-10501500D01*
X20192813Y-12231500D02*
X20367813Y-12406500D01*
X20367813Y-12231500D02*
X20192813Y-12406500D01*
X20605563Y-8421500D02*
X20780563Y-8596500D01*
X20780563Y-8421500D02*
X20605563Y-8596500D01*
X20669063Y-6516500D02*
X20844063Y-6691500D01*
X20844063Y-6516500D02*
X20669063Y-6691500D01*
X21081813Y-12231500D02*
X21256813Y-12406500D01*
X21256813Y-12231500D02*
X21081813Y-12406500D01*
X21145313Y-10326500D02*
X21320313Y-10501500D01*
X21320313Y-10326500D02*
X21145313Y-10501500D01*
X21558063Y-6516500D02*
X21733063Y-6691500D01*
X21733063Y-6516500D02*
X21558063Y-6691500D01*
X21621563Y-8421500D02*
X21796563Y-8596500D01*
X21796563Y-8421500D02*
X21621563Y-8596500D01*
X22034313Y-10326500D02*
X22209313Y-10501500D01*
X22209313Y-10326500D02*
X22034313Y-10501500D01*
X22097813Y-12231500D02*
X22272813Y-12406500D01*
X22272813Y-12231500D02*
X22097813Y-12406500D01*
X22510562Y-8421500D02*
X22685562Y-8596500D01*
X22685562Y-8421500D02*
X22510562Y-8596500D01*
X22574062Y-6516500D02*
X22749062Y-6691500D01*
X22749062Y-6516500D02*
X22574062Y-6691500D01*
X22986812Y-12231500D02*
X23161812Y-12406500D01*
X23161812Y-12231500D02*
X22986812Y-12406500D01*
X23050312Y-10326500D02*
X23225312Y-10501500D01*
X23225312Y-10326500D02*
X23050312Y-10501500D01*
X23463062Y-6516500D02*
X23638062Y-6691500D01*
X23638062Y-6516500D02*
X23463062Y-6691500D01*
X23526562Y-8421500D02*
X23701562Y-8596500D01*
X23701562Y-8421500D02*
X23526562Y-8596500D01*
X23939312Y-10326500D02*
X24114312Y-10501500D01*
X24114312Y-10326500D02*
X23939312Y-10501500D01*
X24002812Y-12231500D02*
X24177812Y-12406500D01*
X24177812Y-12231500D02*
X24002812Y-12406500D01*
X24415562Y-8421500D02*
X24590562Y-8596500D01*
X24590562Y-8421500D02*
X24415562Y-8596500D01*
X24479062Y-6516500D02*
X24654062Y-6691500D01*
X24654062Y-6516500D02*
X24479062Y-6691500D01*
X24891812Y-12231500D02*
X25066812Y-12406500D01*
X25066812Y-12231500D02*
X24891812Y-12406500D01*
X24955312Y-10326500D02*
X25130312Y-10501500D01*
X25130312Y-10326500D02*
X24955312Y-10501500D01*
X25368062Y-6516500D02*
X25543062Y-6691500D01*
X25543062Y-6516500D02*
X25368062Y-6691500D01*
X25431562Y-8421500D02*
X25606562Y-8596500D01*
X25606562Y-8421500D02*
X25431562Y-8596500D01*
X25844312Y-10326500D02*
X26019312Y-10501500D01*
X26019312Y-10326500D02*
X25844312Y-10501500D01*
X25907812Y-12231500D02*
X26082812Y-12406500D01*
X26082812Y-12231500D02*
X25907812Y-12406500D01*
X26082437Y-14136500D02*
X26257437Y-14311500D01*
X26257437Y-14136500D02*
X26082437Y-14311500D01*
X26320562Y-8421500D02*
X26495562Y-8596500D01*
X26495562Y-8421500D02*
X26320562Y-8596500D01*
X26384062Y-6516500D02*
X26559062Y-6691500D01*
X26559062Y-6516500D02*
X26384062Y-6691500D01*
X26796812Y-12231500D02*
X26971812Y-12406500D01*
X26971812Y-12231500D02*
X26796812Y-12406500D01*
X26860312Y-10326500D02*
X27035312Y-10501500D01*
X27035312Y-10326500D02*
X26860312Y-10501500D01*
X27098437Y-14136500D02*
X27273437Y-14311500D01*
X27273437Y-14136500D02*
X27098437Y-14311500D01*
X27273062Y-6516500D02*
X27448062Y-6691500D01*
X27448062Y-6516500D02*
X27273062Y-6691500D01*
X27336562Y-8421500D02*
X27511562Y-8596500D01*
X27511562Y-8421500D02*
X27336562Y-8596500D01*
X27749312Y-10326500D02*
X27924312Y-10501500D01*
X27924312Y-10326500D02*
X27749312Y-10501500D01*
X27812812Y-12231500D02*
X27987812Y-12406500D01*
X27987812Y-12231500D02*
X27812812Y-12406500D01*
X28225562Y-8421500D02*
X28400562Y-8596500D01*
X28400562Y-8421500D02*
X28225562Y-8596500D01*
X28289062Y-6516500D02*
X28464062Y-6691500D01*
X28464062Y-6516500D02*
X28289062Y-6691500D01*
X28463687Y-14136500D02*
X28638687Y-14311500D01*
X28638687Y-14136500D02*
X28463687Y-14311500D01*
X28765312Y-10326500D02*
X28940312Y-10501500D01*
X28940312Y-10326500D02*
X28765312Y-10501500D01*
X29178062Y-6516500D02*
X29353062Y-6691500D01*
X29353062Y-6516500D02*
X29178062Y-6691500D01*
X29241562Y-8421500D02*
X29416562Y-8596500D01*
X29416562Y-8421500D02*
X29241562Y-8596500D01*
X29479687Y-14136500D02*
X29654687Y-14311500D01*
X29654687Y-14136500D02*
X29479687Y-14311500D01*
X29892437Y-12231500D02*
X30067437Y-12406500D01*
X30067437Y-12231500D02*
X29892437Y-12406500D01*
X30194062Y-6516500D02*
X30369062Y-6691500D01*
X30369062Y-6516500D02*
X30194062Y-6691500D01*
X30368687Y-10326500D02*
X30543687Y-10501500D01*
X30543687Y-10326500D02*
X30368687Y-10501500D01*
X30606812Y-8421500D02*
X30781812Y-8596500D01*
X30781812Y-8421500D02*
X30606812Y-8596500D01*
X30844937Y-14136500D02*
X31019937Y-14311500D01*
X31019937Y-14136500D02*
X30844937Y-14311500D01*
X30908437Y-12231500D02*
X31083437Y-12406500D01*
X31083437Y-12231500D02*
X30908437Y-12406500D01*
X31083062Y-6516500D02*
X31258062Y-6691500D01*
X31258062Y-6516500D02*
X31083062Y-6691500D01*
X31384687Y-10326500D02*
X31559687Y-10501500D01*
X31559687Y-10326500D02*
X31384687Y-10501500D01*
X31622812Y-8421500D02*
X31797812Y-8596500D01*
X31797812Y-8421500D02*
X31622812Y-8596500D01*
X31860937Y-14136500D02*
X32035937Y-14311500D01*
X32035937Y-14136500D02*
X31860937Y-14311500D01*
X32099062Y-6516500D02*
X32274062Y-6691500D01*
X32274062Y-6516500D02*
X32099062Y-6691500D01*
D13*
X4919663Y-5905500D02*
G75*
G03*
X4919663Y-5905500I-152400J0D01*
G01*
X5157788Y-9715500D02*
G75*
G03*
X5157788Y-9715500I-152400J0D01*
G01*
X7307262Y-5905500D02*
G75*
G03*
X7307262Y-5905500I-152400J0D01*
G01*
X7545387Y-9715500D02*
G75*
G03*
X7545387Y-9715500I-152400J0D01*
G01*
X14686587Y-14922500D02*
G75*
G03*
X14686587Y-14922500I-152400J0D01*
G01*
X24686587Y-14922500D02*
G75*
G03*
X24686587Y-14922500I-152400J0D01*
G01*
X29446537Y-11620500D02*
G75*
G03*
X29446537Y-11620500I-152400J0D01*
G01*
X31834137Y-11620500D02*
G75*
G03*
X31834137Y-11620500I-152400J0D01*
G01*
D14*
X4167187Y-7579062D02*
X4167187Y-7899062D01*
X4007187Y-7739062D02*
X4327188Y-7739062D01*
X6310312Y-12460625D02*
X6310312Y-12780625D01*
X6150312Y-12620625D02*
X6470312Y-12620625D01*
X18028563Y-13500500D02*
X18028563Y-13820500D01*
X17868563Y-13660500D02*
X18188563Y-13660500D01*
X18335625Y-7460000D02*
X18335625Y-7780000D01*
X18175625Y-7620000D02*
X18495625Y-7620000D01*
X28575000Y-12936875D02*
X28575000Y-13256875D01*
X28415000Y-13096875D02*
X28735000Y-13096875D01*
X30003750Y-7579062D02*
X30003750Y-7899062D01*
X29843750Y-7739062D02*
X30163750Y-7739062D01*
D15*
X4908254Y-7567491D02*
X4908254Y-7285509D01*
X4626271Y-7285509D01*
X4626271Y-7567491D01*
X4908254Y-7567491D01*
X5146379Y-11377491D02*
X5146379Y-11095509D01*
X4864396Y-11095509D01*
X4864396Y-11377491D01*
X5146379Y-11377491D01*
X7295854Y-7567491D02*
X7295854Y-7285509D01*
X7013871Y-7285509D01*
X7013871Y-7567491D01*
X7295854Y-7567491D01*
X7533979Y-11377491D02*
X7533979Y-11095509D01*
X7251996Y-11095509D01*
X7251996Y-11377491D01*
X7533979Y-11377491D01*
X14675179Y-13542491D02*
X14675179Y-13260509D01*
X14393196Y-13260509D01*
X14393196Y-13542491D01*
X14675179Y-13542491D01*
X24675179Y-13542491D02*
X24675179Y-13260509D01*
X24393196Y-13260509D01*
X24393196Y-13542491D01*
X24675179Y-13542491D01*
X29435129Y-13282491D02*
X29435129Y-13000509D01*
X29153146Y-13000509D01*
X29153146Y-13282491D01*
X29435129Y-13282491D01*
X31822729Y-13282491D02*
X31822729Y-13000509D01*
X31540746Y-13000509D01*
X31540746Y-13282491D01*
X31822729Y-13282491D01*
D16*
X3103562Y-8709000D02*
X3303562Y-8509000D01*
X3103562Y-8309000D01*
X2903562Y-8509000D01*
X3103562Y-8709000D01*
X3103562Y-10614000D02*
X3303562Y-10414000D01*
X3103562Y-10214000D01*
X2903562Y-10414000D01*
X3103562Y-10614000D01*
X3103562Y-12519000D02*
X3303562Y-12319000D01*
X3103562Y-12119000D01*
X2903562Y-12319000D01*
X3103562Y-12519000D01*
X3103562Y-14424000D02*
X3303562Y-14224000D01*
X3103562Y-14024000D01*
X2903562Y-14224000D01*
X3103562Y-14424000D01*
X5008563Y-12519000D02*
X5208563Y-12319000D01*
X5008563Y-12119000D01*
X4808563Y-12319000D01*
X5008563Y-12519000D01*
X5008563Y-14424000D02*
X5208563Y-14224000D01*
X5008563Y-14024000D01*
X4808563Y-14224000D01*
X5008563Y-14424000D01*
X5484813Y-8709000D02*
X5684812Y-8509000D01*
X5484813Y-8309000D01*
X5284813Y-8509000D01*
X5484813Y-8709000D01*
X5963602Y-6804000D02*
X6163602Y-6604000D01*
X5963602Y-6404000D01*
X5763602Y-6604000D01*
X5963602Y-6804000D01*
X6199187Y-10614000D02*
X6399187Y-10414000D01*
X6199187Y-10214000D01*
X5999187Y-10414000D01*
X6199187Y-10614000D01*
X6913562Y-14424000D02*
X7113562Y-14224000D01*
X6913562Y-14024000D01*
X6713562Y-14224000D01*
X6913562Y-14424000D01*
X7627937Y-12519000D02*
X7827937Y-12319000D01*
X7627937Y-12119000D01*
X7427937Y-12319000D01*
X7627937Y-12519000D01*
X7866062Y-8709000D02*
X8066062Y-8509000D01*
X7866062Y-8309000D01*
X7666062Y-8509000D01*
X7866062Y-8709000D01*
X8818563Y-6804000D02*
X9018563Y-6604000D01*
X8818563Y-6404000D01*
X8618563Y-6604000D01*
X8818563Y-6804000D01*
X8818563Y-14424000D02*
X9018563Y-14224000D01*
X8818563Y-14024000D01*
X8618563Y-14224000D01*
X8818563Y-14424000D01*
X9294813Y-10614000D02*
X9494813Y-10414000D01*
X9294813Y-10214000D01*
X9094813Y-10414000D01*
X9294813Y-10614000D01*
X9771063Y-8709000D02*
X9971063Y-8509000D01*
X9771063Y-8309000D01*
X9571063Y-8509000D01*
X9771063Y-8709000D01*
X10247313Y-12519000D02*
X10447313Y-12319000D01*
X10247313Y-12119000D01*
X10047313Y-12319000D01*
X10247313Y-12519000D01*
X10723563Y-6804000D02*
X10923563Y-6604000D01*
X10723563Y-6404000D01*
X10523563Y-6604000D01*
X10723563Y-6804000D01*
X10723563Y-14424000D02*
X10923563Y-14224000D01*
X10723563Y-14024000D01*
X10523563Y-14224000D01*
X10723563Y-14424000D01*
X11199812Y-10614000D02*
X11399812Y-10414000D01*
X11199812Y-10214000D01*
X10999813Y-10414000D01*
X11199812Y-10614000D01*
X11676062Y-8709000D02*
X11876062Y-8509000D01*
X11676062Y-8309000D01*
X11476062Y-8509000D01*
X11676062Y-8709000D01*
X12152312Y-12519000D02*
X12352312Y-12319000D01*
X12152312Y-12119000D01*
X11952312Y-12319000D01*
X12152312Y-12519000D01*
X12628562Y-6804000D02*
X12828562Y-6604000D01*
X12628562Y-6404000D01*
X12428562Y-6604000D01*
X12628562Y-6804000D01*
X12628562Y-14424000D02*
X12828562Y-14224000D01*
X12628562Y-14024000D01*
X12428562Y-14224000D01*
X12628562Y-14424000D01*
X13104812Y-10614000D02*
X13304812Y-10414000D01*
X13104812Y-10214000D01*
X12904812Y-10414000D01*
X13104812Y-10614000D01*
X13581062Y-8709000D02*
X13781062Y-8509000D01*
X13581062Y-8309000D01*
X13381062Y-8509000D01*
X13581062Y-8709000D01*
X14057312Y-12519000D02*
X14257312Y-12319000D01*
X14057312Y-12119000D01*
X13857312Y-12319000D01*
X14057312Y-12519000D01*
X14533562Y-6804000D02*
X14733562Y-6604000D01*
X14533562Y-6404000D01*
X14333562Y-6604000D01*
X14533562Y-6804000D01*
X15009812Y-10614000D02*
X15209812Y-10414000D01*
X15009812Y-10214000D01*
X14809812Y-10414000D01*
X15009812Y-10614000D01*
X15486062Y-8709000D02*
X15686062Y-8509000D01*
X15486062Y-8309000D01*
X15286062Y-8509000D01*
X15486062Y-8709000D01*
X15962312Y-12519000D02*
X16162312Y-12319000D01*
X15962312Y-12119000D01*
X15762312Y-12319000D01*
X15962312Y-12519000D01*
X16438562Y-6804000D02*
X16638562Y-6604000D01*
X16438562Y-6404000D01*
X16238562Y-6604000D01*
X16438562Y-6804000D01*
X16914813Y-10614000D02*
X17114813Y-10414000D01*
X16914813Y-10214000D01*
X16714812Y-10414000D01*
X16914813Y-10614000D01*
X17391063Y-8709000D02*
X17591063Y-8509000D01*
X17391063Y-8309000D01*
X17191063Y-8509000D01*
X17391063Y-8709000D01*
X17867313Y-12519000D02*
X18067313Y-12319000D01*
X17867313Y-12119000D01*
X17667313Y-12319000D01*
X17867313Y-12519000D01*
X18343563Y-6804000D02*
X18543563Y-6604000D01*
X18343563Y-6404000D01*
X18143563Y-6604000D01*
X18343563Y-6804000D01*
X18819813Y-10614000D02*
X19019813Y-10414000D01*
X18819813Y-10214000D01*
X18619813Y-10414000D01*
X18819813Y-10614000D01*
X19296063Y-8709000D02*
X19496063Y-8509000D01*
X19296063Y-8309000D01*
X19096063Y-8509000D01*
X19296063Y-8709000D01*
X19534188Y-14424000D02*
X19734188Y-14224000D01*
X19534188Y-14024000D01*
X19334188Y-14224000D01*
X19534188Y-14424000D01*
X19772313Y-12519000D02*
X19972313Y-12319000D01*
X19772313Y-12119000D01*
X19572313Y-12319000D01*
X19772313Y-12519000D01*
X20248563Y-6804000D02*
X20448563Y-6604000D01*
X20248563Y-6404000D01*
X20048563Y-6604000D01*
X20248563Y-6804000D01*
X20724813Y-10614000D02*
X20924813Y-10414000D01*
X20724813Y-10214000D01*
X20524813Y-10414000D01*
X20724813Y-10614000D01*
X21201063Y-8709000D02*
X21401063Y-8509000D01*
X21201063Y-8309000D01*
X21001063Y-8509000D01*
X21201063Y-8709000D01*
X21677313Y-12519000D02*
X21877313Y-12319000D01*
X21677313Y-12119000D01*
X21477313Y-12319000D01*
X21677313Y-12519000D01*
X22153563Y-6804000D02*
X22353563Y-6604000D01*
X22153563Y-6404000D01*
X21953563Y-6604000D01*
X22153563Y-6804000D01*
X22629812Y-10614000D02*
X22829812Y-10414000D01*
X22629812Y-10214000D01*
X22429812Y-10414000D01*
X22629812Y-10614000D01*
X23106062Y-8709000D02*
X23306062Y-8509000D01*
X23106062Y-8309000D01*
X22906062Y-8509000D01*
X23106062Y-8709000D01*
X23582312Y-12519000D02*
X23782312Y-12319000D01*
X23582312Y-12119000D01*
X23382312Y-12319000D01*
X23582312Y-12519000D01*
X24058562Y-6804000D02*
X24258562Y-6604000D01*
X24058562Y-6404000D01*
X23858562Y-6604000D01*
X24058562Y-6804000D01*
X24534812Y-10614000D02*
X24734812Y-10414000D01*
X24534812Y-10214000D01*
X24334812Y-10414000D01*
X24534812Y-10614000D01*
X25011062Y-8709000D02*
X25211062Y-8509000D01*
X25011062Y-8309000D01*
X24811062Y-8509000D01*
X25011062Y-8709000D01*
X25487312Y-12519000D02*
X25687312Y-12319000D01*
X25487312Y-12119000D01*
X25287312Y-12319000D01*
X25487312Y-12519000D01*
X25963562Y-6804000D02*
X26163562Y-6604000D01*
X25963562Y-6404000D01*
X25763562Y-6604000D01*
X25963562Y-6804000D01*
X26439812Y-10614000D02*
X26639812Y-10414000D01*
X26439812Y-10214000D01*
X26239812Y-10414000D01*
X26439812Y-10614000D01*
X26677937Y-14424000D02*
X26877937Y-14224000D01*
X26677937Y-14024000D01*
X26477937Y-14224000D01*
X26677937Y-14424000D01*
X26916062Y-8709000D02*
X27116062Y-8509000D01*
X26916062Y-8309000D01*
X26716062Y-8509000D01*
X26916062Y-8709000D01*
X27392312Y-12519000D02*
X27592312Y-12319000D01*
X27392312Y-12119000D01*
X27192312Y-12319000D01*
X27392312Y-12519000D01*
X27868562Y-6804000D02*
X28068562Y-6604000D01*
X27868562Y-6404000D01*
X27668562Y-6604000D01*
X27868562Y-6804000D01*
X28344812Y-10614000D02*
X28544812Y-10414000D01*
X28344812Y-10214000D01*
X28144812Y-10414000D01*
X28344812Y-10614000D01*
X28821062Y-8709000D02*
X29021062Y-8509000D01*
X28821062Y-8309000D01*
X28621062Y-8509000D01*
X28821062Y-8709000D01*
X29059187Y-14424000D02*
X29259187Y-14224000D01*
X29059187Y-14024000D01*
X28859187Y-14224000D01*
X29059187Y-14424000D01*
X29773562Y-6804000D02*
X29973562Y-6604000D01*
X29773562Y-6404000D01*
X29573562Y-6604000D01*
X29773562Y-6804000D01*
X30487937Y-12519000D02*
X30687937Y-12319000D01*
X30487937Y-12119000D01*
X30287937Y-12319000D01*
X30487937Y-12519000D01*
X30964187Y-10614000D02*
X31164187Y-10414000D01*
X30964187Y-10214000D01*
X30764187Y-10414000D01*
X30964187Y-10614000D01*
X31202312Y-8709000D02*
X31402312Y-8509000D01*
X31202312Y-8309000D01*
X31002312Y-8509000D01*
X31202312Y-8709000D01*
X31440437Y-14424000D02*
X31640437Y-14224000D01*
X31440437Y-14024000D01*
X31240437Y-14224000D01*
X31440437Y-14424000D01*
X31678562Y-6804000D02*
X31878562Y-6604000D01*
X31678562Y-6404000D01*
X31478562Y-6604000D01*
X31678562Y-6804000D01*
D11*
X2391839Y-15582984D02*
X2391839Y-15382984D01*
X2391839Y-15382984D02*
X2439458Y-15382984D01*
X2439458Y-15382984D02*
X2468030Y-15392508D01*
X2468030Y-15392508D02*
X2487077Y-15411555D01*
X2487077Y-15411555D02*
X2496601Y-15430603D01*
X2496601Y-15430603D02*
X2506125Y-15468698D01*
X2506125Y-15468698D02*
X2506125Y-15497269D01*
X2506125Y-15497269D02*
X2496601Y-15535365D01*
X2496601Y-15535365D02*
X2487077Y-15554412D01*
X2487077Y-15554412D02*
X2468030Y-15573460D01*
X2468030Y-15573460D02*
X2439458Y-15582984D01*
X2439458Y-15582984D02*
X2391839Y-15582984D01*
X2591839Y-15582984D02*
X2591839Y-15449650D01*
X2591839Y-15487746D02*
X2601363Y-15468698D01*
X2601363Y-15468698D02*
X2610887Y-15459174D01*
X2610887Y-15459174D02*
X2629935Y-15449650D01*
X2629935Y-15449650D02*
X2648982Y-15449650D01*
X2715649Y-15582984D02*
X2715649Y-15449650D01*
X2715649Y-15382984D02*
X2706125Y-15392508D01*
X2706125Y-15392508D02*
X2715649Y-15402031D01*
X2715649Y-15402031D02*
X2725173Y-15392508D01*
X2725173Y-15392508D02*
X2715649Y-15382984D01*
X2715649Y-15382984D02*
X2715649Y-15402031D01*
X2839458Y-15582984D02*
X2820411Y-15573460D01*
X2820411Y-15573460D02*
X2810887Y-15554412D01*
X2810887Y-15554412D02*
X2810887Y-15382984D01*
X2944220Y-15582984D02*
X2925173Y-15573460D01*
X2925173Y-15573460D02*
X2915649Y-15554412D01*
X2915649Y-15554412D02*
X2915649Y-15382984D01*
X3172792Y-15582984D02*
X3172792Y-15382984D01*
X3172792Y-15382984D02*
X3239458Y-15525841D01*
X3239458Y-15525841D02*
X3306125Y-15382984D01*
X3306125Y-15382984D02*
X3306125Y-15582984D01*
X3487077Y-15582984D02*
X3487077Y-15478222D01*
X3487077Y-15478222D02*
X3477554Y-15459174D01*
X3477554Y-15459174D02*
X3458506Y-15449650D01*
X3458506Y-15449650D02*
X3420411Y-15449650D01*
X3420411Y-15449650D02*
X3401363Y-15459174D01*
X3487077Y-15573460D02*
X3468030Y-15582984D01*
X3468030Y-15582984D02*
X3420411Y-15582984D01*
X3420411Y-15582984D02*
X3401363Y-15573460D01*
X3401363Y-15573460D02*
X3391839Y-15554412D01*
X3391839Y-15554412D02*
X3391839Y-15535365D01*
X3391839Y-15535365D02*
X3401363Y-15516317D01*
X3401363Y-15516317D02*
X3420411Y-15506793D01*
X3420411Y-15506793D02*
X3468030Y-15506793D01*
X3468030Y-15506793D02*
X3487077Y-15497269D01*
X3582315Y-15449650D02*
X3582315Y-15649650D01*
X3582315Y-15459174D02*
X3601363Y-15449650D01*
X3601363Y-15449650D02*
X3639458Y-15449650D01*
X3639458Y-15449650D02*
X3658506Y-15459174D01*
X3658506Y-15459174D02*
X3668030Y-15468698D01*
X3668030Y-15468698D02*
X3677554Y-15487746D01*
X3677554Y-15487746D02*
X3677554Y-15544888D01*
X3677554Y-15544888D02*
X3668030Y-15563936D01*
X3668030Y-15563936D02*
X3658506Y-15573460D01*
X3658506Y-15573460D02*
X3639458Y-15582984D01*
X3639458Y-15582984D02*
X3601363Y-15582984D01*
X3601363Y-15582984D02*
X3582315Y-15573460D01*
X3763268Y-15563936D02*
X3772792Y-15573460D01*
X3772792Y-15573460D02*
X3763268Y-15582984D01*
X3763268Y-15582984D02*
X3753744Y-15573460D01*
X3753744Y-15573460D02*
X3763268Y-15563936D01*
X3763268Y-15563936D02*
X3763268Y-15582984D01*
X3763268Y-15459174D02*
X3772792Y-15468698D01*
X3772792Y-15468698D02*
X3763268Y-15478222D01*
X3763268Y-15478222D02*
X3753744Y-15468698D01*
X3753744Y-15468698D02*
X3763268Y-15459174D01*
X3763268Y-15459174D02*
X3763268Y-15478222D01*
D12*
X1956062Y-15824000D02*
X2131063Y-15999000D01*
X2131063Y-15824000D02*
X1956062Y-15999000D01*
D11*
X2496601Y-16002984D02*
X2382316Y-16002984D01*
X2439458Y-16002984D02*
X2439458Y-15802984D01*
X2439458Y-15802984D02*
X2420411Y-15831555D01*
X2420411Y-15831555D02*
X2401363Y-15850603D01*
X2401363Y-15850603D02*
X2382316Y-15860127D01*
X2582316Y-15983936D02*
X2591839Y-15993460D01*
X2591839Y-15993460D02*
X2582316Y-16002984D01*
X2582316Y-16002984D02*
X2572792Y-15993460D01*
X2572792Y-15993460D02*
X2582316Y-15983936D01*
X2582316Y-15983936D02*
X2582316Y-16002984D01*
X2658506Y-15802984D02*
X2791839Y-15802984D01*
X2791839Y-15802984D02*
X2706125Y-16002984D01*
X2963268Y-15802984D02*
X2868030Y-15802984D01*
X2868030Y-15802984D02*
X2858506Y-15898222D01*
X2858506Y-15898222D02*
X2868030Y-15888698D01*
X2868030Y-15888698D02*
X2887077Y-15879174D01*
X2887077Y-15879174D02*
X2934696Y-15879174D01*
X2934696Y-15879174D02*
X2953744Y-15888698D01*
X2953744Y-15888698D02*
X2963268Y-15898222D01*
X2963268Y-15898222D02*
X2972792Y-15917269D01*
X2972792Y-15917269D02*
X2972792Y-15964888D01*
X2972792Y-15964888D02*
X2963268Y-15983936D01*
X2963268Y-15983936D02*
X2953744Y-15993460D01*
X2953744Y-15993460D02*
X2934696Y-16002984D01*
X2934696Y-16002984D02*
X2887077Y-16002984D01*
X2887077Y-16002984D02*
X2868030Y-15993460D01*
X2868030Y-15993460D02*
X2858506Y-15983936D01*
X3096601Y-15802984D02*
X3115649Y-15802984D01*
X3115649Y-15802984D02*
X3134696Y-15812508D01*
X3134696Y-15812508D02*
X3144220Y-15822031D01*
X3144220Y-15822031D02*
X3153744Y-15841079D01*
X3153744Y-15841079D02*
X3163268Y-15879174D01*
X3163268Y-15879174D02*
X3163268Y-15926793D01*
X3163268Y-15926793D02*
X3153744Y-15964888D01*
X3153744Y-15964888D02*
X3144220Y-15983936D01*
X3144220Y-15983936D02*
X3134696Y-15993460D01*
X3134696Y-15993460D02*
X3115649Y-16002984D01*
X3115649Y-16002984D02*
X3096601Y-16002984D01*
X3096601Y-16002984D02*
X3077554Y-15993460D01*
X3077554Y-15993460D02*
X3068030Y-15983936D01*
X3068030Y-15983936D02*
X3058506Y-15964888D01*
X3058506Y-15964888D02*
X3048982Y-15926793D01*
X3048982Y-15926793D02*
X3048982Y-15879174D01*
X3048982Y-15879174D02*
X3058506Y-15841079D01*
X3058506Y-15841079D02*
X3068030Y-15822031D01*
X3068030Y-15822031D02*
X3077554Y-15812508D01*
X3077554Y-15812508D02*
X3096601Y-15802984D01*
X3248982Y-16002984D02*
X3248982Y-15869650D01*
X3248982Y-15888698D02*
X3258506Y-15879174D01*
X3258506Y-15879174D02*
X3277554Y-15869650D01*
X3277554Y-15869650D02*
X3306125Y-15869650D01*
X3306125Y-15869650D02*
X3325173Y-15879174D01*
X3325173Y-15879174D02*
X3334696Y-15898222D01*
X3334696Y-15898222D02*
X3334696Y-16002984D01*
X3334696Y-15898222D02*
X3344220Y-15879174D01*
X3344220Y-15879174D02*
X3363268Y-15869650D01*
X3363268Y-15869650D02*
X3391839Y-15869650D01*
X3391839Y-15869650D02*
X3410887Y-15879174D01*
X3410887Y-15879174D02*
X3420411Y-15898222D01*
X3420411Y-15898222D02*
X3420411Y-16002984D01*
X3515649Y-16002984D02*
X3515649Y-15869650D01*
X3515649Y-15888698D02*
X3525173Y-15879174D01*
X3525173Y-15879174D02*
X3544220Y-15869650D01*
X3544220Y-15869650D02*
X3572792Y-15869650D01*
X3572792Y-15869650D02*
X3591839Y-15879174D01*
X3591839Y-15879174D02*
X3601363Y-15898222D01*
X3601363Y-15898222D02*
X3601363Y-16002984D01*
X3601363Y-15898222D02*
X3610887Y-15879174D01*
X3610887Y-15879174D02*
X3629935Y-15869650D01*
X3629935Y-15869650D02*
X3658506Y-15869650D01*
X3658506Y-15869650D02*
X3677554Y-15879174D01*
X3677554Y-15879174D02*
X3687077Y-15898222D01*
X3687077Y-15898222D02*
X3687077Y-16002984D01*
X4077554Y-15793460D02*
X3906125Y-16050603D01*
X4334697Y-15802984D02*
X4353744Y-15802984D01*
X4353744Y-15802984D02*
X4372792Y-15812508D01*
X4372792Y-15812508D02*
X4382316Y-15822031D01*
X4382316Y-15822031D02*
X4391840Y-15841079D01*
X4391840Y-15841079D02*
X4401363Y-15879174D01*
X4401363Y-15879174D02*
X4401363Y-15926793D01*
X4401363Y-15926793D02*
X4391840Y-15964888D01*
X4391840Y-15964888D02*
X4382316Y-15983936D01*
X4382316Y-15983936D02*
X4372792Y-15993460D01*
X4372792Y-15993460D02*
X4353744Y-16002984D01*
X4353744Y-16002984D02*
X4334697Y-16002984D01*
X4334697Y-16002984D02*
X4315649Y-15993460D01*
X4315649Y-15993460D02*
X4306125Y-15983936D01*
X4306125Y-15983936D02*
X4296601Y-15964888D01*
X4296601Y-15964888D02*
X4287078Y-15926793D01*
X4287078Y-15926793D02*
X4287078Y-15879174D01*
X4287078Y-15879174D02*
X4296601Y-15841079D01*
X4296601Y-15841079D02*
X4306125Y-15822031D01*
X4306125Y-15822031D02*
X4315649Y-15812508D01*
X4315649Y-15812508D02*
X4334697Y-15802984D01*
X4487078Y-15983936D02*
X4496601Y-15993460D01*
X4496601Y-15993460D02*
X4487078Y-16002984D01*
X4487078Y-16002984D02*
X4477554Y-15993460D01*
X4477554Y-15993460D02*
X4487078Y-15983936D01*
X4487078Y-15983936D02*
X4487078Y-16002984D01*
X4620411Y-15802984D02*
X4639459Y-15802984D01*
X4639459Y-15802984D02*
X4658506Y-15812508D01*
X4658506Y-15812508D02*
X4668030Y-15822031D01*
X4668030Y-15822031D02*
X4677554Y-15841079D01*
X4677554Y-15841079D02*
X4687078Y-15879174D01*
X4687078Y-15879174D02*
X4687078Y-15926793D01*
X4687078Y-15926793D02*
X4677554Y-15964888D01*
X4677554Y-15964888D02*
X4668030Y-15983936D01*
X4668030Y-15983936D02*
X4658506Y-15993460D01*
X4658506Y-15993460D02*
X4639459Y-16002984D01*
X4639459Y-16002984D02*
X4620411Y-16002984D01*
X4620411Y-16002984D02*
X4601363Y-15993460D01*
X4601363Y-15993460D02*
X4591840Y-15983936D01*
X4591840Y-15983936D02*
X4582316Y-15964888D01*
X4582316Y-15964888D02*
X4572792Y-15926793D01*
X4572792Y-15926793D02*
X4572792Y-15879174D01*
X4572792Y-15879174D02*
X4582316Y-15841079D01*
X4582316Y-15841079D02*
X4591840Y-15822031D01*
X4591840Y-15822031D02*
X4601363Y-15812508D01*
X4601363Y-15812508D02*
X4620411Y-15802984D01*
X4858506Y-15802984D02*
X4820411Y-15802984D01*
X4820411Y-15802984D02*
X4801363Y-15812508D01*
X4801363Y-15812508D02*
X4791840Y-15822031D01*
X4791840Y-15822031D02*
X4772792Y-15850603D01*
X4772792Y-15850603D02*
X4763268Y-15888698D01*
X4763268Y-15888698D02*
X4763268Y-15964888D01*
X4763268Y-15964888D02*
X4772792Y-15983936D01*
X4772792Y-15983936D02*
X4782316Y-15993460D01*
X4782316Y-15993460D02*
X4801363Y-16002984D01*
X4801363Y-16002984D02*
X4839459Y-16002984D01*
X4839459Y-16002984D02*
X4858506Y-15993460D01*
X4858506Y-15993460D02*
X4868030Y-15983936D01*
X4868030Y-15983936D02*
X4877554Y-15964888D01*
X4877554Y-15964888D02*
X4877554Y-15917269D01*
X4877554Y-15917269D02*
X4868030Y-15898222D01*
X4868030Y-15898222D02*
X4858506Y-15888698D01*
X4858506Y-15888698D02*
X4839459Y-15879174D01*
X4839459Y-15879174D02*
X4801363Y-15879174D01*
X4801363Y-15879174D02*
X4782316Y-15888698D01*
X4782316Y-15888698D02*
X4772792Y-15898222D01*
X4772792Y-15898222D02*
X4763268Y-15917269D01*
X4991840Y-15888698D02*
X4972792Y-15879174D01*
X4972792Y-15879174D02*
X4963268Y-15869650D01*
X4963268Y-15869650D02*
X4953744Y-15850603D01*
X4953744Y-15850603D02*
X4953744Y-15841079D01*
X4953744Y-15841079D02*
X4963268Y-15822031D01*
X4963268Y-15822031D02*
X4972792Y-15812508D01*
X4972792Y-15812508D02*
X4991840Y-15802984D01*
X4991840Y-15802984D02*
X5029935Y-15802984D01*
X5029935Y-15802984D02*
X5048982Y-15812508D01*
X5048982Y-15812508D02*
X5058506Y-15822031D01*
X5058506Y-15822031D02*
X5068030Y-15841079D01*
X5068030Y-15841079D02*
X5068030Y-15850603D01*
X5068030Y-15850603D02*
X5058506Y-15869650D01*
X5058506Y-15869650D02*
X5048982Y-15879174D01*
X5048982Y-15879174D02*
X5029935Y-15888698D01*
X5029935Y-15888698D02*
X4991840Y-15888698D01*
X4991840Y-15888698D02*
X4972792Y-15898222D01*
X4972792Y-15898222D02*
X4963268Y-15907746D01*
X4963268Y-15907746D02*
X4953744Y-15926793D01*
X4953744Y-15926793D02*
X4953744Y-15964888D01*
X4953744Y-15964888D02*
X4963268Y-15983936D01*
X4963268Y-15983936D02*
X4972792Y-15993460D01*
X4972792Y-15993460D02*
X4991840Y-16002984D01*
X4991840Y-16002984D02*
X5029935Y-16002984D01*
X5029935Y-16002984D02*
X5048982Y-15993460D01*
X5048982Y-15993460D02*
X5058506Y-15983936D01*
X5058506Y-15983936D02*
X5068030Y-15964888D01*
X5068030Y-15964888D02*
X5068030Y-15926793D01*
X5068030Y-15926793D02*
X5058506Y-15907746D01*
X5058506Y-15907746D02*
X5048982Y-15898222D01*
X5048982Y-15898222D02*
X5029935Y-15888698D01*
X5163268Y-16002984D02*
X5201363Y-16002984D01*
X5201363Y-16002984D02*
X5220411Y-15993460D01*
X5220411Y-15993460D02*
X5229935Y-15983936D01*
X5229935Y-15983936D02*
X5248982Y-15955365D01*
X5248982Y-15955365D02*
X5258506Y-15917269D01*
X5258506Y-15917269D02*
X5258506Y-15841079D01*
X5258506Y-15841079D02*
X5248982Y-15822031D01*
X5248982Y-15822031D02*
X5239459Y-15812508D01*
X5239459Y-15812508D02*
X5220411Y-15802984D01*
X5220411Y-15802984D02*
X5182316Y-15802984D01*
X5182316Y-15802984D02*
X5163268Y-15812508D01*
X5163268Y-15812508D02*
X5153744Y-15822031D01*
X5153744Y-15822031D02*
X5144221Y-15841079D01*
X5144221Y-15841079D02*
X5144221Y-15888698D01*
X5144221Y-15888698D02*
X5153744Y-15907746D01*
X5153744Y-15907746D02*
X5163268Y-15917269D01*
X5163268Y-15917269D02*
X5182316Y-15926793D01*
X5182316Y-15926793D02*
X5220411Y-15926793D01*
X5220411Y-15926793D02*
X5239459Y-15917269D01*
X5239459Y-15917269D02*
X5248982Y-15907746D01*
X5248982Y-15907746D02*
X5258506Y-15888698D01*
X5334697Y-15802984D02*
X5334697Y-15841079D01*
X5410887Y-15802984D02*
X5410887Y-15841079D01*
X5706125Y-16079174D02*
X5696601Y-16069650D01*
X5696601Y-16069650D02*
X5677554Y-16041079D01*
X5677554Y-16041079D02*
X5668030Y-16022031D01*
X5668030Y-16022031D02*
X5658506Y-15993460D01*
X5658506Y-15993460D02*
X5648982Y-15945841D01*
X5648982Y-15945841D02*
X5648982Y-15907746D01*
X5648982Y-15907746D02*
X5658506Y-15860127D01*
X5658506Y-15860127D02*
X5668030Y-15831555D01*
X5668030Y-15831555D02*
X5677554Y-15812508D01*
X5677554Y-15812508D02*
X5696601Y-15783936D01*
X5696601Y-15783936D02*
X5706125Y-15774412D01*
X5887078Y-16002984D02*
X5772792Y-16002984D01*
X5829935Y-16002984D02*
X5829935Y-15802984D01*
X5829935Y-15802984D02*
X5810887Y-15831555D01*
X5810887Y-15831555D02*
X5791840Y-15850603D01*
X5791840Y-15850603D02*
X5772792Y-15860127D01*
X5953744Y-15802984D02*
X6077554Y-15802984D01*
X6077554Y-15802984D02*
X6010887Y-15879174D01*
X6010887Y-15879174D02*
X6039459Y-15879174D01*
X6039459Y-15879174D02*
X6058506Y-15888698D01*
X6058506Y-15888698D02*
X6068030Y-15898222D01*
X6068030Y-15898222D02*
X6077554Y-15917269D01*
X6077554Y-15917269D02*
X6077554Y-15964888D01*
X6077554Y-15964888D02*
X6068030Y-15983936D01*
X6068030Y-15983936D02*
X6058506Y-15993460D01*
X6058506Y-15993460D02*
X6039459Y-16002984D01*
X6039459Y-16002984D02*
X5982316Y-16002984D01*
X5982316Y-16002984D02*
X5963268Y-15993460D01*
X5963268Y-15993460D02*
X5953744Y-15983936D01*
X6248982Y-15869650D02*
X6248982Y-16002984D01*
X6201363Y-15793460D02*
X6153744Y-15936317D01*
X6153744Y-15936317D02*
X6277554Y-15936317D01*
X6506125Y-16002984D02*
X6506125Y-15802984D01*
X6591840Y-16002984D02*
X6591840Y-15898222D01*
X6591840Y-15898222D02*
X6582316Y-15879174D01*
X6582316Y-15879174D02*
X6563268Y-15869650D01*
X6563268Y-15869650D02*
X6534697Y-15869650D01*
X6534697Y-15869650D02*
X6515649Y-15879174D01*
X6515649Y-15879174D02*
X6506125Y-15888698D01*
X6715649Y-16002984D02*
X6696602Y-15993460D01*
X6696602Y-15993460D02*
X6687078Y-15983936D01*
X6687078Y-15983936D02*
X6677554Y-15964888D01*
X6677554Y-15964888D02*
X6677554Y-15907746D01*
X6677554Y-15907746D02*
X6687078Y-15888698D01*
X6687078Y-15888698D02*
X6696602Y-15879174D01*
X6696602Y-15879174D02*
X6715649Y-15869650D01*
X6715649Y-15869650D02*
X6744221Y-15869650D01*
X6744221Y-15869650D02*
X6763268Y-15879174D01*
X6763268Y-15879174D02*
X6772792Y-15888698D01*
X6772792Y-15888698D02*
X6782316Y-15907746D01*
X6782316Y-15907746D02*
X6782316Y-15964888D01*
X6782316Y-15964888D02*
X6772792Y-15983936D01*
X6772792Y-15983936D02*
X6763268Y-15993460D01*
X6763268Y-15993460D02*
X6744221Y-16002984D01*
X6744221Y-16002984D02*
X6715649Y-16002984D01*
X6896602Y-16002984D02*
X6877554Y-15993460D01*
X6877554Y-15993460D02*
X6868030Y-15974412D01*
X6868030Y-15974412D02*
X6868030Y-15802984D01*
X7048983Y-15993460D02*
X7029935Y-16002984D01*
X7029935Y-16002984D02*
X6991840Y-16002984D01*
X6991840Y-16002984D02*
X6972792Y-15993460D01*
X6972792Y-15993460D02*
X6963268Y-15974412D01*
X6963268Y-15974412D02*
X6963268Y-15898222D01*
X6963268Y-15898222D02*
X6972792Y-15879174D01*
X6972792Y-15879174D02*
X6991840Y-15869650D01*
X6991840Y-15869650D02*
X7029935Y-15869650D01*
X7029935Y-15869650D02*
X7048983Y-15879174D01*
X7048983Y-15879174D02*
X7058506Y-15898222D01*
X7058506Y-15898222D02*
X7058506Y-15917269D01*
X7058506Y-15917269D02*
X6963268Y-15936317D01*
X7134697Y-15993460D02*
X7153744Y-16002984D01*
X7153744Y-16002984D02*
X7191840Y-16002984D01*
X7191840Y-16002984D02*
X7210887Y-15993460D01*
X7210887Y-15993460D02*
X7220411Y-15974412D01*
X7220411Y-15974412D02*
X7220411Y-15964888D01*
X7220411Y-15964888D02*
X7210887Y-15945841D01*
X7210887Y-15945841D02*
X7191840Y-15936317D01*
X7191840Y-15936317D02*
X7163268Y-15936317D01*
X7163268Y-15936317D02*
X7144221Y-15926793D01*
X7144221Y-15926793D02*
X7134697Y-15907746D01*
X7134697Y-15907746D02*
X7134697Y-15898222D01*
X7134697Y-15898222D02*
X7144221Y-15879174D01*
X7144221Y-15879174D02*
X7163268Y-15869650D01*
X7163268Y-15869650D02*
X7191840Y-15869650D01*
X7191840Y-15869650D02*
X7210887Y-15879174D01*
X7287078Y-16079174D02*
X7296602Y-16069650D01*
X7296602Y-16069650D02*
X7315649Y-16041079D01*
X7315649Y-16041079D02*
X7325173Y-16022031D01*
X7325173Y-16022031D02*
X7334697Y-15993460D01*
X7334697Y-15993460D02*
X7344221Y-15945841D01*
X7344221Y-15945841D02*
X7344221Y-15907746D01*
X7344221Y-15907746D02*
X7334697Y-15860127D01*
X7334697Y-15860127D02*
X7325173Y-15831555D01*
X7325173Y-15831555D02*
X7315649Y-15812508D01*
X7315649Y-15812508D02*
X7296602Y-15783936D01*
X7296602Y-15783936D02*
X7287078Y-15774412D01*
X7648983Y-16079174D02*
X7639459Y-16069650D01*
X7639459Y-16069650D02*
X7620411Y-16041079D01*
X7620411Y-16041079D02*
X7610887Y-16022031D01*
X7610887Y-16022031D02*
X7601364Y-15993460D01*
X7601364Y-15993460D02*
X7591840Y-15945841D01*
X7591840Y-15945841D02*
X7591840Y-15907746D01*
X7591840Y-15907746D02*
X7601364Y-15860127D01*
X7601364Y-15860127D02*
X7610887Y-15831555D01*
X7610887Y-15831555D02*
X7620411Y-15812508D01*
X7620411Y-15812508D02*
X7639459Y-15783936D01*
X7639459Y-15783936D02*
X7648983Y-15774412D01*
X7725173Y-15869650D02*
X7725173Y-16002984D01*
X7725173Y-15888698D02*
X7734697Y-15879174D01*
X7734697Y-15879174D02*
X7753744Y-15869650D01*
X7753744Y-15869650D02*
X7782316Y-15869650D01*
X7782316Y-15869650D02*
X7801364Y-15879174D01*
X7801364Y-15879174D02*
X7810887Y-15898222D01*
X7810887Y-15898222D02*
X7810887Y-16002984D01*
X7934697Y-16002984D02*
X7915649Y-15993460D01*
X7915649Y-15993460D02*
X7906125Y-15983936D01*
X7906125Y-15983936D02*
X7896602Y-15964888D01*
X7896602Y-15964888D02*
X7896602Y-15907746D01*
X7896602Y-15907746D02*
X7906125Y-15888698D01*
X7906125Y-15888698D02*
X7915649Y-15879174D01*
X7915649Y-15879174D02*
X7934697Y-15869650D01*
X7934697Y-15869650D02*
X7963268Y-15869650D01*
X7963268Y-15869650D02*
X7982316Y-15879174D01*
X7982316Y-15879174D02*
X7991840Y-15888698D01*
X7991840Y-15888698D02*
X8001364Y-15907746D01*
X8001364Y-15907746D02*
X8001364Y-15964888D01*
X8001364Y-15964888D02*
X7991840Y-15983936D01*
X7991840Y-15983936D02*
X7982316Y-15993460D01*
X7982316Y-15993460D02*
X7963268Y-16002984D01*
X7963268Y-16002984D02*
X7934697Y-16002984D01*
X8058506Y-15869650D02*
X8134697Y-15869650D01*
X8087078Y-15802984D02*
X8087078Y-15974412D01*
X8087078Y-15974412D02*
X8096602Y-15993460D01*
X8096602Y-15993460D02*
X8115649Y-16002984D01*
X8115649Y-16002984D02*
X8134697Y-16002984D01*
X8353745Y-15869650D02*
X8353745Y-16069650D01*
X8353745Y-15879174D02*
X8372792Y-15869650D01*
X8372792Y-15869650D02*
X8410888Y-15869650D01*
X8410888Y-15869650D02*
X8429935Y-15879174D01*
X8429935Y-15879174D02*
X8439459Y-15888698D01*
X8439459Y-15888698D02*
X8448983Y-15907746D01*
X8448983Y-15907746D02*
X8448983Y-15964888D01*
X8448983Y-15964888D02*
X8439459Y-15983936D01*
X8439459Y-15983936D02*
X8429935Y-15993460D01*
X8429935Y-15993460D02*
X8410888Y-16002984D01*
X8410888Y-16002984D02*
X8372792Y-16002984D01*
X8372792Y-16002984D02*
X8353745Y-15993460D01*
X8563268Y-16002984D02*
X8544221Y-15993460D01*
X8544221Y-15993460D02*
X8534697Y-15974412D01*
X8534697Y-15974412D02*
X8534697Y-15802984D01*
X8725173Y-16002984D02*
X8725173Y-15898222D01*
X8725173Y-15898222D02*
X8715649Y-15879174D01*
X8715649Y-15879174D02*
X8696602Y-15869650D01*
X8696602Y-15869650D02*
X8658507Y-15869650D01*
X8658507Y-15869650D02*
X8639459Y-15879174D01*
X8725173Y-15993460D02*
X8706126Y-16002984D01*
X8706126Y-16002984D02*
X8658507Y-16002984D01*
X8658507Y-16002984D02*
X8639459Y-15993460D01*
X8639459Y-15993460D02*
X8629935Y-15974412D01*
X8629935Y-15974412D02*
X8629935Y-15955365D01*
X8629935Y-15955365D02*
X8639459Y-15936317D01*
X8639459Y-15936317D02*
X8658507Y-15926793D01*
X8658507Y-15926793D02*
X8706126Y-15926793D01*
X8706126Y-15926793D02*
X8725173Y-15917269D01*
X8791840Y-15869650D02*
X8868030Y-15869650D01*
X8820411Y-15802984D02*
X8820411Y-15974412D01*
X8820411Y-15974412D02*
X8829935Y-15993460D01*
X8829935Y-15993460D02*
X8848983Y-16002984D01*
X8848983Y-16002984D02*
X8868030Y-16002984D01*
X9010888Y-15993460D02*
X8991840Y-16002984D01*
X8991840Y-16002984D02*
X8953745Y-16002984D01*
X8953745Y-16002984D02*
X8934697Y-15993460D01*
X8934697Y-15993460D02*
X8925173Y-15974412D01*
X8925173Y-15974412D02*
X8925173Y-15898222D01*
X8925173Y-15898222D02*
X8934697Y-15879174D01*
X8934697Y-15879174D02*
X8953745Y-15869650D01*
X8953745Y-15869650D02*
X8991840Y-15869650D01*
X8991840Y-15869650D02*
X9010888Y-15879174D01*
X9010888Y-15879174D02*
X9020411Y-15898222D01*
X9020411Y-15898222D02*
X9020411Y-15917269D01*
X9020411Y-15917269D02*
X8925173Y-15936317D01*
X9191840Y-16002984D02*
X9191840Y-15802984D01*
X9191840Y-15993460D02*
X9172792Y-16002984D01*
X9172792Y-16002984D02*
X9134697Y-16002984D01*
X9134697Y-16002984D02*
X9115649Y-15993460D01*
X9115649Y-15993460D02*
X9106126Y-15983936D01*
X9106126Y-15983936D02*
X9096602Y-15964888D01*
X9096602Y-15964888D02*
X9096602Y-15907746D01*
X9096602Y-15907746D02*
X9106126Y-15888698D01*
X9106126Y-15888698D02*
X9115649Y-15879174D01*
X9115649Y-15879174D02*
X9134697Y-15869650D01*
X9134697Y-15869650D02*
X9172792Y-15869650D01*
X9172792Y-15869650D02*
X9191840Y-15879174D01*
X9268030Y-16079174D02*
X9277554Y-16069650D01*
X9277554Y-16069650D02*
X9296602Y-16041079D01*
X9296602Y-16041079D02*
X9306126Y-16022031D01*
X9306126Y-16022031D02*
X9315649Y-15993460D01*
X9315649Y-15993460D02*
X9325173Y-15945841D01*
X9325173Y-15945841D02*
X9325173Y-15907746D01*
X9325173Y-15907746D02*
X9315649Y-15860127D01*
X9315649Y-15860127D02*
X9306126Y-15831555D01*
X9306126Y-15831555D02*
X9296602Y-15812508D01*
X9296602Y-15812508D02*
X9277554Y-15783936D01*
X9277554Y-15783936D02*
X9268030Y-15774412D01*
X2131063Y-16206500D02*
G75*
G03*
X2131063Y-16206500I-100000J0D01*
G01*
X2372792Y-16097984D02*
X2496601Y-16097984D01*
X2496601Y-16097984D02*
X2429935Y-16174174D01*
X2429935Y-16174174D02*
X2458506Y-16174174D01*
X2458506Y-16174174D02*
X2477554Y-16183698D01*
X2477554Y-16183698D02*
X2487077Y-16193222D01*
X2487077Y-16193222D02*
X2496601Y-16212269D01*
X2496601Y-16212269D02*
X2496601Y-16259888D01*
X2496601Y-16259888D02*
X2487077Y-16278936D01*
X2487077Y-16278936D02*
X2477554Y-16288460D01*
X2477554Y-16288460D02*
X2458506Y-16297984D01*
X2458506Y-16297984D02*
X2401363Y-16297984D01*
X2401363Y-16297984D02*
X2382316Y-16288460D01*
X2382316Y-16288460D02*
X2372792Y-16278936D01*
X2582316Y-16278936D02*
X2591839Y-16288460D01*
X2591839Y-16288460D02*
X2582316Y-16297984D01*
X2582316Y-16297984D02*
X2572792Y-16288460D01*
X2572792Y-16288460D02*
X2582316Y-16278936D01*
X2582316Y-16278936D02*
X2582316Y-16297984D01*
X2715649Y-16097984D02*
X2734697Y-16097984D01*
X2734697Y-16097984D02*
X2753744Y-16107508D01*
X2753744Y-16107508D02*
X2763268Y-16117031D01*
X2763268Y-16117031D02*
X2772792Y-16136079D01*
X2772792Y-16136079D02*
X2782316Y-16174174D01*
X2782316Y-16174174D02*
X2782316Y-16221793D01*
X2782316Y-16221793D02*
X2772792Y-16259888D01*
X2772792Y-16259888D02*
X2763268Y-16278936D01*
X2763268Y-16278936D02*
X2753744Y-16288460D01*
X2753744Y-16288460D02*
X2734697Y-16297984D01*
X2734697Y-16297984D02*
X2715649Y-16297984D01*
X2715649Y-16297984D02*
X2696601Y-16288460D01*
X2696601Y-16288460D02*
X2687077Y-16278936D01*
X2687077Y-16278936D02*
X2677554Y-16259888D01*
X2677554Y-16259888D02*
X2668030Y-16221793D01*
X2668030Y-16221793D02*
X2668030Y-16174174D01*
X2668030Y-16174174D02*
X2677554Y-16136079D01*
X2677554Y-16136079D02*
X2687077Y-16117031D01*
X2687077Y-16117031D02*
X2696601Y-16107508D01*
X2696601Y-16107508D02*
X2715649Y-16097984D01*
X2953744Y-16164650D02*
X2953744Y-16297984D01*
X2906125Y-16088460D02*
X2858506Y-16231317D01*
X2858506Y-16231317D02*
X2982315Y-16231317D01*
X3087077Y-16183698D02*
X3068030Y-16174174D01*
X3068030Y-16174174D02*
X3058506Y-16164650D01*
X3058506Y-16164650D02*
X3048982Y-16145603D01*
X3048982Y-16145603D02*
X3048982Y-16136079D01*
X3048982Y-16136079D02*
X3058506Y-16117031D01*
X3058506Y-16117031D02*
X3068030Y-16107508D01*
X3068030Y-16107508D02*
X3087077Y-16097984D01*
X3087077Y-16097984D02*
X3125173Y-16097984D01*
X3125173Y-16097984D02*
X3144220Y-16107508D01*
X3144220Y-16107508D02*
X3153744Y-16117031D01*
X3153744Y-16117031D02*
X3163268Y-16136079D01*
X3163268Y-16136079D02*
X3163268Y-16145603D01*
X3163268Y-16145603D02*
X3153744Y-16164650D01*
X3153744Y-16164650D02*
X3144220Y-16174174D01*
X3144220Y-16174174D02*
X3125173Y-16183698D01*
X3125173Y-16183698D02*
X3087077Y-16183698D01*
X3087077Y-16183698D02*
X3068030Y-16193222D01*
X3068030Y-16193222D02*
X3058506Y-16202746D01*
X3058506Y-16202746D02*
X3048982Y-16221793D01*
X3048982Y-16221793D02*
X3048982Y-16259888D01*
X3048982Y-16259888D02*
X3058506Y-16278936D01*
X3058506Y-16278936D02*
X3068030Y-16288460D01*
X3068030Y-16288460D02*
X3087077Y-16297984D01*
X3087077Y-16297984D02*
X3125173Y-16297984D01*
X3125173Y-16297984D02*
X3144220Y-16288460D01*
X3144220Y-16288460D02*
X3153744Y-16278936D01*
X3153744Y-16278936D02*
X3163268Y-16259888D01*
X3163268Y-16259888D02*
X3163268Y-16221793D01*
X3163268Y-16221793D02*
X3153744Y-16202746D01*
X3153744Y-16202746D02*
X3144220Y-16193222D01*
X3144220Y-16193222D02*
X3125173Y-16183698D01*
X3248982Y-16297984D02*
X3248982Y-16164650D01*
X3248982Y-16183698D02*
X3258506Y-16174174D01*
X3258506Y-16174174D02*
X3277554Y-16164650D01*
X3277554Y-16164650D02*
X3306125Y-16164650D01*
X3306125Y-16164650D02*
X3325173Y-16174174D01*
X3325173Y-16174174D02*
X3334696Y-16193222D01*
X3334696Y-16193222D02*
X3334696Y-16297984D01*
X3334696Y-16193222D02*
X3344220Y-16174174D01*
X3344220Y-16174174D02*
X3363268Y-16164650D01*
X3363268Y-16164650D02*
X3391839Y-16164650D01*
X3391839Y-16164650D02*
X3410887Y-16174174D01*
X3410887Y-16174174D02*
X3420411Y-16193222D01*
X3420411Y-16193222D02*
X3420411Y-16297984D01*
X3515649Y-16297984D02*
X3515649Y-16164650D01*
X3515649Y-16183698D02*
X3525173Y-16174174D01*
X3525173Y-16174174D02*
X3544220Y-16164650D01*
X3544220Y-16164650D02*
X3572792Y-16164650D01*
X3572792Y-16164650D02*
X3591839Y-16174174D01*
X3591839Y-16174174D02*
X3601363Y-16193222D01*
X3601363Y-16193222D02*
X3601363Y-16297984D01*
X3601363Y-16193222D02*
X3610887Y-16174174D01*
X3610887Y-16174174D02*
X3629935Y-16164650D01*
X3629935Y-16164650D02*
X3658506Y-16164650D01*
X3658506Y-16164650D02*
X3677554Y-16174174D01*
X3677554Y-16174174D02*
X3687077Y-16193222D01*
X3687077Y-16193222D02*
X3687077Y-16297984D01*
X4077554Y-16088460D02*
X3906125Y-16345603D01*
X4334697Y-16097984D02*
X4353744Y-16097984D01*
X4353744Y-16097984D02*
X4372792Y-16107508D01*
X4372792Y-16107508D02*
X4382316Y-16117031D01*
X4382316Y-16117031D02*
X4391840Y-16136079D01*
X4391840Y-16136079D02*
X4401363Y-16174174D01*
X4401363Y-16174174D02*
X4401363Y-16221793D01*
X4401363Y-16221793D02*
X4391840Y-16259888D01*
X4391840Y-16259888D02*
X4382316Y-16278936D01*
X4382316Y-16278936D02*
X4372792Y-16288460D01*
X4372792Y-16288460D02*
X4353744Y-16297984D01*
X4353744Y-16297984D02*
X4334697Y-16297984D01*
X4334697Y-16297984D02*
X4315649Y-16288460D01*
X4315649Y-16288460D02*
X4306125Y-16278936D01*
X4306125Y-16278936D02*
X4296601Y-16259888D01*
X4296601Y-16259888D02*
X4287078Y-16221793D01*
X4287078Y-16221793D02*
X4287078Y-16174174D01*
X4287078Y-16174174D02*
X4296601Y-16136079D01*
X4296601Y-16136079D02*
X4306125Y-16117031D01*
X4306125Y-16117031D02*
X4315649Y-16107508D01*
X4315649Y-16107508D02*
X4334697Y-16097984D01*
X4487078Y-16278936D02*
X4496601Y-16288460D01*
X4496601Y-16288460D02*
X4487078Y-16297984D01*
X4487078Y-16297984D02*
X4477554Y-16288460D01*
X4477554Y-16288460D02*
X4487078Y-16278936D01*
X4487078Y-16278936D02*
X4487078Y-16297984D01*
X4687078Y-16297984D02*
X4572792Y-16297984D01*
X4629935Y-16297984D02*
X4629935Y-16097984D01*
X4629935Y-16097984D02*
X4610887Y-16126555D01*
X4610887Y-16126555D02*
X4591840Y-16145603D01*
X4591840Y-16145603D02*
X4572792Y-16155127D01*
X4763268Y-16117031D02*
X4772792Y-16107508D01*
X4772792Y-16107508D02*
X4791840Y-16097984D01*
X4791840Y-16097984D02*
X4839459Y-16097984D01*
X4839459Y-16097984D02*
X4858506Y-16107508D01*
X4858506Y-16107508D02*
X4868030Y-16117031D01*
X4868030Y-16117031D02*
X4877554Y-16136079D01*
X4877554Y-16136079D02*
X4877554Y-16155127D01*
X4877554Y-16155127D02*
X4868030Y-16183698D01*
X4868030Y-16183698D02*
X4753744Y-16297984D01*
X4753744Y-16297984D02*
X4877554Y-16297984D01*
X5001363Y-16097984D02*
X5020411Y-16097984D01*
X5020411Y-16097984D02*
X5039459Y-16107508D01*
X5039459Y-16107508D02*
X5048982Y-16117031D01*
X5048982Y-16117031D02*
X5058506Y-16136079D01*
X5058506Y-16136079D02*
X5068030Y-16174174D01*
X5068030Y-16174174D02*
X5068030Y-16221793D01*
X5068030Y-16221793D02*
X5058506Y-16259888D01*
X5058506Y-16259888D02*
X5048982Y-16278936D01*
X5048982Y-16278936D02*
X5039459Y-16288460D01*
X5039459Y-16288460D02*
X5020411Y-16297984D01*
X5020411Y-16297984D02*
X5001363Y-16297984D01*
X5001363Y-16297984D02*
X4982316Y-16288460D01*
X4982316Y-16288460D02*
X4972792Y-16278936D01*
X4972792Y-16278936D02*
X4963268Y-16259888D01*
X4963268Y-16259888D02*
X4953744Y-16221793D01*
X4953744Y-16221793D02*
X4953744Y-16174174D01*
X4953744Y-16174174D02*
X4963268Y-16136079D01*
X4963268Y-16136079D02*
X4972792Y-16117031D01*
X4972792Y-16117031D02*
X4982316Y-16107508D01*
X4982316Y-16107508D02*
X5001363Y-16097984D01*
X5191840Y-16097984D02*
X5210887Y-16097984D01*
X5210887Y-16097984D02*
X5229935Y-16107508D01*
X5229935Y-16107508D02*
X5239459Y-16117031D01*
X5239459Y-16117031D02*
X5248982Y-16136079D01*
X5248982Y-16136079D02*
X5258506Y-16174174D01*
X5258506Y-16174174D02*
X5258506Y-16221793D01*
X5258506Y-16221793D02*
X5248982Y-16259888D01*
X5248982Y-16259888D02*
X5239459Y-16278936D01*
X5239459Y-16278936D02*
X5229935Y-16288460D01*
X5229935Y-16288460D02*
X5210887Y-16297984D01*
X5210887Y-16297984D02*
X5191840Y-16297984D01*
X5191840Y-16297984D02*
X5172792Y-16288460D01*
X5172792Y-16288460D02*
X5163268Y-16278936D01*
X5163268Y-16278936D02*
X5153744Y-16259888D01*
X5153744Y-16259888D02*
X5144221Y-16221793D01*
X5144221Y-16221793D02*
X5144221Y-16174174D01*
X5144221Y-16174174D02*
X5153744Y-16136079D01*
X5153744Y-16136079D02*
X5163268Y-16117031D01*
X5163268Y-16117031D02*
X5172792Y-16107508D01*
X5172792Y-16107508D02*
X5191840Y-16097984D01*
X5334697Y-16097984D02*
X5334697Y-16136079D01*
X5410887Y-16097984D02*
X5410887Y-16136079D01*
X5706125Y-16374174D02*
X5696601Y-16364650D01*
X5696601Y-16364650D02*
X5677554Y-16336079D01*
X5677554Y-16336079D02*
X5668030Y-16317031D01*
X5668030Y-16317031D02*
X5658506Y-16288460D01*
X5658506Y-16288460D02*
X5648982Y-16240841D01*
X5648982Y-16240841D02*
X5648982Y-16202746D01*
X5648982Y-16202746D02*
X5658506Y-16155127D01*
X5658506Y-16155127D02*
X5668030Y-16126555D01*
X5668030Y-16126555D02*
X5677554Y-16107508D01*
X5677554Y-16107508D02*
X5696601Y-16078936D01*
X5696601Y-16078936D02*
X5706125Y-16069412D01*
X5810887Y-16183698D02*
X5791840Y-16174174D01*
X5791840Y-16174174D02*
X5782316Y-16164650D01*
X5782316Y-16164650D02*
X5772792Y-16145603D01*
X5772792Y-16145603D02*
X5772792Y-16136079D01*
X5772792Y-16136079D02*
X5782316Y-16117031D01*
X5782316Y-16117031D02*
X5791840Y-16107508D01*
X5791840Y-16107508D02*
X5810887Y-16097984D01*
X5810887Y-16097984D02*
X5848982Y-16097984D01*
X5848982Y-16097984D02*
X5868030Y-16107508D01*
X5868030Y-16107508D02*
X5877554Y-16117031D01*
X5877554Y-16117031D02*
X5887078Y-16136079D01*
X5887078Y-16136079D02*
X5887078Y-16145603D01*
X5887078Y-16145603D02*
X5877554Y-16164650D01*
X5877554Y-16164650D02*
X5868030Y-16174174D01*
X5868030Y-16174174D02*
X5848982Y-16183698D01*
X5848982Y-16183698D02*
X5810887Y-16183698D01*
X5810887Y-16183698D02*
X5791840Y-16193222D01*
X5791840Y-16193222D02*
X5782316Y-16202746D01*
X5782316Y-16202746D02*
X5772792Y-16221793D01*
X5772792Y-16221793D02*
X5772792Y-16259888D01*
X5772792Y-16259888D02*
X5782316Y-16278936D01*
X5782316Y-16278936D02*
X5791840Y-16288460D01*
X5791840Y-16288460D02*
X5810887Y-16297984D01*
X5810887Y-16297984D02*
X5848982Y-16297984D01*
X5848982Y-16297984D02*
X5868030Y-16288460D01*
X5868030Y-16288460D02*
X5877554Y-16278936D01*
X5877554Y-16278936D02*
X5887078Y-16259888D01*
X5887078Y-16259888D02*
X5887078Y-16221793D01*
X5887078Y-16221793D02*
X5877554Y-16202746D01*
X5877554Y-16202746D02*
X5868030Y-16193222D01*
X5868030Y-16193222D02*
X5848982Y-16183698D01*
X6125173Y-16297984D02*
X6125173Y-16097984D01*
X6210887Y-16297984D02*
X6210887Y-16193222D01*
X6210887Y-16193222D02*
X6201363Y-16174174D01*
X6201363Y-16174174D02*
X6182316Y-16164650D01*
X6182316Y-16164650D02*
X6153744Y-16164650D01*
X6153744Y-16164650D02*
X6134697Y-16174174D01*
X6134697Y-16174174D02*
X6125173Y-16183698D01*
X6334697Y-16297984D02*
X6315649Y-16288460D01*
X6315649Y-16288460D02*
X6306125Y-16278936D01*
X6306125Y-16278936D02*
X6296602Y-16259888D01*
X6296602Y-16259888D02*
X6296602Y-16202746D01*
X6296602Y-16202746D02*
X6306125Y-16183698D01*
X6306125Y-16183698D02*
X6315649Y-16174174D01*
X6315649Y-16174174D02*
X6334697Y-16164650D01*
X6334697Y-16164650D02*
X6363268Y-16164650D01*
X6363268Y-16164650D02*
X6382316Y-16174174D01*
X6382316Y-16174174D02*
X6391840Y-16183698D01*
X6391840Y-16183698D02*
X6401363Y-16202746D01*
X6401363Y-16202746D02*
X6401363Y-16259888D01*
X6401363Y-16259888D02*
X6391840Y-16278936D01*
X6391840Y-16278936D02*
X6382316Y-16288460D01*
X6382316Y-16288460D02*
X6363268Y-16297984D01*
X6363268Y-16297984D02*
X6334697Y-16297984D01*
X6515649Y-16297984D02*
X6496602Y-16288460D01*
X6496602Y-16288460D02*
X6487078Y-16269412D01*
X6487078Y-16269412D02*
X6487078Y-16097984D01*
X6668030Y-16288460D02*
X6648983Y-16297984D01*
X6648983Y-16297984D02*
X6610887Y-16297984D01*
X6610887Y-16297984D02*
X6591840Y-16288460D01*
X6591840Y-16288460D02*
X6582316Y-16269412D01*
X6582316Y-16269412D02*
X6582316Y-16193222D01*
X6582316Y-16193222D02*
X6591840Y-16174174D01*
X6591840Y-16174174D02*
X6610887Y-16164650D01*
X6610887Y-16164650D02*
X6648983Y-16164650D01*
X6648983Y-16164650D02*
X6668030Y-16174174D01*
X6668030Y-16174174D02*
X6677554Y-16193222D01*
X6677554Y-16193222D02*
X6677554Y-16212269D01*
X6677554Y-16212269D02*
X6582316Y-16231317D01*
X6753744Y-16288460D02*
X6772792Y-16297984D01*
X6772792Y-16297984D02*
X6810887Y-16297984D01*
X6810887Y-16297984D02*
X6829935Y-16288460D01*
X6829935Y-16288460D02*
X6839459Y-16269412D01*
X6839459Y-16269412D02*
X6839459Y-16259888D01*
X6839459Y-16259888D02*
X6829935Y-16240841D01*
X6829935Y-16240841D02*
X6810887Y-16231317D01*
X6810887Y-16231317D02*
X6782316Y-16231317D01*
X6782316Y-16231317D02*
X6763268Y-16221793D01*
X6763268Y-16221793D02*
X6753744Y-16202746D01*
X6753744Y-16202746D02*
X6753744Y-16193222D01*
X6753744Y-16193222D02*
X6763268Y-16174174D01*
X6763268Y-16174174D02*
X6782316Y-16164650D01*
X6782316Y-16164650D02*
X6810887Y-16164650D01*
X6810887Y-16164650D02*
X6829935Y-16174174D01*
X6906125Y-16374174D02*
X6915649Y-16364650D01*
X6915649Y-16364650D02*
X6934697Y-16336079D01*
X6934697Y-16336079D02*
X6944221Y-16317031D01*
X6944221Y-16317031D02*
X6953744Y-16288460D01*
X6953744Y-16288460D02*
X6963268Y-16240841D01*
X6963268Y-16240841D02*
X6963268Y-16202746D01*
X6963268Y-16202746D02*
X6953744Y-16155127D01*
X6953744Y-16155127D02*
X6944221Y-16126555D01*
X6944221Y-16126555D02*
X6934697Y-16107508D01*
X6934697Y-16107508D02*
X6915649Y-16078936D01*
X6915649Y-16078936D02*
X6906125Y-16069412D01*
X7268030Y-16374174D02*
X7258506Y-16364650D01*
X7258506Y-16364650D02*
X7239459Y-16336079D01*
X7239459Y-16336079D02*
X7229935Y-16317031D01*
X7229935Y-16317031D02*
X7220411Y-16288460D01*
X7220411Y-16288460D02*
X7210887Y-16240841D01*
X7210887Y-16240841D02*
X7210887Y-16202746D01*
X7210887Y-16202746D02*
X7220411Y-16155127D01*
X7220411Y-16155127D02*
X7229935Y-16126555D01*
X7229935Y-16126555D02*
X7239459Y-16107508D01*
X7239459Y-16107508D02*
X7258506Y-16078936D01*
X7258506Y-16078936D02*
X7268030Y-16069412D01*
X7344221Y-16164650D02*
X7344221Y-16297984D01*
X7344221Y-16183698D02*
X7353744Y-16174174D01*
X7353744Y-16174174D02*
X7372792Y-16164650D01*
X7372792Y-16164650D02*
X7401364Y-16164650D01*
X7401364Y-16164650D02*
X7420411Y-16174174D01*
X7420411Y-16174174D02*
X7429935Y-16193222D01*
X7429935Y-16193222D02*
X7429935Y-16297984D01*
X7553744Y-16297984D02*
X7534697Y-16288460D01*
X7534697Y-16288460D02*
X7525173Y-16278936D01*
X7525173Y-16278936D02*
X7515649Y-16259888D01*
X7515649Y-16259888D02*
X7515649Y-16202746D01*
X7515649Y-16202746D02*
X7525173Y-16183698D01*
X7525173Y-16183698D02*
X7534697Y-16174174D01*
X7534697Y-16174174D02*
X7553744Y-16164650D01*
X7553744Y-16164650D02*
X7582316Y-16164650D01*
X7582316Y-16164650D02*
X7601364Y-16174174D01*
X7601364Y-16174174D02*
X7610887Y-16183698D01*
X7610887Y-16183698D02*
X7620411Y-16202746D01*
X7620411Y-16202746D02*
X7620411Y-16259888D01*
X7620411Y-16259888D02*
X7610887Y-16278936D01*
X7610887Y-16278936D02*
X7601364Y-16288460D01*
X7601364Y-16288460D02*
X7582316Y-16297984D01*
X7582316Y-16297984D02*
X7553744Y-16297984D01*
X7677554Y-16164650D02*
X7753744Y-16164650D01*
X7706125Y-16097984D02*
X7706125Y-16269412D01*
X7706125Y-16269412D02*
X7715649Y-16288460D01*
X7715649Y-16288460D02*
X7734697Y-16297984D01*
X7734697Y-16297984D02*
X7753744Y-16297984D01*
X7972792Y-16164650D02*
X7972792Y-16364650D01*
X7972792Y-16174174D02*
X7991840Y-16164650D01*
X7991840Y-16164650D02*
X8029935Y-16164650D01*
X8029935Y-16164650D02*
X8048983Y-16174174D01*
X8048983Y-16174174D02*
X8058506Y-16183698D01*
X8058506Y-16183698D02*
X8068030Y-16202746D01*
X8068030Y-16202746D02*
X8068030Y-16259888D01*
X8068030Y-16259888D02*
X8058506Y-16278936D01*
X8058506Y-16278936D02*
X8048983Y-16288460D01*
X8048983Y-16288460D02*
X8029935Y-16297984D01*
X8029935Y-16297984D02*
X7991840Y-16297984D01*
X7991840Y-16297984D02*
X7972792Y-16288460D01*
X8182316Y-16297984D02*
X8163268Y-16288460D01*
X8163268Y-16288460D02*
X8153745Y-16269412D01*
X8153745Y-16269412D02*
X8153745Y-16097984D01*
X8344221Y-16297984D02*
X8344221Y-16193222D01*
X8344221Y-16193222D02*
X8334697Y-16174174D01*
X8334697Y-16174174D02*
X8315649Y-16164650D01*
X8315649Y-16164650D02*
X8277554Y-16164650D01*
X8277554Y-16164650D02*
X8258506Y-16174174D01*
X8344221Y-16288460D02*
X8325173Y-16297984D01*
X8325173Y-16297984D02*
X8277554Y-16297984D01*
X8277554Y-16297984D02*
X8258506Y-16288460D01*
X8258506Y-16288460D02*
X8248983Y-16269412D01*
X8248983Y-16269412D02*
X8248983Y-16250365D01*
X8248983Y-16250365D02*
X8258506Y-16231317D01*
X8258506Y-16231317D02*
X8277554Y-16221793D01*
X8277554Y-16221793D02*
X8325173Y-16221793D01*
X8325173Y-16221793D02*
X8344221Y-16212269D01*
X8410888Y-16164650D02*
X8487078Y-16164650D01*
X8439459Y-16097984D02*
X8439459Y-16269412D01*
X8439459Y-16269412D02*
X8448983Y-16288460D01*
X8448983Y-16288460D02*
X8468030Y-16297984D01*
X8468030Y-16297984D02*
X8487078Y-16297984D01*
X8629935Y-16288460D02*
X8610888Y-16297984D01*
X8610888Y-16297984D02*
X8572792Y-16297984D01*
X8572792Y-16297984D02*
X8553745Y-16288460D01*
X8553745Y-16288460D02*
X8544221Y-16269412D01*
X8544221Y-16269412D02*
X8544221Y-16193222D01*
X8544221Y-16193222D02*
X8553745Y-16174174D01*
X8553745Y-16174174D02*
X8572792Y-16164650D01*
X8572792Y-16164650D02*
X8610888Y-16164650D01*
X8610888Y-16164650D02*
X8629935Y-16174174D01*
X8629935Y-16174174D02*
X8639459Y-16193222D01*
X8639459Y-16193222D02*
X8639459Y-16212269D01*
X8639459Y-16212269D02*
X8544221Y-16231317D01*
X8810888Y-16297984D02*
X8810888Y-16097984D01*
X8810888Y-16288460D02*
X8791840Y-16297984D01*
X8791840Y-16297984D02*
X8753745Y-16297984D01*
X8753745Y-16297984D02*
X8734697Y-16288460D01*
X8734697Y-16288460D02*
X8725173Y-16278936D01*
X8725173Y-16278936D02*
X8715649Y-16259888D01*
X8715649Y-16259888D02*
X8715649Y-16202746D01*
X8715649Y-16202746D02*
X8725173Y-16183698D01*
X8725173Y-16183698D02*
X8734697Y-16174174D01*
X8734697Y-16174174D02*
X8753745Y-16164650D01*
X8753745Y-16164650D02*
X8791840Y-16164650D01*
X8791840Y-16164650D02*
X8810888Y-16174174D01*
X8887078Y-16374174D02*
X8896602Y-16364650D01*
X8896602Y-16364650D02*
X8915649Y-16336079D01*
X8915649Y-16336079D02*
X8925173Y-16317031D01*
X8925173Y-16317031D02*
X8934697Y-16288460D01*
X8934697Y-16288460D02*
X8944221Y-16240841D01*
X8944221Y-16240841D02*
X8944221Y-16202746D01*
X8944221Y-16202746D02*
X8934697Y-16155127D01*
X8934697Y-16155127D02*
X8925173Y-16126555D01*
X8925173Y-16126555D02*
X8915649Y-16107508D01*
X8915649Y-16107508D02*
X8896602Y-16078936D01*
X8896602Y-16078936D02*
X8887078Y-16069412D01*
X2031062Y-16426500D02*
X2031062Y-16626500D01*
X1931062Y-16526500D02*
X2131063Y-16526500D01*
X2372792Y-16417984D02*
X2496601Y-16417984D01*
X2496601Y-16417984D02*
X2429935Y-16494174D01*
X2429935Y-16494174D02*
X2458506Y-16494174D01*
X2458506Y-16494174D02*
X2477554Y-16503698D01*
X2477554Y-16503698D02*
X2487077Y-16513222D01*
X2487077Y-16513222D02*
X2496601Y-16532269D01*
X2496601Y-16532269D02*
X2496601Y-16579888D01*
X2496601Y-16579888D02*
X2487077Y-16598936D01*
X2487077Y-16598936D02*
X2477554Y-16608460D01*
X2477554Y-16608460D02*
X2458506Y-16617984D01*
X2458506Y-16617984D02*
X2401363Y-16617984D01*
X2401363Y-16617984D02*
X2382316Y-16608460D01*
X2382316Y-16608460D02*
X2372792Y-16598936D01*
X2582316Y-16598936D02*
X2591839Y-16608460D01*
X2591839Y-16608460D02*
X2582316Y-16617984D01*
X2582316Y-16617984D02*
X2572792Y-16608460D01*
X2572792Y-16608460D02*
X2582316Y-16598936D01*
X2582316Y-16598936D02*
X2582316Y-16617984D01*
X2668030Y-16437031D02*
X2677554Y-16427508D01*
X2677554Y-16427508D02*
X2696601Y-16417984D01*
X2696601Y-16417984D02*
X2744220Y-16417984D01*
X2744220Y-16417984D02*
X2763268Y-16427508D01*
X2763268Y-16427508D02*
X2772792Y-16437031D01*
X2772792Y-16437031D02*
X2782316Y-16456079D01*
X2782316Y-16456079D02*
X2782316Y-16475127D01*
X2782316Y-16475127D02*
X2772792Y-16503698D01*
X2772792Y-16503698D02*
X2658506Y-16617984D01*
X2658506Y-16617984D02*
X2782316Y-16617984D01*
X2906125Y-16417984D02*
X2925173Y-16417984D01*
X2925173Y-16417984D02*
X2944220Y-16427508D01*
X2944220Y-16427508D02*
X2953744Y-16437031D01*
X2953744Y-16437031D02*
X2963268Y-16456079D01*
X2963268Y-16456079D02*
X2972792Y-16494174D01*
X2972792Y-16494174D02*
X2972792Y-16541793D01*
X2972792Y-16541793D02*
X2963268Y-16579888D01*
X2963268Y-16579888D02*
X2953744Y-16598936D01*
X2953744Y-16598936D02*
X2944220Y-16608460D01*
X2944220Y-16608460D02*
X2925173Y-16617984D01*
X2925173Y-16617984D02*
X2906125Y-16617984D01*
X2906125Y-16617984D02*
X2887077Y-16608460D01*
X2887077Y-16608460D02*
X2877554Y-16598936D01*
X2877554Y-16598936D02*
X2868030Y-16579888D01*
X2868030Y-16579888D02*
X2858506Y-16541793D01*
X2858506Y-16541793D02*
X2858506Y-16494174D01*
X2858506Y-16494174D02*
X2868030Y-16456079D01*
X2868030Y-16456079D02*
X2877554Y-16437031D01*
X2877554Y-16437031D02*
X2887077Y-16427508D01*
X2887077Y-16427508D02*
X2906125Y-16417984D01*
X3096601Y-16417984D02*
X3115649Y-16417984D01*
X3115649Y-16417984D02*
X3134696Y-16427508D01*
X3134696Y-16427508D02*
X3144220Y-16437031D01*
X3144220Y-16437031D02*
X3153744Y-16456079D01*
X3153744Y-16456079D02*
X3163268Y-16494174D01*
X3163268Y-16494174D02*
X3163268Y-16541793D01*
X3163268Y-16541793D02*
X3153744Y-16579888D01*
X3153744Y-16579888D02*
X3144220Y-16598936D01*
X3144220Y-16598936D02*
X3134696Y-16608460D01*
X3134696Y-16608460D02*
X3115649Y-16617984D01*
X3115649Y-16617984D02*
X3096601Y-16617984D01*
X3096601Y-16617984D02*
X3077554Y-16608460D01*
X3077554Y-16608460D02*
X3068030Y-16598936D01*
X3068030Y-16598936D02*
X3058506Y-16579888D01*
X3058506Y-16579888D02*
X3048982Y-16541793D01*
X3048982Y-16541793D02*
X3048982Y-16494174D01*
X3048982Y-16494174D02*
X3058506Y-16456079D01*
X3058506Y-16456079D02*
X3068030Y-16437031D01*
X3068030Y-16437031D02*
X3077554Y-16427508D01*
X3077554Y-16427508D02*
X3096601Y-16417984D01*
X3248982Y-16617984D02*
X3248982Y-16484650D01*
X3248982Y-16503698D02*
X3258506Y-16494174D01*
X3258506Y-16494174D02*
X3277554Y-16484650D01*
X3277554Y-16484650D02*
X3306125Y-16484650D01*
X3306125Y-16484650D02*
X3325173Y-16494174D01*
X3325173Y-16494174D02*
X3334696Y-16513222D01*
X3334696Y-16513222D02*
X3334696Y-16617984D01*
X3334696Y-16513222D02*
X3344220Y-16494174D01*
X3344220Y-16494174D02*
X3363268Y-16484650D01*
X3363268Y-16484650D02*
X3391839Y-16484650D01*
X3391839Y-16484650D02*
X3410887Y-16494174D01*
X3410887Y-16494174D02*
X3420411Y-16513222D01*
X3420411Y-16513222D02*
X3420411Y-16617984D01*
X3515649Y-16617984D02*
X3515649Y-16484650D01*
X3515649Y-16503698D02*
X3525173Y-16494174D01*
X3525173Y-16494174D02*
X3544220Y-16484650D01*
X3544220Y-16484650D02*
X3572792Y-16484650D01*
X3572792Y-16484650D02*
X3591839Y-16494174D01*
X3591839Y-16494174D02*
X3601363Y-16513222D01*
X3601363Y-16513222D02*
X3601363Y-16617984D01*
X3601363Y-16513222D02*
X3610887Y-16494174D01*
X3610887Y-16494174D02*
X3629935Y-16484650D01*
X3629935Y-16484650D02*
X3658506Y-16484650D01*
X3658506Y-16484650D02*
X3677554Y-16494174D01*
X3677554Y-16494174D02*
X3687077Y-16513222D01*
X3687077Y-16513222D02*
X3687077Y-16617984D01*
X4077554Y-16408460D02*
X3906125Y-16665603D01*
X4334697Y-16417984D02*
X4353744Y-16417984D01*
X4353744Y-16417984D02*
X4372792Y-16427508D01*
X4372792Y-16427508D02*
X4382316Y-16437031D01*
X4382316Y-16437031D02*
X4391840Y-16456079D01*
X4391840Y-16456079D02*
X4401363Y-16494174D01*
X4401363Y-16494174D02*
X4401363Y-16541793D01*
X4401363Y-16541793D02*
X4391840Y-16579888D01*
X4391840Y-16579888D02*
X4382316Y-16598936D01*
X4382316Y-16598936D02*
X4372792Y-16608460D01*
X4372792Y-16608460D02*
X4353744Y-16617984D01*
X4353744Y-16617984D02*
X4334697Y-16617984D01*
X4334697Y-16617984D02*
X4315649Y-16608460D01*
X4315649Y-16608460D02*
X4306125Y-16598936D01*
X4306125Y-16598936D02*
X4296601Y-16579888D01*
X4296601Y-16579888D02*
X4287078Y-16541793D01*
X4287078Y-16541793D02*
X4287078Y-16494174D01*
X4287078Y-16494174D02*
X4296601Y-16456079D01*
X4296601Y-16456079D02*
X4306125Y-16437031D01*
X4306125Y-16437031D02*
X4315649Y-16427508D01*
X4315649Y-16427508D02*
X4334697Y-16417984D01*
X4487078Y-16598936D02*
X4496601Y-16608460D01*
X4496601Y-16608460D02*
X4487078Y-16617984D01*
X4487078Y-16617984D02*
X4477554Y-16608460D01*
X4477554Y-16608460D02*
X4487078Y-16598936D01*
X4487078Y-16598936D02*
X4487078Y-16617984D01*
X4687078Y-16617984D02*
X4572792Y-16617984D01*
X4629935Y-16617984D02*
X4629935Y-16417984D01*
X4629935Y-16417984D02*
X4610887Y-16446555D01*
X4610887Y-16446555D02*
X4591840Y-16465603D01*
X4591840Y-16465603D02*
X4572792Y-16475127D01*
X4763268Y-16437031D02*
X4772792Y-16427508D01*
X4772792Y-16427508D02*
X4791840Y-16417984D01*
X4791840Y-16417984D02*
X4839459Y-16417984D01*
X4839459Y-16417984D02*
X4858506Y-16427508D01*
X4858506Y-16427508D02*
X4868030Y-16437031D01*
X4868030Y-16437031D02*
X4877554Y-16456079D01*
X4877554Y-16456079D02*
X4877554Y-16475127D01*
X4877554Y-16475127D02*
X4868030Y-16503698D01*
X4868030Y-16503698D02*
X4753744Y-16617984D01*
X4753744Y-16617984D02*
X4877554Y-16617984D01*
X5048982Y-16417984D02*
X5010887Y-16417984D01*
X5010887Y-16417984D02*
X4991840Y-16427508D01*
X4991840Y-16427508D02*
X4982316Y-16437031D01*
X4982316Y-16437031D02*
X4963268Y-16465603D01*
X4963268Y-16465603D02*
X4953744Y-16503698D01*
X4953744Y-16503698D02*
X4953744Y-16579888D01*
X4953744Y-16579888D02*
X4963268Y-16598936D01*
X4963268Y-16598936D02*
X4972792Y-16608460D01*
X4972792Y-16608460D02*
X4991840Y-16617984D01*
X4991840Y-16617984D02*
X5029935Y-16617984D01*
X5029935Y-16617984D02*
X5048982Y-16608460D01*
X5048982Y-16608460D02*
X5058506Y-16598936D01*
X5058506Y-16598936D02*
X5068030Y-16579888D01*
X5068030Y-16579888D02*
X5068030Y-16532269D01*
X5068030Y-16532269D02*
X5058506Y-16513222D01*
X5058506Y-16513222D02*
X5048982Y-16503698D01*
X5048982Y-16503698D02*
X5029935Y-16494174D01*
X5029935Y-16494174D02*
X4991840Y-16494174D01*
X4991840Y-16494174D02*
X4972792Y-16503698D01*
X4972792Y-16503698D02*
X4963268Y-16513222D01*
X4963268Y-16513222D02*
X4953744Y-16532269D01*
X5191840Y-16417984D02*
X5210887Y-16417984D01*
X5210887Y-16417984D02*
X5229935Y-16427508D01*
X5229935Y-16427508D02*
X5239459Y-16437031D01*
X5239459Y-16437031D02*
X5248982Y-16456079D01*
X5248982Y-16456079D02*
X5258506Y-16494174D01*
X5258506Y-16494174D02*
X5258506Y-16541793D01*
X5258506Y-16541793D02*
X5248982Y-16579888D01*
X5248982Y-16579888D02*
X5239459Y-16598936D01*
X5239459Y-16598936D02*
X5229935Y-16608460D01*
X5229935Y-16608460D02*
X5210887Y-16617984D01*
X5210887Y-16617984D02*
X5191840Y-16617984D01*
X5191840Y-16617984D02*
X5172792Y-16608460D01*
X5172792Y-16608460D02*
X5163268Y-16598936D01*
X5163268Y-16598936D02*
X5153744Y-16579888D01*
X5153744Y-16579888D02*
X5144221Y-16541793D01*
X5144221Y-16541793D02*
X5144221Y-16494174D01*
X5144221Y-16494174D02*
X5153744Y-16456079D01*
X5153744Y-16456079D02*
X5163268Y-16437031D01*
X5163268Y-16437031D02*
X5172792Y-16427508D01*
X5172792Y-16427508D02*
X5191840Y-16417984D01*
X5334697Y-16417984D02*
X5334697Y-16456079D01*
X5410887Y-16417984D02*
X5410887Y-16456079D01*
X5706125Y-16694174D02*
X5696601Y-16684650D01*
X5696601Y-16684650D02*
X5677554Y-16656079D01*
X5677554Y-16656079D02*
X5668030Y-16637031D01*
X5668030Y-16637031D02*
X5658506Y-16608460D01*
X5658506Y-16608460D02*
X5648982Y-16560841D01*
X5648982Y-16560841D02*
X5648982Y-16522746D01*
X5648982Y-16522746D02*
X5658506Y-16475127D01*
X5658506Y-16475127D02*
X5668030Y-16446555D01*
X5668030Y-16446555D02*
X5677554Y-16427508D01*
X5677554Y-16427508D02*
X5696601Y-16398936D01*
X5696601Y-16398936D02*
X5706125Y-16389412D01*
X5868030Y-16417984D02*
X5829935Y-16417984D01*
X5829935Y-16417984D02*
X5810887Y-16427508D01*
X5810887Y-16427508D02*
X5801363Y-16437031D01*
X5801363Y-16437031D02*
X5782316Y-16465603D01*
X5782316Y-16465603D02*
X5772792Y-16503698D01*
X5772792Y-16503698D02*
X5772792Y-16579888D01*
X5772792Y-16579888D02*
X5782316Y-16598936D01*
X5782316Y-16598936D02*
X5791840Y-16608460D01*
X5791840Y-16608460D02*
X5810887Y-16617984D01*
X5810887Y-16617984D02*
X5848982Y-16617984D01*
X5848982Y-16617984D02*
X5868030Y-16608460D01*
X5868030Y-16608460D02*
X5877554Y-16598936D01*
X5877554Y-16598936D02*
X5887078Y-16579888D01*
X5887078Y-16579888D02*
X5887078Y-16532269D01*
X5887078Y-16532269D02*
X5877554Y-16513222D01*
X5877554Y-16513222D02*
X5868030Y-16503698D01*
X5868030Y-16503698D02*
X5848982Y-16494174D01*
X5848982Y-16494174D02*
X5810887Y-16494174D01*
X5810887Y-16494174D02*
X5791840Y-16503698D01*
X5791840Y-16503698D02*
X5782316Y-16513222D01*
X5782316Y-16513222D02*
X5772792Y-16532269D01*
X6125173Y-16617984D02*
X6125173Y-16417984D01*
X6210887Y-16617984D02*
X6210887Y-16513222D01*
X6210887Y-16513222D02*
X6201363Y-16494174D01*
X6201363Y-16494174D02*
X6182316Y-16484650D01*
X6182316Y-16484650D02*
X6153744Y-16484650D01*
X6153744Y-16484650D02*
X6134697Y-16494174D01*
X6134697Y-16494174D02*
X6125173Y-16503698D01*
X6334697Y-16617984D02*
X6315649Y-16608460D01*
X6315649Y-16608460D02*
X6306125Y-16598936D01*
X6306125Y-16598936D02*
X6296602Y-16579888D01*
X6296602Y-16579888D02*
X6296602Y-16522746D01*
X6296602Y-16522746D02*
X6306125Y-16503698D01*
X6306125Y-16503698D02*
X6315649Y-16494174D01*
X6315649Y-16494174D02*
X6334697Y-16484650D01*
X6334697Y-16484650D02*
X6363268Y-16484650D01*
X6363268Y-16484650D02*
X6382316Y-16494174D01*
X6382316Y-16494174D02*
X6391840Y-16503698D01*
X6391840Y-16503698D02*
X6401363Y-16522746D01*
X6401363Y-16522746D02*
X6401363Y-16579888D01*
X6401363Y-16579888D02*
X6391840Y-16598936D01*
X6391840Y-16598936D02*
X6382316Y-16608460D01*
X6382316Y-16608460D02*
X6363268Y-16617984D01*
X6363268Y-16617984D02*
X6334697Y-16617984D01*
X6515649Y-16617984D02*
X6496602Y-16608460D01*
X6496602Y-16608460D02*
X6487078Y-16589412D01*
X6487078Y-16589412D02*
X6487078Y-16417984D01*
X6668030Y-16608460D02*
X6648983Y-16617984D01*
X6648983Y-16617984D02*
X6610887Y-16617984D01*
X6610887Y-16617984D02*
X6591840Y-16608460D01*
X6591840Y-16608460D02*
X6582316Y-16589412D01*
X6582316Y-16589412D02*
X6582316Y-16513222D01*
X6582316Y-16513222D02*
X6591840Y-16494174D01*
X6591840Y-16494174D02*
X6610887Y-16484650D01*
X6610887Y-16484650D02*
X6648983Y-16484650D01*
X6648983Y-16484650D02*
X6668030Y-16494174D01*
X6668030Y-16494174D02*
X6677554Y-16513222D01*
X6677554Y-16513222D02*
X6677554Y-16532269D01*
X6677554Y-16532269D02*
X6582316Y-16551317D01*
X6753744Y-16608460D02*
X6772792Y-16617984D01*
X6772792Y-16617984D02*
X6810887Y-16617984D01*
X6810887Y-16617984D02*
X6829935Y-16608460D01*
X6829935Y-16608460D02*
X6839459Y-16589412D01*
X6839459Y-16589412D02*
X6839459Y-16579888D01*
X6839459Y-16579888D02*
X6829935Y-16560841D01*
X6829935Y-16560841D02*
X6810887Y-16551317D01*
X6810887Y-16551317D02*
X6782316Y-16551317D01*
X6782316Y-16551317D02*
X6763268Y-16541793D01*
X6763268Y-16541793D02*
X6753744Y-16522746D01*
X6753744Y-16522746D02*
X6753744Y-16513222D01*
X6753744Y-16513222D02*
X6763268Y-16494174D01*
X6763268Y-16494174D02*
X6782316Y-16484650D01*
X6782316Y-16484650D02*
X6810887Y-16484650D01*
X6810887Y-16484650D02*
X6829935Y-16494174D01*
X6906125Y-16694174D02*
X6915649Y-16684650D01*
X6915649Y-16684650D02*
X6934697Y-16656079D01*
X6934697Y-16656079D02*
X6944221Y-16637031D01*
X6944221Y-16637031D02*
X6953744Y-16608460D01*
X6953744Y-16608460D02*
X6963268Y-16560841D01*
X6963268Y-16560841D02*
X6963268Y-16522746D01*
X6963268Y-16522746D02*
X6953744Y-16475127D01*
X6953744Y-16475127D02*
X6944221Y-16446555D01*
X6944221Y-16446555D02*
X6934697Y-16427508D01*
X6934697Y-16427508D02*
X6915649Y-16398936D01*
X6915649Y-16398936D02*
X6906125Y-16389412D01*
X7268030Y-16694174D02*
X7258506Y-16684650D01*
X7258506Y-16684650D02*
X7239459Y-16656079D01*
X7239459Y-16656079D02*
X7229935Y-16637031D01*
X7229935Y-16637031D02*
X7220411Y-16608460D01*
X7220411Y-16608460D02*
X7210887Y-16560841D01*
X7210887Y-16560841D02*
X7210887Y-16522746D01*
X7210887Y-16522746D02*
X7220411Y-16475127D01*
X7220411Y-16475127D02*
X7229935Y-16446555D01*
X7229935Y-16446555D02*
X7239459Y-16427508D01*
X7239459Y-16427508D02*
X7258506Y-16398936D01*
X7258506Y-16398936D02*
X7268030Y-16389412D01*
X7344221Y-16484650D02*
X7344221Y-16617984D01*
X7344221Y-16503698D02*
X7353744Y-16494174D01*
X7353744Y-16494174D02*
X7372792Y-16484650D01*
X7372792Y-16484650D02*
X7401364Y-16484650D01*
X7401364Y-16484650D02*
X7420411Y-16494174D01*
X7420411Y-16494174D02*
X7429935Y-16513222D01*
X7429935Y-16513222D02*
X7429935Y-16617984D01*
X7553744Y-16617984D02*
X7534697Y-16608460D01*
X7534697Y-16608460D02*
X7525173Y-16598936D01*
X7525173Y-16598936D02*
X7515649Y-16579888D01*
X7515649Y-16579888D02*
X7515649Y-16522746D01*
X7515649Y-16522746D02*
X7525173Y-16503698D01*
X7525173Y-16503698D02*
X7534697Y-16494174D01*
X7534697Y-16494174D02*
X7553744Y-16484650D01*
X7553744Y-16484650D02*
X7582316Y-16484650D01*
X7582316Y-16484650D02*
X7601364Y-16494174D01*
X7601364Y-16494174D02*
X7610887Y-16503698D01*
X7610887Y-16503698D02*
X7620411Y-16522746D01*
X7620411Y-16522746D02*
X7620411Y-16579888D01*
X7620411Y-16579888D02*
X7610887Y-16598936D01*
X7610887Y-16598936D02*
X7601364Y-16608460D01*
X7601364Y-16608460D02*
X7582316Y-16617984D01*
X7582316Y-16617984D02*
X7553744Y-16617984D01*
X7677554Y-16484650D02*
X7753744Y-16484650D01*
X7706125Y-16417984D02*
X7706125Y-16589412D01*
X7706125Y-16589412D02*
X7715649Y-16608460D01*
X7715649Y-16608460D02*
X7734697Y-16617984D01*
X7734697Y-16617984D02*
X7753744Y-16617984D01*
X7972792Y-16484650D02*
X7972792Y-16684650D01*
X7972792Y-16494174D02*
X7991840Y-16484650D01*
X7991840Y-16484650D02*
X8029935Y-16484650D01*
X8029935Y-16484650D02*
X8048983Y-16494174D01*
X8048983Y-16494174D02*
X8058506Y-16503698D01*
X8058506Y-16503698D02*
X8068030Y-16522746D01*
X8068030Y-16522746D02*
X8068030Y-16579888D01*
X8068030Y-16579888D02*
X8058506Y-16598936D01*
X8058506Y-16598936D02*
X8048983Y-16608460D01*
X8048983Y-16608460D02*
X8029935Y-16617984D01*
X8029935Y-16617984D02*
X7991840Y-16617984D01*
X7991840Y-16617984D02*
X7972792Y-16608460D01*
X8182316Y-16617984D02*
X8163268Y-16608460D01*
X8163268Y-16608460D02*
X8153745Y-16589412D01*
X8153745Y-16589412D02*
X8153745Y-16417984D01*
X8344221Y-16617984D02*
X8344221Y-16513222D01*
X8344221Y-16513222D02*
X8334697Y-16494174D01*
X8334697Y-16494174D02*
X8315649Y-16484650D01*
X8315649Y-16484650D02*
X8277554Y-16484650D01*
X8277554Y-16484650D02*
X8258506Y-16494174D01*
X8344221Y-16608460D02*
X8325173Y-16617984D01*
X8325173Y-16617984D02*
X8277554Y-16617984D01*
X8277554Y-16617984D02*
X8258506Y-16608460D01*
X8258506Y-16608460D02*
X8248983Y-16589412D01*
X8248983Y-16589412D02*
X8248983Y-16570365D01*
X8248983Y-16570365D02*
X8258506Y-16551317D01*
X8258506Y-16551317D02*
X8277554Y-16541793D01*
X8277554Y-16541793D02*
X8325173Y-16541793D01*
X8325173Y-16541793D02*
X8344221Y-16532269D01*
X8410888Y-16484650D02*
X8487078Y-16484650D01*
X8439459Y-16417984D02*
X8439459Y-16589412D01*
X8439459Y-16589412D02*
X8448983Y-16608460D01*
X8448983Y-16608460D02*
X8468030Y-16617984D01*
X8468030Y-16617984D02*
X8487078Y-16617984D01*
X8629935Y-16608460D02*
X8610888Y-16617984D01*
X8610888Y-16617984D02*
X8572792Y-16617984D01*
X8572792Y-16617984D02*
X8553745Y-16608460D01*
X8553745Y-16608460D02*
X8544221Y-16589412D01*
X8544221Y-16589412D02*
X8544221Y-16513222D01*
X8544221Y-16513222D02*
X8553745Y-16494174D01*
X8553745Y-16494174D02*
X8572792Y-16484650D01*
X8572792Y-16484650D02*
X8610888Y-16484650D01*
X8610888Y-16484650D02*
X8629935Y-16494174D01*
X8629935Y-16494174D02*
X8639459Y-16513222D01*
X8639459Y-16513222D02*
X8639459Y-16532269D01*
X8639459Y-16532269D02*
X8544221Y-16551317D01*
X8810888Y-16617984D02*
X8810888Y-16417984D01*
X8810888Y-16608460D02*
X8791840Y-16617984D01*
X8791840Y-16617984D02*
X8753745Y-16617984D01*
X8753745Y-16617984D02*
X8734697Y-16608460D01*
X8734697Y-16608460D02*
X8725173Y-16598936D01*
X8725173Y-16598936D02*
X8715649Y-16579888D01*
X8715649Y-16579888D02*
X8715649Y-16522746D01*
X8715649Y-16522746D02*
X8725173Y-16503698D01*
X8725173Y-16503698D02*
X8734697Y-16494174D01*
X8734697Y-16494174D02*
X8753745Y-16484650D01*
X8753745Y-16484650D02*
X8791840Y-16484650D01*
X8791840Y-16484650D02*
X8810888Y-16494174D01*
X8887078Y-16694174D02*
X8896602Y-16684650D01*
X8896602Y-16684650D02*
X8915649Y-16656079D01*
X8915649Y-16656079D02*
X8925173Y-16637031D01*
X8925173Y-16637031D02*
X8934697Y-16608460D01*
X8934697Y-16608460D02*
X8944221Y-16560841D01*
X8944221Y-16560841D02*
X8944221Y-16522746D01*
X8944221Y-16522746D02*
X8934697Y-16475127D01*
X8934697Y-16475127D02*
X8925173Y-16446555D01*
X8925173Y-16446555D02*
X8915649Y-16427508D01*
X8915649Y-16427508D02*
X8896602Y-16398936D01*
X8896602Y-16398936D02*
X8887078Y-16389412D01*
X2101774Y-16917211D02*
X2101774Y-16775789D01*
X1960351Y-16775789D01*
X1960351Y-16917211D01*
X2101774Y-16917211D01*
X2372792Y-16737984D02*
X2496601Y-16737984D01*
X2496601Y-16737984D02*
X2429935Y-16814174D01*
X2429935Y-16814174D02*
X2458506Y-16814174D01*
X2458506Y-16814174D02*
X2477554Y-16823698D01*
X2477554Y-16823698D02*
X2487077Y-16833222D01*
X2487077Y-16833222D02*
X2496601Y-16852270D01*
X2496601Y-16852270D02*
X2496601Y-16899889D01*
X2496601Y-16899889D02*
X2487077Y-16918936D01*
X2487077Y-16918936D02*
X2477554Y-16928460D01*
X2477554Y-16928460D02*
X2458506Y-16937984D01*
X2458506Y-16937984D02*
X2401363Y-16937984D01*
X2401363Y-16937984D02*
X2382316Y-16928460D01*
X2382316Y-16928460D02*
X2372792Y-16918936D01*
X2582316Y-16918936D02*
X2591839Y-16928460D01*
X2591839Y-16928460D02*
X2582316Y-16937984D01*
X2582316Y-16937984D02*
X2572792Y-16928460D01*
X2572792Y-16928460D02*
X2582316Y-16918936D01*
X2582316Y-16918936D02*
X2582316Y-16937984D01*
X2687077Y-16937984D02*
X2725173Y-16937984D01*
X2725173Y-16937984D02*
X2744220Y-16928460D01*
X2744220Y-16928460D02*
X2753744Y-16918936D01*
X2753744Y-16918936D02*
X2772792Y-16890365D01*
X2772792Y-16890365D02*
X2782316Y-16852270D01*
X2782316Y-16852270D02*
X2782316Y-16776079D01*
X2782316Y-16776079D02*
X2772792Y-16757031D01*
X2772792Y-16757031D02*
X2763268Y-16747508D01*
X2763268Y-16747508D02*
X2744220Y-16737984D01*
X2744220Y-16737984D02*
X2706125Y-16737984D01*
X2706125Y-16737984D02*
X2687077Y-16747508D01*
X2687077Y-16747508D02*
X2677554Y-16757031D01*
X2677554Y-16757031D02*
X2668030Y-16776079D01*
X2668030Y-16776079D02*
X2668030Y-16823698D01*
X2668030Y-16823698D02*
X2677554Y-16842746D01*
X2677554Y-16842746D02*
X2687077Y-16852270D01*
X2687077Y-16852270D02*
X2706125Y-16861793D01*
X2706125Y-16861793D02*
X2744220Y-16861793D01*
X2744220Y-16861793D02*
X2763268Y-16852270D01*
X2763268Y-16852270D02*
X2772792Y-16842746D01*
X2772792Y-16842746D02*
X2782316Y-16823698D01*
X2896601Y-16823698D02*
X2877554Y-16814174D01*
X2877554Y-16814174D02*
X2868030Y-16804650D01*
X2868030Y-16804650D02*
X2858506Y-16785603D01*
X2858506Y-16785603D02*
X2858506Y-16776079D01*
X2858506Y-16776079D02*
X2868030Y-16757031D01*
X2868030Y-16757031D02*
X2877554Y-16747508D01*
X2877554Y-16747508D02*
X2896601Y-16737984D01*
X2896601Y-16737984D02*
X2934696Y-16737984D01*
X2934696Y-16737984D02*
X2953744Y-16747508D01*
X2953744Y-16747508D02*
X2963268Y-16757031D01*
X2963268Y-16757031D02*
X2972792Y-16776079D01*
X2972792Y-16776079D02*
X2972792Y-16785603D01*
X2972792Y-16785603D02*
X2963268Y-16804650D01*
X2963268Y-16804650D02*
X2953744Y-16814174D01*
X2953744Y-16814174D02*
X2934696Y-16823698D01*
X2934696Y-16823698D02*
X2896601Y-16823698D01*
X2896601Y-16823698D02*
X2877554Y-16833222D01*
X2877554Y-16833222D02*
X2868030Y-16842746D01*
X2868030Y-16842746D02*
X2858506Y-16861793D01*
X2858506Y-16861793D02*
X2858506Y-16899889D01*
X2858506Y-16899889D02*
X2868030Y-16918936D01*
X2868030Y-16918936D02*
X2877554Y-16928460D01*
X2877554Y-16928460D02*
X2896601Y-16937984D01*
X2896601Y-16937984D02*
X2934696Y-16937984D01*
X2934696Y-16937984D02*
X2953744Y-16928460D01*
X2953744Y-16928460D02*
X2963268Y-16918936D01*
X2963268Y-16918936D02*
X2972792Y-16899889D01*
X2972792Y-16899889D02*
X2972792Y-16861793D01*
X2972792Y-16861793D02*
X2963268Y-16842746D01*
X2963268Y-16842746D02*
X2953744Y-16833222D01*
X2953744Y-16833222D02*
X2934696Y-16823698D01*
X3087077Y-16823698D02*
X3068030Y-16814174D01*
X3068030Y-16814174D02*
X3058506Y-16804650D01*
X3058506Y-16804650D02*
X3048982Y-16785603D01*
X3048982Y-16785603D02*
X3048982Y-16776079D01*
X3048982Y-16776079D02*
X3058506Y-16757031D01*
X3058506Y-16757031D02*
X3068030Y-16747508D01*
X3068030Y-16747508D02*
X3087077Y-16737984D01*
X3087077Y-16737984D02*
X3125173Y-16737984D01*
X3125173Y-16737984D02*
X3144220Y-16747508D01*
X3144220Y-16747508D02*
X3153744Y-16757031D01*
X3153744Y-16757031D02*
X3163268Y-16776079D01*
X3163268Y-16776079D02*
X3163268Y-16785603D01*
X3163268Y-16785603D02*
X3153744Y-16804650D01*
X3153744Y-16804650D02*
X3144220Y-16814174D01*
X3144220Y-16814174D02*
X3125173Y-16823698D01*
X3125173Y-16823698D02*
X3087077Y-16823698D01*
X3087077Y-16823698D02*
X3068030Y-16833222D01*
X3068030Y-16833222D02*
X3058506Y-16842746D01*
X3058506Y-16842746D02*
X3048982Y-16861793D01*
X3048982Y-16861793D02*
X3048982Y-16899889D01*
X3048982Y-16899889D02*
X3058506Y-16918936D01*
X3058506Y-16918936D02*
X3068030Y-16928460D01*
X3068030Y-16928460D02*
X3087077Y-16937984D01*
X3087077Y-16937984D02*
X3125173Y-16937984D01*
X3125173Y-16937984D02*
X3144220Y-16928460D01*
X3144220Y-16928460D02*
X3153744Y-16918936D01*
X3153744Y-16918936D02*
X3163268Y-16899889D01*
X3163268Y-16899889D02*
X3163268Y-16861793D01*
X3163268Y-16861793D02*
X3153744Y-16842746D01*
X3153744Y-16842746D02*
X3144220Y-16833222D01*
X3144220Y-16833222D02*
X3125173Y-16823698D01*
X3248982Y-16937984D02*
X3248982Y-16804650D01*
X3248982Y-16823698D02*
X3258506Y-16814174D01*
X3258506Y-16814174D02*
X3277554Y-16804650D01*
X3277554Y-16804650D02*
X3306125Y-16804650D01*
X3306125Y-16804650D02*
X3325173Y-16814174D01*
X3325173Y-16814174D02*
X3334696Y-16833222D01*
X3334696Y-16833222D02*
X3334696Y-16937984D01*
X3334696Y-16833222D02*
X3344220Y-16814174D01*
X3344220Y-16814174D02*
X3363268Y-16804650D01*
X3363268Y-16804650D02*
X3391839Y-16804650D01*
X3391839Y-16804650D02*
X3410887Y-16814174D01*
X3410887Y-16814174D02*
X3420411Y-16833222D01*
X3420411Y-16833222D02*
X3420411Y-16937984D01*
X3515649Y-16937984D02*
X3515649Y-16804650D01*
X3515649Y-16823698D02*
X3525173Y-16814174D01*
X3525173Y-16814174D02*
X3544220Y-16804650D01*
X3544220Y-16804650D02*
X3572792Y-16804650D01*
X3572792Y-16804650D02*
X3591839Y-16814174D01*
X3591839Y-16814174D02*
X3601363Y-16833222D01*
X3601363Y-16833222D02*
X3601363Y-16937984D01*
X3601363Y-16833222D02*
X3610887Y-16814174D01*
X3610887Y-16814174D02*
X3629935Y-16804650D01*
X3629935Y-16804650D02*
X3658506Y-16804650D01*
X3658506Y-16804650D02*
X3677554Y-16814174D01*
X3677554Y-16814174D02*
X3687077Y-16833222D01*
X3687077Y-16833222D02*
X3687077Y-16937984D01*
X4077554Y-16728460D02*
X3906125Y-16985603D01*
X4334697Y-16737984D02*
X4353744Y-16737984D01*
X4353744Y-16737984D02*
X4372792Y-16747508D01*
X4372792Y-16747508D02*
X4382316Y-16757031D01*
X4382316Y-16757031D02*
X4391840Y-16776079D01*
X4391840Y-16776079D02*
X4401363Y-16814174D01*
X4401363Y-16814174D02*
X4401363Y-16861793D01*
X4401363Y-16861793D02*
X4391840Y-16899889D01*
X4391840Y-16899889D02*
X4382316Y-16918936D01*
X4382316Y-16918936D02*
X4372792Y-16928460D01*
X4372792Y-16928460D02*
X4353744Y-16937984D01*
X4353744Y-16937984D02*
X4334697Y-16937984D01*
X4334697Y-16937984D02*
X4315649Y-16928460D01*
X4315649Y-16928460D02*
X4306125Y-16918936D01*
X4306125Y-16918936D02*
X4296601Y-16899889D01*
X4296601Y-16899889D02*
X4287078Y-16861793D01*
X4287078Y-16861793D02*
X4287078Y-16814174D01*
X4287078Y-16814174D02*
X4296601Y-16776079D01*
X4296601Y-16776079D02*
X4306125Y-16757031D01*
X4306125Y-16757031D02*
X4315649Y-16747508D01*
X4315649Y-16747508D02*
X4334697Y-16737984D01*
X4487078Y-16918936D02*
X4496601Y-16928460D01*
X4496601Y-16928460D02*
X4487078Y-16937984D01*
X4487078Y-16937984D02*
X4477554Y-16928460D01*
X4477554Y-16928460D02*
X4487078Y-16918936D01*
X4487078Y-16918936D02*
X4487078Y-16937984D01*
X4687078Y-16937984D02*
X4572792Y-16937984D01*
X4629935Y-16937984D02*
X4629935Y-16737984D01*
X4629935Y-16737984D02*
X4610887Y-16766555D01*
X4610887Y-16766555D02*
X4591840Y-16785603D01*
X4591840Y-16785603D02*
X4572792Y-16795127D01*
X4868030Y-16737984D02*
X4772792Y-16737984D01*
X4772792Y-16737984D02*
X4763268Y-16833222D01*
X4763268Y-16833222D02*
X4772792Y-16823698D01*
X4772792Y-16823698D02*
X4791840Y-16814174D01*
X4791840Y-16814174D02*
X4839459Y-16814174D01*
X4839459Y-16814174D02*
X4858506Y-16823698D01*
X4858506Y-16823698D02*
X4868030Y-16833222D01*
X4868030Y-16833222D02*
X4877554Y-16852270D01*
X4877554Y-16852270D02*
X4877554Y-16899889D01*
X4877554Y-16899889D02*
X4868030Y-16918936D01*
X4868030Y-16918936D02*
X4858506Y-16928460D01*
X4858506Y-16928460D02*
X4839459Y-16937984D01*
X4839459Y-16937984D02*
X4791840Y-16937984D01*
X4791840Y-16937984D02*
X4772792Y-16928460D01*
X4772792Y-16928460D02*
X4763268Y-16918936D01*
X4944221Y-16737984D02*
X5077554Y-16737984D01*
X5077554Y-16737984D02*
X4991840Y-16937984D01*
X5191840Y-16737984D02*
X5210887Y-16737984D01*
X5210887Y-16737984D02*
X5229935Y-16747508D01*
X5229935Y-16747508D02*
X5239459Y-16757031D01*
X5239459Y-16757031D02*
X5248982Y-16776079D01*
X5248982Y-16776079D02*
X5258506Y-16814174D01*
X5258506Y-16814174D02*
X5258506Y-16861793D01*
X5258506Y-16861793D02*
X5248982Y-16899889D01*
X5248982Y-16899889D02*
X5239459Y-16918936D01*
X5239459Y-16918936D02*
X5229935Y-16928460D01*
X5229935Y-16928460D02*
X5210887Y-16937984D01*
X5210887Y-16937984D02*
X5191840Y-16937984D01*
X5191840Y-16937984D02*
X5172792Y-16928460D01*
X5172792Y-16928460D02*
X5163268Y-16918936D01*
X5163268Y-16918936D02*
X5153744Y-16899889D01*
X5153744Y-16899889D02*
X5144221Y-16861793D01*
X5144221Y-16861793D02*
X5144221Y-16814174D01*
X5144221Y-16814174D02*
X5153744Y-16776079D01*
X5153744Y-16776079D02*
X5163268Y-16757031D01*
X5163268Y-16757031D02*
X5172792Y-16747508D01*
X5172792Y-16747508D02*
X5191840Y-16737984D01*
X5334697Y-16737984D02*
X5334697Y-16776079D01*
X5410887Y-16737984D02*
X5410887Y-16776079D01*
X5706125Y-17014174D02*
X5696601Y-17004650D01*
X5696601Y-17004650D02*
X5677554Y-16976079D01*
X5677554Y-16976079D02*
X5668030Y-16957031D01*
X5668030Y-16957031D02*
X5658506Y-16928460D01*
X5658506Y-16928460D02*
X5648982Y-16880841D01*
X5648982Y-16880841D02*
X5648982Y-16842746D01*
X5648982Y-16842746D02*
X5658506Y-16795127D01*
X5658506Y-16795127D02*
X5668030Y-16766555D01*
X5668030Y-16766555D02*
X5677554Y-16747508D01*
X5677554Y-16747508D02*
X5696601Y-16718936D01*
X5696601Y-16718936D02*
X5706125Y-16709412D01*
X5810887Y-16823698D02*
X5791840Y-16814174D01*
X5791840Y-16814174D02*
X5782316Y-16804650D01*
X5782316Y-16804650D02*
X5772792Y-16785603D01*
X5772792Y-16785603D02*
X5772792Y-16776079D01*
X5772792Y-16776079D02*
X5782316Y-16757031D01*
X5782316Y-16757031D02*
X5791840Y-16747508D01*
X5791840Y-16747508D02*
X5810887Y-16737984D01*
X5810887Y-16737984D02*
X5848982Y-16737984D01*
X5848982Y-16737984D02*
X5868030Y-16747508D01*
X5868030Y-16747508D02*
X5877554Y-16757031D01*
X5877554Y-16757031D02*
X5887078Y-16776079D01*
X5887078Y-16776079D02*
X5887078Y-16785603D01*
X5887078Y-16785603D02*
X5877554Y-16804650D01*
X5877554Y-16804650D02*
X5868030Y-16814174D01*
X5868030Y-16814174D02*
X5848982Y-16823698D01*
X5848982Y-16823698D02*
X5810887Y-16823698D01*
X5810887Y-16823698D02*
X5791840Y-16833222D01*
X5791840Y-16833222D02*
X5782316Y-16842746D01*
X5782316Y-16842746D02*
X5772792Y-16861793D01*
X5772792Y-16861793D02*
X5772792Y-16899889D01*
X5772792Y-16899889D02*
X5782316Y-16918936D01*
X5782316Y-16918936D02*
X5791840Y-16928460D01*
X5791840Y-16928460D02*
X5810887Y-16937984D01*
X5810887Y-16937984D02*
X5848982Y-16937984D01*
X5848982Y-16937984D02*
X5868030Y-16928460D01*
X5868030Y-16928460D02*
X5877554Y-16918936D01*
X5877554Y-16918936D02*
X5887078Y-16899889D01*
X5887078Y-16899889D02*
X5887078Y-16861793D01*
X5887078Y-16861793D02*
X5877554Y-16842746D01*
X5877554Y-16842746D02*
X5868030Y-16833222D01*
X5868030Y-16833222D02*
X5848982Y-16823698D01*
X6125173Y-16937984D02*
X6125173Y-16737984D01*
X6210887Y-16937984D02*
X6210887Y-16833222D01*
X6210887Y-16833222D02*
X6201363Y-16814174D01*
X6201363Y-16814174D02*
X6182316Y-16804650D01*
X6182316Y-16804650D02*
X6153744Y-16804650D01*
X6153744Y-16804650D02*
X6134697Y-16814174D01*
X6134697Y-16814174D02*
X6125173Y-16823698D01*
X6334697Y-16937984D02*
X6315649Y-16928460D01*
X6315649Y-16928460D02*
X6306125Y-16918936D01*
X6306125Y-16918936D02*
X6296602Y-16899889D01*
X6296602Y-16899889D02*
X6296602Y-16842746D01*
X6296602Y-16842746D02*
X6306125Y-16823698D01*
X6306125Y-16823698D02*
X6315649Y-16814174D01*
X6315649Y-16814174D02*
X6334697Y-16804650D01*
X6334697Y-16804650D02*
X6363268Y-16804650D01*
X6363268Y-16804650D02*
X6382316Y-16814174D01*
X6382316Y-16814174D02*
X6391840Y-16823698D01*
X6391840Y-16823698D02*
X6401363Y-16842746D01*
X6401363Y-16842746D02*
X6401363Y-16899889D01*
X6401363Y-16899889D02*
X6391840Y-16918936D01*
X6391840Y-16918936D02*
X6382316Y-16928460D01*
X6382316Y-16928460D02*
X6363268Y-16937984D01*
X6363268Y-16937984D02*
X6334697Y-16937984D01*
X6515649Y-16937984D02*
X6496602Y-16928460D01*
X6496602Y-16928460D02*
X6487078Y-16909412D01*
X6487078Y-16909412D02*
X6487078Y-16737984D01*
X6668030Y-16928460D02*
X6648983Y-16937984D01*
X6648983Y-16937984D02*
X6610887Y-16937984D01*
X6610887Y-16937984D02*
X6591840Y-16928460D01*
X6591840Y-16928460D02*
X6582316Y-16909412D01*
X6582316Y-16909412D02*
X6582316Y-16833222D01*
X6582316Y-16833222D02*
X6591840Y-16814174D01*
X6591840Y-16814174D02*
X6610887Y-16804650D01*
X6610887Y-16804650D02*
X6648983Y-16804650D01*
X6648983Y-16804650D02*
X6668030Y-16814174D01*
X6668030Y-16814174D02*
X6677554Y-16833222D01*
X6677554Y-16833222D02*
X6677554Y-16852270D01*
X6677554Y-16852270D02*
X6582316Y-16871317D01*
X6753744Y-16928460D02*
X6772792Y-16937984D01*
X6772792Y-16937984D02*
X6810887Y-16937984D01*
X6810887Y-16937984D02*
X6829935Y-16928460D01*
X6829935Y-16928460D02*
X6839459Y-16909412D01*
X6839459Y-16909412D02*
X6839459Y-16899889D01*
X6839459Y-16899889D02*
X6829935Y-16880841D01*
X6829935Y-16880841D02*
X6810887Y-16871317D01*
X6810887Y-16871317D02*
X6782316Y-16871317D01*
X6782316Y-16871317D02*
X6763268Y-16861793D01*
X6763268Y-16861793D02*
X6753744Y-16842746D01*
X6753744Y-16842746D02*
X6753744Y-16833222D01*
X6753744Y-16833222D02*
X6763268Y-16814174D01*
X6763268Y-16814174D02*
X6782316Y-16804650D01*
X6782316Y-16804650D02*
X6810887Y-16804650D01*
X6810887Y-16804650D02*
X6829935Y-16814174D01*
X6906125Y-17014174D02*
X6915649Y-17004650D01*
X6915649Y-17004650D02*
X6934697Y-16976079D01*
X6934697Y-16976079D02*
X6944221Y-16957031D01*
X6944221Y-16957031D02*
X6953744Y-16928460D01*
X6953744Y-16928460D02*
X6963268Y-16880841D01*
X6963268Y-16880841D02*
X6963268Y-16842746D01*
X6963268Y-16842746D02*
X6953744Y-16795127D01*
X6953744Y-16795127D02*
X6944221Y-16766555D01*
X6944221Y-16766555D02*
X6934697Y-16747508D01*
X6934697Y-16747508D02*
X6915649Y-16718936D01*
X6915649Y-16718936D02*
X6906125Y-16709412D01*
X7268030Y-17014174D02*
X7258506Y-17004650D01*
X7258506Y-17004650D02*
X7239459Y-16976079D01*
X7239459Y-16976079D02*
X7229935Y-16957031D01*
X7229935Y-16957031D02*
X7220411Y-16928460D01*
X7220411Y-16928460D02*
X7210887Y-16880841D01*
X7210887Y-16880841D02*
X7210887Y-16842746D01*
X7210887Y-16842746D02*
X7220411Y-16795127D01*
X7220411Y-16795127D02*
X7229935Y-16766555D01*
X7229935Y-16766555D02*
X7239459Y-16747508D01*
X7239459Y-16747508D02*
X7258506Y-16718936D01*
X7258506Y-16718936D02*
X7268030Y-16709412D01*
X7344221Y-16804650D02*
X7344221Y-16937984D01*
X7344221Y-16823698D02*
X7353744Y-16814174D01*
X7353744Y-16814174D02*
X7372792Y-16804650D01*
X7372792Y-16804650D02*
X7401364Y-16804650D01*
X7401364Y-16804650D02*
X7420411Y-16814174D01*
X7420411Y-16814174D02*
X7429935Y-16833222D01*
X7429935Y-16833222D02*
X7429935Y-16937984D01*
X7553744Y-16937984D02*
X7534697Y-16928460D01*
X7534697Y-16928460D02*
X7525173Y-16918936D01*
X7525173Y-16918936D02*
X7515649Y-16899889D01*
X7515649Y-16899889D02*
X7515649Y-16842746D01*
X7515649Y-16842746D02*
X7525173Y-16823698D01*
X7525173Y-16823698D02*
X7534697Y-16814174D01*
X7534697Y-16814174D02*
X7553744Y-16804650D01*
X7553744Y-16804650D02*
X7582316Y-16804650D01*
X7582316Y-16804650D02*
X7601364Y-16814174D01*
X7601364Y-16814174D02*
X7610887Y-16823698D01*
X7610887Y-16823698D02*
X7620411Y-16842746D01*
X7620411Y-16842746D02*
X7620411Y-16899889D01*
X7620411Y-16899889D02*
X7610887Y-16918936D01*
X7610887Y-16918936D02*
X7601364Y-16928460D01*
X7601364Y-16928460D02*
X7582316Y-16937984D01*
X7582316Y-16937984D02*
X7553744Y-16937984D01*
X7677554Y-16804650D02*
X7753744Y-16804650D01*
X7706125Y-16737984D02*
X7706125Y-16909412D01*
X7706125Y-16909412D02*
X7715649Y-16928460D01*
X7715649Y-16928460D02*
X7734697Y-16937984D01*
X7734697Y-16937984D02*
X7753744Y-16937984D01*
X7972792Y-16804650D02*
X7972792Y-17004650D01*
X7972792Y-16814174D02*
X7991840Y-16804650D01*
X7991840Y-16804650D02*
X8029935Y-16804650D01*
X8029935Y-16804650D02*
X8048983Y-16814174D01*
X8048983Y-16814174D02*
X8058506Y-16823698D01*
X8058506Y-16823698D02*
X8068030Y-16842746D01*
X8068030Y-16842746D02*
X8068030Y-16899889D01*
X8068030Y-16899889D02*
X8058506Y-16918936D01*
X8058506Y-16918936D02*
X8048983Y-16928460D01*
X8048983Y-16928460D02*
X8029935Y-16937984D01*
X8029935Y-16937984D02*
X7991840Y-16937984D01*
X7991840Y-16937984D02*
X7972792Y-16928460D01*
X8182316Y-16937984D02*
X8163268Y-16928460D01*
X8163268Y-16928460D02*
X8153745Y-16909412D01*
X8153745Y-16909412D02*
X8153745Y-16737984D01*
X8344221Y-16937984D02*
X8344221Y-16833222D01*
X8344221Y-16833222D02*
X8334697Y-16814174D01*
X8334697Y-16814174D02*
X8315649Y-16804650D01*
X8315649Y-16804650D02*
X8277554Y-16804650D01*
X8277554Y-16804650D02*
X8258506Y-16814174D01*
X8344221Y-16928460D02*
X8325173Y-16937984D01*
X8325173Y-16937984D02*
X8277554Y-16937984D01*
X8277554Y-16937984D02*
X8258506Y-16928460D01*
X8258506Y-16928460D02*
X8248983Y-16909412D01*
X8248983Y-16909412D02*
X8248983Y-16890365D01*
X8248983Y-16890365D02*
X8258506Y-16871317D01*
X8258506Y-16871317D02*
X8277554Y-16861793D01*
X8277554Y-16861793D02*
X8325173Y-16861793D01*
X8325173Y-16861793D02*
X8344221Y-16852270D01*
X8410888Y-16804650D02*
X8487078Y-16804650D01*
X8439459Y-16737984D02*
X8439459Y-16909412D01*
X8439459Y-16909412D02*
X8448983Y-16928460D01*
X8448983Y-16928460D02*
X8468030Y-16937984D01*
X8468030Y-16937984D02*
X8487078Y-16937984D01*
X8629935Y-16928460D02*
X8610888Y-16937984D01*
X8610888Y-16937984D02*
X8572792Y-16937984D01*
X8572792Y-16937984D02*
X8553745Y-16928460D01*
X8553745Y-16928460D02*
X8544221Y-16909412D01*
X8544221Y-16909412D02*
X8544221Y-16833222D01*
X8544221Y-16833222D02*
X8553745Y-16814174D01*
X8553745Y-16814174D02*
X8572792Y-16804650D01*
X8572792Y-16804650D02*
X8610888Y-16804650D01*
X8610888Y-16804650D02*
X8629935Y-16814174D01*
X8629935Y-16814174D02*
X8639459Y-16833222D01*
X8639459Y-16833222D02*
X8639459Y-16852270D01*
X8639459Y-16852270D02*
X8544221Y-16871317D01*
X8810888Y-16937984D02*
X8810888Y-16737984D01*
X8810888Y-16928460D02*
X8791840Y-16937984D01*
X8791840Y-16937984D02*
X8753745Y-16937984D01*
X8753745Y-16937984D02*
X8734697Y-16928460D01*
X8734697Y-16928460D02*
X8725173Y-16918936D01*
X8725173Y-16918936D02*
X8715649Y-16899889D01*
X8715649Y-16899889D02*
X8715649Y-16842746D01*
X8715649Y-16842746D02*
X8725173Y-16823698D01*
X8725173Y-16823698D02*
X8734697Y-16814174D01*
X8734697Y-16814174D02*
X8753745Y-16804650D01*
X8753745Y-16804650D02*
X8791840Y-16804650D01*
X8791840Y-16804650D02*
X8810888Y-16814174D01*
X8887078Y-17014174D02*
X8896602Y-17004650D01*
X8896602Y-17004650D02*
X8915649Y-16976079D01*
X8915649Y-16976079D02*
X8925173Y-16957031D01*
X8925173Y-16957031D02*
X8934697Y-16928460D01*
X8934697Y-16928460D02*
X8944221Y-16880841D01*
X8944221Y-16880841D02*
X8944221Y-16842746D01*
X8944221Y-16842746D02*
X8934697Y-16795127D01*
X8934697Y-16795127D02*
X8925173Y-16766555D01*
X8925173Y-16766555D02*
X8915649Y-16747508D01*
X8915649Y-16747508D02*
X8896602Y-16718936D01*
X8896602Y-16718936D02*
X8887078Y-16709412D01*
X2031062Y-17266500D02*
X2131063Y-17166500D01*
X2031062Y-17066500D01*
X1931062Y-17166500D01*
X2031062Y-17266500D01*
X2477554Y-17124650D02*
X2477554Y-17257984D01*
X2429935Y-17048460D02*
X2382316Y-17191317D01*
X2382316Y-17191317D02*
X2506125Y-17191317D01*
X2582316Y-17238936D02*
X2591839Y-17248460D01*
X2591839Y-17248460D02*
X2582316Y-17257984D01*
X2582316Y-17257984D02*
X2572792Y-17248460D01*
X2572792Y-17248460D02*
X2582316Y-17238936D01*
X2582316Y-17238936D02*
X2582316Y-17257984D01*
X2715649Y-17057984D02*
X2734697Y-17057984D01*
X2734697Y-17057984D02*
X2753744Y-17067508D01*
X2753744Y-17067508D02*
X2763268Y-17077031D01*
X2763268Y-17077031D02*
X2772792Y-17096079D01*
X2772792Y-17096079D02*
X2782316Y-17134174D01*
X2782316Y-17134174D02*
X2782316Y-17181793D01*
X2782316Y-17181793D02*
X2772792Y-17219889D01*
X2772792Y-17219889D02*
X2763268Y-17238936D01*
X2763268Y-17238936D02*
X2753744Y-17248460D01*
X2753744Y-17248460D02*
X2734697Y-17257984D01*
X2734697Y-17257984D02*
X2715649Y-17257984D01*
X2715649Y-17257984D02*
X2696601Y-17248460D01*
X2696601Y-17248460D02*
X2687077Y-17238936D01*
X2687077Y-17238936D02*
X2677554Y-17219889D01*
X2677554Y-17219889D02*
X2668030Y-17181793D01*
X2668030Y-17181793D02*
X2668030Y-17134174D01*
X2668030Y-17134174D02*
X2677554Y-17096079D01*
X2677554Y-17096079D02*
X2687077Y-17077031D01*
X2687077Y-17077031D02*
X2696601Y-17067508D01*
X2696601Y-17067508D02*
X2715649Y-17057984D01*
X2906125Y-17057984D02*
X2925173Y-17057984D01*
X2925173Y-17057984D02*
X2944220Y-17067508D01*
X2944220Y-17067508D02*
X2953744Y-17077031D01*
X2953744Y-17077031D02*
X2963268Y-17096079D01*
X2963268Y-17096079D02*
X2972792Y-17134174D01*
X2972792Y-17134174D02*
X2972792Y-17181793D01*
X2972792Y-17181793D02*
X2963268Y-17219889D01*
X2963268Y-17219889D02*
X2953744Y-17238936D01*
X2953744Y-17238936D02*
X2944220Y-17248460D01*
X2944220Y-17248460D02*
X2925173Y-17257984D01*
X2925173Y-17257984D02*
X2906125Y-17257984D01*
X2906125Y-17257984D02*
X2887077Y-17248460D01*
X2887077Y-17248460D02*
X2877554Y-17238936D01*
X2877554Y-17238936D02*
X2868030Y-17219889D01*
X2868030Y-17219889D02*
X2858506Y-17181793D01*
X2858506Y-17181793D02*
X2858506Y-17134174D01*
X2858506Y-17134174D02*
X2868030Y-17096079D01*
X2868030Y-17096079D02*
X2877554Y-17077031D01*
X2877554Y-17077031D02*
X2887077Y-17067508D01*
X2887077Y-17067508D02*
X2906125Y-17057984D01*
X3096601Y-17057984D02*
X3115649Y-17057984D01*
X3115649Y-17057984D02*
X3134696Y-17067508D01*
X3134696Y-17067508D02*
X3144220Y-17077031D01*
X3144220Y-17077031D02*
X3153744Y-17096079D01*
X3153744Y-17096079D02*
X3163268Y-17134174D01*
X3163268Y-17134174D02*
X3163268Y-17181793D01*
X3163268Y-17181793D02*
X3153744Y-17219889D01*
X3153744Y-17219889D02*
X3144220Y-17238936D01*
X3144220Y-17238936D02*
X3134696Y-17248460D01*
X3134696Y-17248460D02*
X3115649Y-17257984D01*
X3115649Y-17257984D02*
X3096601Y-17257984D01*
X3096601Y-17257984D02*
X3077554Y-17248460D01*
X3077554Y-17248460D02*
X3068030Y-17238936D01*
X3068030Y-17238936D02*
X3058506Y-17219889D01*
X3058506Y-17219889D02*
X3048982Y-17181793D01*
X3048982Y-17181793D02*
X3048982Y-17134174D01*
X3048982Y-17134174D02*
X3058506Y-17096079D01*
X3058506Y-17096079D02*
X3068030Y-17077031D01*
X3068030Y-17077031D02*
X3077554Y-17067508D01*
X3077554Y-17067508D02*
X3096601Y-17057984D01*
X3248982Y-17257984D02*
X3248982Y-17124650D01*
X3248982Y-17143698D02*
X3258506Y-17134174D01*
X3258506Y-17134174D02*
X3277554Y-17124650D01*
X3277554Y-17124650D02*
X3306125Y-17124650D01*
X3306125Y-17124650D02*
X3325173Y-17134174D01*
X3325173Y-17134174D02*
X3334696Y-17153222D01*
X3334696Y-17153222D02*
X3334696Y-17257984D01*
X3334696Y-17153222D02*
X3344220Y-17134174D01*
X3344220Y-17134174D02*
X3363268Y-17124650D01*
X3363268Y-17124650D02*
X3391839Y-17124650D01*
X3391839Y-17124650D02*
X3410887Y-17134174D01*
X3410887Y-17134174D02*
X3420411Y-17153222D01*
X3420411Y-17153222D02*
X3420411Y-17257984D01*
X3515649Y-17257984D02*
X3515649Y-17124650D01*
X3515649Y-17143698D02*
X3525173Y-17134174D01*
X3525173Y-17134174D02*
X3544220Y-17124650D01*
X3544220Y-17124650D02*
X3572792Y-17124650D01*
X3572792Y-17124650D02*
X3591839Y-17134174D01*
X3591839Y-17134174D02*
X3601363Y-17153222D01*
X3601363Y-17153222D02*
X3601363Y-17257984D01*
X3601363Y-17153222D02*
X3610887Y-17134174D01*
X3610887Y-17134174D02*
X3629935Y-17124650D01*
X3629935Y-17124650D02*
X3658506Y-17124650D01*
X3658506Y-17124650D02*
X3677554Y-17134174D01*
X3677554Y-17134174D02*
X3687077Y-17153222D01*
X3687077Y-17153222D02*
X3687077Y-17257984D01*
X4077554Y-17048460D02*
X3906125Y-17305603D01*
X4334697Y-17057984D02*
X4353744Y-17057984D01*
X4353744Y-17057984D02*
X4372792Y-17067508D01*
X4372792Y-17067508D02*
X4382316Y-17077031D01*
X4382316Y-17077031D02*
X4391840Y-17096079D01*
X4391840Y-17096079D02*
X4401363Y-17134174D01*
X4401363Y-17134174D02*
X4401363Y-17181793D01*
X4401363Y-17181793D02*
X4391840Y-17219889D01*
X4391840Y-17219889D02*
X4382316Y-17238936D01*
X4382316Y-17238936D02*
X4372792Y-17248460D01*
X4372792Y-17248460D02*
X4353744Y-17257984D01*
X4353744Y-17257984D02*
X4334697Y-17257984D01*
X4334697Y-17257984D02*
X4315649Y-17248460D01*
X4315649Y-17248460D02*
X4306125Y-17238936D01*
X4306125Y-17238936D02*
X4296601Y-17219889D01*
X4296601Y-17219889D02*
X4287078Y-17181793D01*
X4287078Y-17181793D02*
X4287078Y-17134174D01*
X4287078Y-17134174D02*
X4296601Y-17096079D01*
X4296601Y-17096079D02*
X4306125Y-17077031D01*
X4306125Y-17077031D02*
X4315649Y-17067508D01*
X4315649Y-17067508D02*
X4334697Y-17057984D01*
X4487078Y-17238936D02*
X4496601Y-17248460D01*
X4496601Y-17248460D02*
X4487078Y-17257984D01*
X4487078Y-17257984D02*
X4477554Y-17248460D01*
X4477554Y-17248460D02*
X4487078Y-17238936D01*
X4487078Y-17238936D02*
X4487078Y-17257984D01*
X4687078Y-17257984D02*
X4572792Y-17257984D01*
X4629935Y-17257984D02*
X4629935Y-17057984D01*
X4629935Y-17057984D02*
X4610887Y-17086555D01*
X4610887Y-17086555D02*
X4591840Y-17105603D01*
X4591840Y-17105603D02*
X4572792Y-17115127D01*
X4868030Y-17057984D02*
X4772792Y-17057984D01*
X4772792Y-17057984D02*
X4763268Y-17153222D01*
X4763268Y-17153222D02*
X4772792Y-17143698D01*
X4772792Y-17143698D02*
X4791840Y-17134174D01*
X4791840Y-17134174D02*
X4839459Y-17134174D01*
X4839459Y-17134174D02*
X4858506Y-17143698D01*
X4858506Y-17143698D02*
X4868030Y-17153222D01*
X4868030Y-17153222D02*
X4877554Y-17172270D01*
X4877554Y-17172270D02*
X4877554Y-17219889D01*
X4877554Y-17219889D02*
X4868030Y-17238936D01*
X4868030Y-17238936D02*
X4858506Y-17248460D01*
X4858506Y-17248460D02*
X4839459Y-17257984D01*
X4839459Y-17257984D02*
X4791840Y-17257984D01*
X4791840Y-17257984D02*
X4772792Y-17248460D01*
X4772792Y-17248460D02*
X4763268Y-17238936D01*
X4944221Y-17057984D02*
X5077554Y-17057984D01*
X5077554Y-17057984D02*
X4991840Y-17257984D01*
X5248982Y-17057984D02*
X5153744Y-17057984D01*
X5153744Y-17057984D02*
X5144221Y-17153222D01*
X5144221Y-17153222D02*
X5153744Y-17143698D01*
X5153744Y-17143698D02*
X5172792Y-17134174D01*
X5172792Y-17134174D02*
X5220411Y-17134174D01*
X5220411Y-17134174D02*
X5239459Y-17143698D01*
X5239459Y-17143698D02*
X5248982Y-17153222D01*
X5248982Y-17153222D02*
X5258506Y-17172270D01*
X5258506Y-17172270D02*
X5258506Y-17219889D01*
X5258506Y-17219889D02*
X5248982Y-17238936D01*
X5248982Y-17238936D02*
X5239459Y-17248460D01*
X5239459Y-17248460D02*
X5220411Y-17257984D01*
X5220411Y-17257984D02*
X5172792Y-17257984D01*
X5172792Y-17257984D02*
X5153744Y-17248460D01*
X5153744Y-17248460D02*
X5144221Y-17238936D01*
X5334697Y-17057984D02*
X5334697Y-17096079D01*
X5410887Y-17057984D02*
X5410887Y-17096079D01*
X5706125Y-17334174D02*
X5696601Y-17324650D01*
X5696601Y-17324650D02*
X5677554Y-17296079D01*
X5677554Y-17296079D02*
X5668030Y-17277031D01*
X5668030Y-17277031D02*
X5658506Y-17248460D01*
X5658506Y-17248460D02*
X5648982Y-17200841D01*
X5648982Y-17200841D02*
X5648982Y-17162746D01*
X5648982Y-17162746D02*
X5658506Y-17115127D01*
X5658506Y-17115127D02*
X5668030Y-17086555D01*
X5668030Y-17086555D02*
X5677554Y-17067508D01*
X5677554Y-17067508D02*
X5696601Y-17038936D01*
X5696601Y-17038936D02*
X5706125Y-17029412D01*
X5868030Y-17057984D02*
X5829935Y-17057984D01*
X5829935Y-17057984D02*
X5810887Y-17067508D01*
X5810887Y-17067508D02*
X5801363Y-17077031D01*
X5801363Y-17077031D02*
X5782316Y-17105603D01*
X5782316Y-17105603D02*
X5772792Y-17143698D01*
X5772792Y-17143698D02*
X5772792Y-17219889D01*
X5772792Y-17219889D02*
X5782316Y-17238936D01*
X5782316Y-17238936D02*
X5791840Y-17248460D01*
X5791840Y-17248460D02*
X5810887Y-17257984D01*
X5810887Y-17257984D02*
X5848982Y-17257984D01*
X5848982Y-17257984D02*
X5868030Y-17248460D01*
X5868030Y-17248460D02*
X5877554Y-17238936D01*
X5877554Y-17238936D02*
X5887078Y-17219889D01*
X5887078Y-17219889D02*
X5887078Y-17172270D01*
X5887078Y-17172270D02*
X5877554Y-17153222D01*
X5877554Y-17153222D02*
X5868030Y-17143698D01*
X5868030Y-17143698D02*
X5848982Y-17134174D01*
X5848982Y-17134174D02*
X5810887Y-17134174D01*
X5810887Y-17134174D02*
X5791840Y-17143698D01*
X5791840Y-17143698D02*
X5782316Y-17153222D01*
X5782316Y-17153222D02*
X5772792Y-17172270D01*
X5953744Y-17057984D02*
X6087078Y-17057984D01*
X6087078Y-17057984D02*
X6001363Y-17257984D01*
X6315649Y-17257984D02*
X6315649Y-17057984D01*
X6401363Y-17257984D02*
X6401363Y-17153222D01*
X6401363Y-17153222D02*
X6391840Y-17134174D01*
X6391840Y-17134174D02*
X6372792Y-17124650D01*
X6372792Y-17124650D02*
X6344221Y-17124650D01*
X6344221Y-17124650D02*
X6325173Y-17134174D01*
X6325173Y-17134174D02*
X6315649Y-17143698D01*
X6525173Y-17257984D02*
X6506125Y-17248460D01*
X6506125Y-17248460D02*
X6496602Y-17238936D01*
X6496602Y-17238936D02*
X6487078Y-17219889D01*
X6487078Y-17219889D02*
X6487078Y-17162746D01*
X6487078Y-17162746D02*
X6496602Y-17143698D01*
X6496602Y-17143698D02*
X6506125Y-17134174D01*
X6506125Y-17134174D02*
X6525173Y-17124650D01*
X6525173Y-17124650D02*
X6553744Y-17124650D01*
X6553744Y-17124650D02*
X6572792Y-17134174D01*
X6572792Y-17134174D02*
X6582316Y-17143698D01*
X6582316Y-17143698D02*
X6591840Y-17162746D01*
X6591840Y-17162746D02*
X6591840Y-17219889D01*
X6591840Y-17219889D02*
X6582316Y-17238936D01*
X6582316Y-17238936D02*
X6572792Y-17248460D01*
X6572792Y-17248460D02*
X6553744Y-17257984D01*
X6553744Y-17257984D02*
X6525173Y-17257984D01*
X6706125Y-17257984D02*
X6687078Y-17248460D01*
X6687078Y-17248460D02*
X6677554Y-17229412D01*
X6677554Y-17229412D02*
X6677554Y-17057984D01*
X6858506Y-17248460D02*
X6839459Y-17257984D01*
X6839459Y-17257984D02*
X6801363Y-17257984D01*
X6801363Y-17257984D02*
X6782316Y-17248460D01*
X6782316Y-17248460D02*
X6772792Y-17229412D01*
X6772792Y-17229412D02*
X6772792Y-17153222D01*
X6772792Y-17153222D02*
X6782316Y-17134174D01*
X6782316Y-17134174D02*
X6801363Y-17124650D01*
X6801363Y-17124650D02*
X6839459Y-17124650D01*
X6839459Y-17124650D02*
X6858506Y-17134174D01*
X6858506Y-17134174D02*
X6868030Y-17153222D01*
X6868030Y-17153222D02*
X6868030Y-17172270D01*
X6868030Y-17172270D02*
X6772792Y-17191317D01*
X6944221Y-17248460D02*
X6963268Y-17257984D01*
X6963268Y-17257984D02*
X7001363Y-17257984D01*
X7001363Y-17257984D02*
X7020411Y-17248460D01*
X7020411Y-17248460D02*
X7029935Y-17229412D01*
X7029935Y-17229412D02*
X7029935Y-17219889D01*
X7029935Y-17219889D02*
X7020411Y-17200841D01*
X7020411Y-17200841D02*
X7001363Y-17191317D01*
X7001363Y-17191317D02*
X6972792Y-17191317D01*
X6972792Y-17191317D02*
X6953744Y-17181793D01*
X6953744Y-17181793D02*
X6944221Y-17162746D01*
X6944221Y-17162746D02*
X6944221Y-17153222D01*
X6944221Y-17153222D02*
X6953744Y-17134174D01*
X6953744Y-17134174D02*
X6972792Y-17124650D01*
X6972792Y-17124650D02*
X7001363Y-17124650D01*
X7001363Y-17124650D02*
X7020411Y-17134174D01*
X7096602Y-17334174D02*
X7106125Y-17324650D01*
X7106125Y-17324650D02*
X7125173Y-17296079D01*
X7125173Y-17296079D02*
X7134697Y-17277031D01*
X7134697Y-17277031D02*
X7144221Y-17248460D01*
X7144221Y-17248460D02*
X7153744Y-17200841D01*
X7153744Y-17200841D02*
X7153744Y-17162746D01*
X7153744Y-17162746D02*
X7144221Y-17115127D01*
X7144221Y-17115127D02*
X7134697Y-17086555D01*
X7134697Y-17086555D02*
X7125173Y-17067508D01*
X7125173Y-17067508D02*
X7106125Y-17038936D01*
X7106125Y-17038936D02*
X7096602Y-17029412D01*
X7458506Y-17334174D02*
X7448983Y-17324650D01*
X7448983Y-17324650D02*
X7429935Y-17296079D01*
X7429935Y-17296079D02*
X7420411Y-17277031D01*
X7420411Y-17277031D02*
X7410887Y-17248460D01*
X7410887Y-17248460D02*
X7401364Y-17200841D01*
X7401364Y-17200841D02*
X7401364Y-17162746D01*
X7401364Y-17162746D02*
X7410887Y-17115127D01*
X7410887Y-17115127D02*
X7420411Y-17086555D01*
X7420411Y-17086555D02*
X7429935Y-17067508D01*
X7429935Y-17067508D02*
X7448983Y-17038936D01*
X7448983Y-17038936D02*
X7458506Y-17029412D01*
X7534697Y-17124650D02*
X7534697Y-17257984D01*
X7534697Y-17143698D02*
X7544221Y-17134174D01*
X7544221Y-17134174D02*
X7563268Y-17124650D01*
X7563268Y-17124650D02*
X7591840Y-17124650D01*
X7591840Y-17124650D02*
X7610887Y-17134174D01*
X7610887Y-17134174D02*
X7620411Y-17153222D01*
X7620411Y-17153222D02*
X7620411Y-17257984D01*
X7744221Y-17257984D02*
X7725173Y-17248460D01*
X7725173Y-17248460D02*
X7715649Y-17238936D01*
X7715649Y-17238936D02*
X7706125Y-17219889D01*
X7706125Y-17219889D02*
X7706125Y-17162746D01*
X7706125Y-17162746D02*
X7715649Y-17143698D01*
X7715649Y-17143698D02*
X7725173Y-17134174D01*
X7725173Y-17134174D02*
X7744221Y-17124650D01*
X7744221Y-17124650D02*
X7772792Y-17124650D01*
X7772792Y-17124650D02*
X7791840Y-17134174D01*
X7791840Y-17134174D02*
X7801364Y-17143698D01*
X7801364Y-17143698D02*
X7810887Y-17162746D01*
X7810887Y-17162746D02*
X7810887Y-17219889D01*
X7810887Y-17219889D02*
X7801364Y-17238936D01*
X7801364Y-17238936D02*
X7791840Y-17248460D01*
X7791840Y-17248460D02*
X7772792Y-17257984D01*
X7772792Y-17257984D02*
X7744221Y-17257984D01*
X7868030Y-17124650D02*
X7944221Y-17124650D01*
X7896602Y-17057984D02*
X7896602Y-17229412D01*
X7896602Y-17229412D02*
X7906125Y-17248460D01*
X7906125Y-17248460D02*
X7925173Y-17257984D01*
X7925173Y-17257984D02*
X7944221Y-17257984D01*
X8163268Y-17124650D02*
X8163268Y-17324650D01*
X8163268Y-17134174D02*
X8182316Y-17124650D01*
X8182316Y-17124650D02*
X8220411Y-17124650D01*
X8220411Y-17124650D02*
X8239459Y-17134174D01*
X8239459Y-17134174D02*
X8248983Y-17143698D01*
X8248983Y-17143698D02*
X8258506Y-17162746D01*
X8258506Y-17162746D02*
X8258506Y-17219889D01*
X8258506Y-17219889D02*
X8248983Y-17238936D01*
X8248983Y-17238936D02*
X8239459Y-17248460D01*
X8239459Y-17248460D02*
X8220411Y-17257984D01*
X8220411Y-17257984D02*
X8182316Y-17257984D01*
X8182316Y-17257984D02*
X8163268Y-17248460D01*
X8372792Y-17257984D02*
X8353745Y-17248460D01*
X8353745Y-17248460D02*
X8344221Y-17229412D01*
X8344221Y-17229412D02*
X8344221Y-17057984D01*
X8534697Y-17257984D02*
X8534697Y-17153222D01*
X8534697Y-17153222D02*
X8525173Y-17134174D01*
X8525173Y-17134174D02*
X8506126Y-17124650D01*
X8506126Y-17124650D02*
X8468030Y-17124650D01*
X8468030Y-17124650D02*
X8448983Y-17134174D01*
X8534697Y-17248460D02*
X8515649Y-17257984D01*
X8515649Y-17257984D02*
X8468030Y-17257984D01*
X8468030Y-17257984D02*
X8448983Y-17248460D01*
X8448983Y-17248460D02*
X8439459Y-17229412D01*
X8439459Y-17229412D02*
X8439459Y-17210365D01*
X8439459Y-17210365D02*
X8448983Y-17191317D01*
X8448983Y-17191317D02*
X8468030Y-17181793D01*
X8468030Y-17181793D02*
X8515649Y-17181793D01*
X8515649Y-17181793D02*
X8534697Y-17172270D01*
X8601364Y-17124650D02*
X8677554Y-17124650D01*
X8629935Y-17057984D02*
X8629935Y-17229412D01*
X8629935Y-17229412D02*
X8639459Y-17248460D01*
X8639459Y-17248460D02*
X8658507Y-17257984D01*
X8658507Y-17257984D02*
X8677554Y-17257984D01*
X8820411Y-17248460D02*
X8801364Y-17257984D01*
X8801364Y-17257984D02*
X8763268Y-17257984D01*
X8763268Y-17257984D02*
X8744221Y-17248460D01*
X8744221Y-17248460D02*
X8734697Y-17229412D01*
X8734697Y-17229412D02*
X8734697Y-17153222D01*
X8734697Y-17153222D02*
X8744221Y-17134174D01*
X8744221Y-17134174D02*
X8763268Y-17124650D01*
X8763268Y-17124650D02*
X8801364Y-17124650D01*
X8801364Y-17124650D02*
X8820411Y-17134174D01*
X8820411Y-17134174D02*
X8829935Y-17153222D01*
X8829935Y-17153222D02*
X8829935Y-17172270D01*
X8829935Y-17172270D02*
X8734697Y-17191317D01*
X9001364Y-17257984D02*
X9001364Y-17057984D01*
X9001364Y-17248460D02*
X8982316Y-17257984D01*
X8982316Y-17257984D02*
X8944221Y-17257984D01*
X8944221Y-17257984D02*
X8925173Y-17248460D01*
X8925173Y-17248460D02*
X8915649Y-17238936D01*
X8915649Y-17238936D02*
X8906126Y-17219889D01*
X8906126Y-17219889D02*
X8906126Y-17162746D01*
X8906126Y-17162746D02*
X8915649Y-17143698D01*
X8915649Y-17143698D02*
X8925173Y-17134174D01*
X8925173Y-17134174D02*
X8944221Y-17124650D01*
X8944221Y-17124650D02*
X8982316Y-17124650D01*
X8982316Y-17124650D02*
X9001364Y-17134174D01*
X9077554Y-17334174D02*
X9087078Y-17324650D01*
X9087078Y-17324650D02*
X9106126Y-17296079D01*
X9106126Y-17296079D02*
X9115649Y-17277031D01*
X9115649Y-17277031D02*
X9125173Y-17248460D01*
X9125173Y-17248460D02*
X9134697Y-17200841D01*
X9134697Y-17200841D02*
X9134697Y-17162746D01*
X9134697Y-17162746D02*
X9125173Y-17115127D01*
X9125173Y-17115127D02*
X9115649Y-17086555D01*
X9115649Y-17086555D02*
X9106126Y-17067508D01*
X9106126Y-17067508D02*
X9087078Y-17038936D01*
X9087078Y-17038936D02*
X9077554Y-17029412D01*
M02*
