%TF.GenerationSoftware,KiCad,Pcbnew,7.0.6*%
%TF.CreationDate,2024-03-18T14:57:41-04:00*%
%TF.ProjectId,Loadstar_70,4c6f6164-7374-4617-925f-37302e6b6963,rev?*%
%TF.SameCoordinates,Original*%
%TF.FileFunction,Soldermask,Bot*%
%TF.FilePolarity,Negative*%
%FSLAX46Y46*%
G04 Gerber Fmt 4.6, Leading zero omitted, Abs format (unit mm)*
G04 Created by KiCad (PCBNEW 7.0.6) date 2024-03-18 14:57:41*
%MOMM*%
%LPD*%
G01*
G04 APERTURE LIST*
%ADD10C,3.200000*%
%ADD11C,0.804000*%
%ADD12O,1.104000X2.104000*%
%ADD13R,1.700000X1.700000*%
%ADD14O,1.700000X1.700000*%
%ADD15C,1.750000*%
%ADD16C,4.000000*%
%ADD17C,3.600000*%
%ADD18C,3.987800*%
%ADD19C,3.048000*%
%ADD20R,2.000000X2.000000*%
%ADD21C,2.000000*%
%ADD22R,2.000000X3.200000*%
G04 APERTURE END LIST*
D10*
%TO.C,REF\u002A\u002A*%
X63103125Y-126206250D03*
%TD*%
%TO.C,REF\u002A\u002A*%
X183356250Y-76200000D03*
%TD*%
%TO.C,REF\u002A\u002A*%
X41671875Y-77390625D03*
%TD*%
%TO.C,REF\u002A\u002A*%
X180285625Y-136605000D03*
%TD*%
%TO.C,REF\u002A\u002A*%
X300037500Y-77390625D03*
%TD*%
%TO.C,REF\u002A\u002A*%
X285750000Y-130968750D03*
%TD*%
D11*
%TO.C,J1*%
X41815625Y-61540000D03*
X41815625Y-62440000D03*
X41815625Y-63340000D03*
X41815625Y-64240000D03*
X41815625Y-65140000D03*
X41815625Y-66040000D03*
X41815625Y-66940000D03*
X41035625Y-66490000D03*
X41035625Y-65590000D03*
X41035625Y-64690000D03*
X41035625Y-63790000D03*
X41035625Y-62890000D03*
X41035625Y-61990000D03*
X41035625Y-61090000D03*
D12*
X42855625Y-61590000D03*
X39995625Y-61590000D03*
X42855625Y-66390000D03*
X39995625Y-66390000D03*
%TD*%
D13*
%TO.C,ICSP1*%
X160285625Y-151205000D03*
D14*
X162825625Y-151205000D03*
X165365625Y-151205000D03*
X167905625Y-151205000D03*
X170445625Y-151205000D03*
X172985625Y-151205000D03*
%TD*%
D15*
%TO.C,SW45*%
X299799375Y-123190000D03*
D16*
X304879375Y-123190000D03*
D15*
X309959375Y-123190000D03*
D17*
X301069375Y-125730000D03*
X307419375Y-128270000D03*
%TD*%
D15*
%TO.C,SW43*%
X56911875Y-104140000D03*
D16*
X61991875Y-104140000D03*
D15*
X67071875Y-104140000D03*
D17*
X58181875Y-106680000D03*
X64531875Y-109220000D03*
%TD*%
D15*
%TO.C,SW34*%
X240268125Y-104140000D03*
D16*
X245348125Y-104140000D03*
D15*
X250428125Y-104140000D03*
D17*
X241538125Y-106680000D03*
X247888125Y-109220000D03*
%TD*%
D15*
%TO.C,SW32*%
X278368125Y-104140000D03*
D16*
X283448125Y-104140000D03*
D15*
X288528125Y-104140000D03*
D17*
X279638125Y-106680000D03*
X285988125Y-109220000D03*
%TD*%
D15*
%TO.C,SW62*%
X190261875Y-142240000D03*
D16*
X195341875Y-142240000D03*
D15*
X200421875Y-142240000D03*
D17*
X191531875Y-144780000D03*
X197881875Y-147320000D03*
%TD*%
D15*
%TO.C,SW16*%
X306943125Y-85090000D03*
D16*
X312023125Y-85090000D03*
D15*
X317103125Y-85090000D03*
D17*
X308213125Y-87630000D03*
X314563125Y-90170000D03*
%TD*%
D15*
%TO.C,SW10*%
X159305625Y-66040000D03*
D16*
X164385625Y-66040000D03*
D15*
X169465625Y-66040000D03*
D17*
X160575625Y-68580000D03*
X166925625Y-71120000D03*
%TD*%
D15*
%TO.C,SW49*%
X211693125Y-123190000D03*
D16*
X216773125Y-123190000D03*
D15*
X221853125Y-123190000D03*
D17*
X212963125Y-125730000D03*
X219313125Y-128270000D03*
%TD*%
D15*
%TO.C,SW41*%
X106918125Y-104140000D03*
D16*
X111998125Y-104140000D03*
D15*
X117078125Y-104140000D03*
D17*
X108188125Y-106680000D03*
X114538125Y-109220000D03*
%TD*%
D15*
%TO.C,SW65*%
X83105625Y-142240000D03*
D16*
X88185625Y-142240000D03*
D15*
X93265625Y-142240000D03*
D17*
X84375625Y-144780000D03*
X90725625Y-147320000D03*
%TD*%
D15*
%TO.C,SW60*%
X285511875Y-142240000D03*
D16*
X290591875Y-142240000D03*
D15*
X295671875Y-142240000D03*
D17*
X286781875Y-144780000D03*
X293131875Y-147320000D03*
%TD*%
D18*
%TO.C,STB1*%
X145341875Y-134015000D03*
D19*
X145341875Y-149225000D03*
D18*
X245341875Y-134015000D03*
D19*
X245341875Y-149225000D03*
%TD*%
D15*
%TO.C,SW11*%
X140255625Y-66040000D03*
D16*
X145335625Y-66040000D03*
D15*
X150415625Y-66040000D03*
D17*
X141525625Y-68580000D03*
X147875625Y-71120000D03*
%TD*%
D15*
%TO.C,SW47*%
X249793125Y-123190000D03*
D16*
X254873125Y-123190000D03*
D15*
X259953125Y-123190000D03*
D17*
X251063125Y-125730000D03*
X257413125Y-128270000D03*
%TD*%
D15*
%TO.C,SW35*%
X221218125Y-104140000D03*
D16*
X226298125Y-104140000D03*
D15*
X231378125Y-104140000D03*
D17*
X222488125Y-106680000D03*
X228838125Y-109220000D03*
%TD*%
D15*
%TO.C,SW13*%
X102155625Y-66040000D03*
D16*
X107235625Y-66040000D03*
D15*
X112315625Y-66040000D03*
D17*
X103425625Y-68580000D03*
X109775625Y-71120000D03*
%TD*%
D15*
%TO.C,SW36*%
X202168125Y-104140000D03*
D16*
X207248125Y-104140000D03*
D15*
X212328125Y-104140000D03*
D17*
X203438125Y-106680000D03*
X209788125Y-109220000D03*
%TD*%
D18*
%TO.C,STB3*%
X73929875Y-112365000D03*
D19*
X73929875Y-97155000D03*
D18*
X50053875Y-112365000D03*
D19*
X50053875Y-97155000D03*
%TD*%
D15*
%TO.C,SW63*%
X121205625Y-142240000D03*
D16*
X126285625Y-142240000D03*
D15*
X131365625Y-142240000D03*
D17*
X122475625Y-144780000D03*
X128825625Y-147320000D03*
%TD*%
D15*
%TO.C,SW26*%
X111680625Y-85090000D03*
D16*
X116760625Y-85090000D03*
D15*
X121840625Y-85090000D03*
D17*
X112950625Y-87630000D03*
X119300625Y-90170000D03*
%TD*%
D15*
%TO.C,SW24*%
X149780625Y-85090000D03*
D16*
X154860625Y-85090000D03*
D15*
X159940625Y-85090000D03*
D17*
X151050625Y-87630000D03*
X157400625Y-90170000D03*
%TD*%
D15*
%TO.C,SW23*%
X168830625Y-85090000D03*
D16*
X173910625Y-85090000D03*
D15*
X178990625Y-85090000D03*
D17*
X170100625Y-87630000D03*
X176450625Y-90170000D03*
%TD*%
D15*
%TO.C,SW28*%
X73580625Y-85090000D03*
D16*
X78660625Y-85090000D03*
D15*
X83740625Y-85090000D03*
D17*
X74850625Y-87630000D03*
X81200625Y-90170000D03*
%TD*%
D15*
%TO.C,SW51*%
X173593125Y-123190000D03*
D16*
X178673125Y-123190000D03*
D15*
X183753125Y-123190000D03*
D17*
X174863125Y-125730000D03*
X181213125Y-128270000D03*
%TD*%
D15*
%TO.C,SW15*%
X54556025Y-66040000D03*
D16*
X59636025Y-66040000D03*
D15*
X64716025Y-66040000D03*
D17*
X55826025Y-68580000D03*
X62176025Y-71120000D03*
%TD*%
D15*
%TO.C,SW39*%
X145018125Y-104140000D03*
D16*
X150098125Y-104140000D03*
D15*
X155178125Y-104140000D03*
D17*
X146288125Y-106680000D03*
X152638125Y-109220000D03*
%TD*%
D15*
%TO.C,SW54*%
X116443125Y-123190000D03*
D16*
X121523125Y-123190000D03*
D15*
X126603125Y-123190000D03*
D17*
X117713125Y-125730000D03*
X124063125Y-128270000D03*
%TD*%
D15*
%TO.C,SW31*%
X304561875Y-104140000D03*
D16*
X309641875Y-104140000D03*
D15*
X314721875Y-104140000D03*
D17*
X305831875Y-106680000D03*
X312181875Y-109220000D03*
%TD*%
D15*
%TO.C,SW20*%
X225980625Y-85090000D03*
D16*
X231060625Y-85090000D03*
D15*
X236140625Y-85090000D03*
D17*
X227250625Y-87630000D03*
X233600625Y-90170000D03*
%TD*%
D15*
%TO.C,SW14*%
X83105625Y-66040000D03*
D16*
X88185625Y-66040000D03*
D15*
X93265625Y-66040000D03*
D17*
X84375625Y-68580000D03*
X90725625Y-71120000D03*
%TD*%
D15*
%TO.C,SW22*%
X187880625Y-85090000D03*
D16*
X192960625Y-85090000D03*
D15*
X198040625Y-85090000D03*
D17*
X189150625Y-87630000D03*
X195500625Y-90170000D03*
%TD*%
D15*
%TO.C,SW53*%
X135493125Y-123190000D03*
D16*
X140573125Y-123190000D03*
D15*
X145653125Y-123190000D03*
D17*
X136763125Y-125730000D03*
X143113125Y-128270000D03*
%TD*%
D15*
%TO.C,SW3*%
X292655625Y-66040000D03*
D16*
X297735625Y-66040000D03*
D15*
X302815625Y-66040000D03*
D17*
X293925625Y-68580000D03*
X300275625Y-71120000D03*
%TD*%
D15*
%TO.C,SW56*%
X71199375Y-123190000D03*
D16*
X76279375Y-123190000D03*
D15*
X81359375Y-123190000D03*
D17*
X72469375Y-125730000D03*
X78819375Y-128270000D03*
%TD*%
D18*
%TO.C,STB2*%
X316817375Y-131415000D03*
D19*
X316817375Y-116205000D03*
D18*
X292941375Y-131415000D03*
D19*
X292941375Y-116205000D03*
%TD*%
D15*
%TO.C,SW38*%
X164068125Y-104140000D03*
D16*
X169148125Y-104140000D03*
D15*
X174228125Y-104140000D03*
D17*
X165338125Y-106680000D03*
X171688125Y-109220000D03*
%TD*%
D15*
%TO.C,SW58*%
X25955625Y-123190000D03*
D16*
X31035625Y-123190000D03*
D15*
X36115625Y-123190000D03*
D17*
X27225625Y-125730000D03*
X33575625Y-128270000D03*
%TD*%
D15*
%TO.C,SW55*%
X97393125Y-123190000D03*
D16*
X102473125Y-123190000D03*
D15*
X107553125Y-123190000D03*
D17*
X98663125Y-125730000D03*
X105013125Y-128270000D03*
%TD*%
D15*
%TO.C,SW12*%
X121205625Y-66040000D03*
D16*
X126285625Y-66040000D03*
D15*
X131365625Y-66040000D03*
D17*
X122475625Y-68580000D03*
X128825625Y-71120000D03*
%TD*%
D15*
%TO.C,SW17*%
X283130625Y-85090000D03*
D16*
X288210625Y-85090000D03*
D15*
X293290625Y-85090000D03*
D17*
X284400625Y-87630000D03*
X290750625Y-90170000D03*
%TD*%
D20*
%TO.C,SW1*%
X28385625Y-58105000D03*
D21*
X33385625Y-58105000D03*
X30885625Y-58105000D03*
D22*
X36485625Y-65605000D03*
X25285625Y-65605000D03*
D21*
X33385625Y-72605000D03*
X28385625Y-72605000D03*
%TD*%
D15*
%TO.C,SW68*%
X25955625Y-142240000D03*
D16*
X31035625Y-142240000D03*
D15*
X36115625Y-142240000D03*
D17*
X27225625Y-144780000D03*
X33575625Y-147320000D03*
%TD*%
D15*
%TO.C,SW37*%
X183118125Y-104140000D03*
D16*
X188198125Y-104140000D03*
D15*
X193278125Y-104140000D03*
D17*
X184388125Y-106680000D03*
X190738125Y-109220000D03*
%TD*%
D15*
%TO.C,SW7*%
X216455625Y-66040000D03*
D16*
X221535625Y-66040000D03*
D15*
X226615625Y-66040000D03*
D17*
X217725625Y-68580000D03*
X224075625Y-71120000D03*
%TD*%
D18*
%TO.C,STB4*%
X71548625Y-74265000D03*
D19*
X71548625Y-59055000D03*
D18*
X47672625Y-74265000D03*
D19*
X47672625Y-59055000D03*
%TD*%
D15*
%TO.C,SW2*%
X311705625Y-66040000D03*
D16*
X316785625Y-66040000D03*
D15*
X321865625Y-66040000D03*
D17*
X312975625Y-68580000D03*
X319325625Y-71120000D03*
%TD*%
D15*
%TO.C,SW64*%
X102155625Y-142240000D03*
D16*
X107235625Y-142240000D03*
D15*
X112315625Y-142240000D03*
D17*
X103425625Y-144780000D03*
X109775625Y-147320000D03*
%TD*%
D15*
%TO.C,SW48*%
X230743125Y-123190000D03*
D16*
X235823125Y-123190000D03*
D15*
X240903125Y-123190000D03*
D17*
X232013125Y-125730000D03*
X238363125Y-128270000D03*
%TD*%
D15*
%TO.C,SW42*%
X87868125Y-104140000D03*
D16*
X92948125Y-104140000D03*
D15*
X98028125Y-104140000D03*
D17*
X89138125Y-106680000D03*
X95488125Y-109220000D03*
%TD*%
D15*
%TO.C,SW67*%
X45005625Y-142240000D03*
D16*
X50085625Y-142240000D03*
D15*
X55165625Y-142240000D03*
D17*
X46275625Y-144780000D03*
X52625625Y-147320000D03*
%TD*%
D15*
%TO.C,SW57*%
X45005625Y-123190000D03*
D16*
X50085625Y-123190000D03*
D15*
X55165625Y-123190000D03*
D17*
X46275625Y-125730000D03*
X52625625Y-128270000D03*
%TD*%
D15*
%TO.C,SW19*%
X245030625Y-85090000D03*
D16*
X250110625Y-85090000D03*
D15*
X255190625Y-85090000D03*
D17*
X246300625Y-87630000D03*
X252650625Y-90170000D03*
%TD*%
D15*
%TO.C,SW25*%
X130730625Y-85090000D03*
D16*
X135810625Y-85090000D03*
D15*
X140890625Y-85090000D03*
D17*
X132000625Y-87630000D03*
X138350625Y-90170000D03*
%TD*%
D15*
%TO.C,SW61*%
X261699375Y-142240000D03*
D16*
X266779375Y-142240000D03*
D15*
X271859375Y-142240000D03*
D17*
X262969375Y-144780000D03*
X269319375Y-147320000D03*
%TD*%
D15*
%TO.C,SW27*%
X92630625Y-85090000D03*
D16*
X97710625Y-85090000D03*
D15*
X102790625Y-85090000D03*
D17*
X93900625Y-87630000D03*
X100250625Y-90170000D03*
%TD*%
D15*
%TO.C,SW66*%
X64055625Y-142240000D03*
D16*
X69135625Y-142240000D03*
D15*
X74215625Y-142240000D03*
D17*
X65325625Y-144780000D03*
X71675625Y-147320000D03*
%TD*%
D15*
%TO.C,SW9*%
X178355625Y-66040000D03*
D16*
X183435625Y-66040000D03*
D15*
X188515625Y-66040000D03*
D17*
X179625625Y-68580000D03*
X185975625Y-71120000D03*
%TD*%
D15*
%TO.C,SW44*%
X25955625Y-104140000D03*
D16*
X31035625Y-104140000D03*
D15*
X36115625Y-104140000D03*
D17*
X27225625Y-106680000D03*
X33575625Y-109220000D03*
%TD*%
D15*
%TO.C,SW40*%
X125968125Y-104140000D03*
D16*
X131048125Y-104140000D03*
D15*
X136128125Y-104140000D03*
D17*
X127238125Y-106680000D03*
X133588125Y-109220000D03*
%TD*%
D15*
%TO.C,SW50*%
X192643125Y-123190000D03*
D16*
X197723125Y-123190000D03*
D15*
X202803125Y-123190000D03*
D17*
X193913125Y-125730000D03*
X200263125Y-128270000D03*
%TD*%
D15*
%TO.C,SW4*%
X273605625Y-66040000D03*
D16*
X278685625Y-66040000D03*
D15*
X283765625Y-66040000D03*
D17*
X274875625Y-68580000D03*
X281225625Y-71120000D03*
%TD*%
D15*
%TO.C,SW18*%
X264080625Y-85090000D03*
D16*
X269160625Y-85090000D03*
D15*
X274240625Y-85090000D03*
D17*
X265350625Y-87630000D03*
X271700625Y-90170000D03*
%TD*%
D15*
%TO.C,SW5*%
X254555625Y-66040000D03*
D16*
X259635625Y-66040000D03*
D15*
X264715625Y-66040000D03*
D17*
X255825625Y-68580000D03*
X262175625Y-71120000D03*
%TD*%
D15*
%TO.C,SW29*%
X49768125Y-85090000D03*
D16*
X54848125Y-85090000D03*
D15*
X59928125Y-85090000D03*
D17*
X51038125Y-87630000D03*
X57388125Y-90170000D03*
%TD*%
D15*
%TO.C,SW52*%
X154543125Y-123190000D03*
D16*
X159623125Y-123190000D03*
D15*
X164703125Y-123190000D03*
D17*
X155813125Y-125730000D03*
X162163125Y-128270000D03*
%TD*%
D15*
%TO.C,SW30*%
X25955625Y-85090000D03*
D16*
X31035625Y-85090000D03*
D15*
X36115625Y-85090000D03*
D17*
X27225625Y-87630000D03*
X33575625Y-90170000D03*
%TD*%
D15*
%TO.C,SW46*%
X268843125Y-123190000D03*
D16*
X273923125Y-123190000D03*
D15*
X279003125Y-123190000D03*
D17*
X270113125Y-125730000D03*
X276463125Y-128270000D03*
%TD*%
D15*
%TO.C,SW8*%
X197405625Y-66040000D03*
D16*
X202485625Y-66040000D03*
D15*
X207565625Y-66040000D03*
D17*
X198675625Y-68580000D03*
X205025625Y-71120000D03*
%TD*%
D15*
%TO.C,SW6*%
X235505625Y-66040000D03*
D16*
X240585625Y-66040000D03*
D15*
X245665625Y-66040000D03*
D17*
X236775625Y-68580000D03*
X243125625Y-71120000D03*
%TD*%
D15*
%TO.C,SW59*%
X309324375Y-142240000D03*
D16*
X314404375Y-142240000D03*
D15*
X319484375Y-142240000D03*
D17*
X310594375Y-144780000D03*
X316944375Y-147320000D03*
%TD*%
D15*
%TO.C,SW33*%
X259318125Y-104140000D03*
D16*
X264398125Y-104140000D03*
D15*
X269478125Y-104140000D03*
D17*
X260588125Y-106680000D03*
X266938125Y-109220000D03*
%TD*%
D15*
%TO.C,SW21*%
X206930625Y-85090000D03*
D16*
X212010625Y-85090000D03*
D15*
X217090625Y-85090000D03*
D17*
X208200625Y-87630000D03*
X214550625Y-90170000D03*
%TD*%
M02*
