M48
; DRILL file {KiCad 7.0.6} date Mon Mar 18 14:57:46 2024
; FORMAT={-:-/ absolute / inch / decimal}
; #@! TF.CreationDate,2024-03-18T14:57:46-04:00
; #@! TF.GenerationSoftware,Kicad,Pcbnew,7.0.6
; #@! TF.FileFunction,NonPlated,1,2,NPTH
FMAT,2
INCH
; #@! TA.AperFunction,NonPlated,NPTH,ComponentDrill
T1C0.0689
; #@! TA.AperFunction,NonPlated,NPTH,ComponentDrill
T2C0.1200
; #@! TA.AperFunction,NonPlated,NPTH,ComponentDrill
T3C0.1260
; #@! TA.AperFunction,NonPlated,NPTH,ComponentDrill
T4C0.1570
; #@! TA.AperFunction,NonPlated,NPTH,ComponentDrill
T5C0.1575
%
G90
G05
T1
X1.0219Y-3.35
X1.0219Y-4.1
X1.0219Y-4.85
X1.0219Y-5.6
X1.4219Y-3.35
X1.4219Y-4.1
X1.4219Y-4.85
X1.4219Y-5.6
X1.7719Y-4.85
X1.7719Y-5.6
X1.9594Y-3.35
X2.1479Y-2.6
X2.1719Y-4.85
X2.1719Y-5.6
X2.2406Y-4.1
X2.3594Y-3.35
X2.5219Y-5.6
X2.5479Y-2.6
X2.6406Y-4.1
X2.8031Y-4.85
X2.8969Y-3.35
X2.9219Y-5.6
X3.2031Y-4.85
X3.2719Y-2.6
X3.2719Y-5.6
X3.2969Y-3.35
X3.4594Y-4.1
X3.6469Y-3.35
X3.6719Y-2.6
X3.6719Y-5.6
X3.8344Y-4.85
X3.8594Y-4.1
X4.0219Y-2.6
X4.0219Y-5.6
X4.0469Y-3.35
X4.2094Y-4.1
X4.2344Y-4.85
X4.3969Y-3.35
X4.4219Y-2.6
X4.4219Y-5.6
X4.5844Y-4.85
X4.6094Y-4.1
X4.7719Y-2.6
X4.7719Y-5.6
X4.7969Y-3.35
X4.9594Y-4.1
X4.9844Y-4.85
X5.1469Y-3.35
X5.1719Y-2.6
X5.1719Y-5.6
X5.3344Y-4.85
X5.3594Y-4.1
X5.5219Y-2.6
X5.5469Y-3.35
X5.7094Y-4.1
X5.7344Y-4.85
X5.8969Y-3.35
X5.9219Y-2.6
X6.0844Y-4.85
X6.1094Y-4.1
X6.2719Y-2.6
X6.2969Y-3.35
X6.4594Y-4.1
X6.4844Y-4.85
X6.6469Y-3.35
X6.6719Y-2.6
X6.8344Y-4.85
X6.8594Y-4.1
X7.0219Y-2.6
X7.0469Y-3.35
X7.2094Y-4.1
X7.2344Y-4.85
X7.3969Y-3.35
X7.4219Y-2.6
X7.4906Y-5.6
X7.5844Y-4.85
X7.6094Y-4.1
X7.7719Y-2.6
X7.7969Y-3.35
X7.8906Y-5.6
X7.9594Y-4.1
X7.9844Y-4.85
X8.1469Y-3.35
X8.1719Y-2.6
X8.3344Y-4.85
X8.3594Y-4.1
X8.5219Y-2.6
X8.5469Y-3.35
X8.7094Y-4.1
X8.7344Y-4.85
X8.8969Y-3.35
X8.9219Y-2.6
X9.0844Y-4.85
X9.1094Y-4.1
X9.2719Y-2.6
X9.2969Y-3.35
X9.4594Y-4.1
X9.4844Y-4.85
X9.6469Y-3.35
X9.6719Y-2.6
X9.8344Y-4.85
X9.8594Y-4.1
X10.0219Y-2.6
X10.0469Y-3.35
X10.2094Y-4.1
X10.2344Y-4.85
X10.3031Y-5.6
X10.3969Y-3.35
X10.4219Y-2.6
X10.5844Y-4.85
X10.6094Y-4.1
X10.7031Y-5.6
X10.7719Y-2.6
X10.7969Y-3.35
X10.9594Y-4.1
X10.9844Y-4.85
X11.1469Y-3.35
X11.1719Y-2.6
X11.2406Y-5.6
X11.3594Y-4.1
X11.5219Y-2.6
X11.5469Y-3.35
X11.6406Y-5.6
X11.8031Y-4.85
X11.9219Y-2.6
X11.9906Y-4.1
X12.0844Y-3.35
X12.1781Y-5.6
X12.2031Y-4.85
X12.2719Y-2.6
X12.3906Y-4.1
X12.4844Y-3.35
X12.5781Y-5.6
X12.6719Y-2.6
T2
X1.8769Y-2.325
X1.9706Y-3.825
X2.8169Y-2.325
X2.9106Y-3.825
X5.7221Y-5.875
X9.6591Y-5.875
X11.5331Y-4.575
X12.4731Y-4.575
T3
X1.6406Y-3.0469
X2.4844Y-4.9688
X7.0979Y-5.3781
X7.2188Y-3.0
X11.25Y-5.1562
X11.8125Y-3.0469
T4
X1.8769Y-2.9238
X1.9706Y-4.4238
X2.8169Y-2.9238
X2.9106Y-4.4238
X5.7221Y-5.2762
X9.6591Y-5.2762
X11.5331Y-5.1738
X12.4731Y-5.1738
T5
X1.2219Y-3.35
X1.2219Y-4.1
X1.2219Y-4.85
X1.2219Y-5.6
X1.9719Y-4.85
X1.9719Y-5.6
X2.1594Y-3.35
X2.3479Y-2.6
X2.4406Y-4.1
X2.7219Y-5.6
X3.0031Y-4.85
X3.0969Y-3.35
X3.4719Y-2.6
X3.4719Y-5.6
X3.6594Y-4.1
X3.8469Y-3.35
X4.0344Y-4.85
X4.2219Y-2.6
X4.2219Y-5.6
X4.4094Y-4.1
X4.5969Y-3.35
X4.7844Y-4.85
X4.9719Y-2.6
X4.9719Y-5.6
X5.1594Y-4.1
X5.3469Y-3.35
X5.5344Y-4.85
X5.7219Y-2.6
X5.9094Y-4.1
X6.0969Y-3.35
X6.2844Y-4.85
X6.4719Y-2.6
X6.6594Y-4.1
X6.8469Y-3.35
X7.0344Y-4.85
X7.2219Y-2.6
X7.4094Y-4.1
X7.5969Y-3.35
X7.6906Y-5.6
X7.7844Y-4.85
X7.9719Y-2.6
X8.1594Y-4.1
X8.3469Y-3.35
X8.5344Y-4.85
X8.7219Y-2.6
X8.9094Y-4.1
X9.0969Y-3.35
X9.2844Y-4.85
X9.4719Y-2.6
X9.6594Y-4.1
X9.8469Y-3.35
X10.0344Y-4.85
X10.2219Y-2.6
X10.4094Y-4.1
X10.5031Y-5.6
X10.5969Y-3.35
X10.7844Y-4.85
X10.9719Y-2.6
X11.1594Y-4.1
X11.3469Y-3.35
X11.4406Y-5.6
X11.7219Y-2.6
X12.0031Y-4.85
X12.1906Y-4.1
X12.2844Y-3.35
X12.3781Y-5.6
X12.4719Y-2.6
T0
M30
